  0
SECTION
  2
HEADER
  9
$ACADVER
  1
AC1032
  9
$ACADMAINTVER
 90
      251
  9
$DWGCODEPAGE
  3
ANSI_1252
  9
$REQUIREDVERSIONS
160
                 0
  9
$INSBASE
 10
0.0
 20
0.0
 30
0.0
  9
$EXTMIN
 10
1.000000000000000E+20
 20
1.000000000000000E+20
 30
1.000000000000000E+20
  9
$EXTMAX
 10
-1.000000000000000E+20
 20
-1.000000000000000E+20
 30
-1.000000000000000E+20
  9
$LIMMIN
 10
0.0
 20
0.0
  9
$LIMMAX
 10
12.0
 20
9.0
  9
$ORTHOMODE
 70
     0
  9
$REGENMODE
 70
     1
  9
$FILLMODE
 70
     1
  9
$QTEXTMODE
 70
     0
  9
$MIRRTEXT
 70
     0
  9
$LTSCALE
 40
1.0
  9
$ATTMODE
 70
     1
  9
$TEXTSIZE
 40
0.2
  9
$TRACEWID
 40
0.05
  9
$TEXTSTYLE
  7
Standard
  9
$CLAYER
  8
0
  9
$CELTYPE
  6
ByLayer
  9
$CECOLOR
 62
   256
  9
$CELTSCALE
 40
1.0
  9
$DISPSILH
 70
     0
  9
$DIMSCALE
 40
1.0
  9
$DIMASZ
 40
0.18
  9
$DIMEXO
 40
0.0625
  9
$DIMDLI
 40
0.38
  9
$DIMRND
 40
0.0
  9
$DIMDLE
 40
0.0
  9
$DIMEXE
 40
0.18
  9
$DIMTP
 40
0.0
  9
$DIMTM
 40
0.0
  9
$DIMTXT
 40
0.18
  9
$DIMCEN
 40
0.09
  9
$DIMTSZ
 40
0.0
  9
$DIMTOL
 70
     0
  9
$DIMLIM
 70
     0
  9
$DIMTIH
 70
     1
  9
$DIMTOH
 70
     1
  9
$DIMSE1
 70
     0
  9
$DIMSE2
 70
     0
  9
$DIMTAD
 70
     0
  9
$DIMZIN
 70
     0
  9
$DIMBLK
  1

  9
$DIMASO
 70
     1
  9
$DIMSHO
 70
     1
  9
$DIMPOST
  1

  9
$DIMAPOST
  1

  9
$DIMALT
 70
     0
  9
$DIMALTD
 70
     2
  9
$DIMALTF
 40
25.4
  9
$DIMLFAC
 40
1.0
  9
$DIMTOFL
 70
     0
  9
$DIMTVP
 40
0.0
  9
$DIMTIX
 70
     0
  9
$DIMSOXD
 70
     0
  9
$DIMSAH
 70
     0
  9
$DIMBLK1
  1

  9
$DIMBLK2
  1

  9
$DIMSTYLE
  2
Standard
  9
$DIMCLRD
 70
     0
  9
$DIMCLRE
 70
     0
  9
$DIMCLRT
 70
     0
  9
$DIMTFAC
 40
1.0
  9
$DIMGAP
 40
0.09
  9
$DIMJUST
 70
     0
  9
$DIMSD1
 70
     0
  9
$DIMSD2
 70
     0
  9
$DIMTOLJ
 70
     1
  9
$DIMTZIN
 70
     0
  9
$DIMALTZ
 70
     0
  9
$DIMALTTZ
 70
     0
  9
$DIMUPT
 70
     0
  9
$DIMDEC
 70
     4
  9
$DIMTDEC
 70
     4
  9
$DIMALTU
 70
     2
  9
$DIMALTTD
 70
     2
  9
$DIMTXSTY
  7
Standard
  9
$DIMAUNIT
 70
     0
  9
$DIMADEC
 70
     0
  9
$DIMALTRND
 40
0.0
  9
$DIMAZIN
 70
     0
  9
$DIMDSEP
 70
    46
  9
$DIMATFIT
 70
     3
  9
$DIMFRAC
 70
     0
  9
$DIMLDRBLK
  1

  9
$DIMLUNIT
 70
     2
  9
$DIMLWD
 70
    -2
  9
$DIMLWE
 70
    -2
  9
$DIMTMOVE
 70
     0
  9
$DIMFXL
 40
1.0
  9
$DIMFXLON
 70
     0
  9
$DIMJOGANG
 40
0.7853981633974483
  9
$DIMTFILL
 70
     0
  9
$DIMTFILLCLR
 70
     0
  9
$DIMARCSYM
 70
     0
  9
$DIMLTYPE
  6

  9
$DIMLTEX1
  6

  9
$DIMLTEX2
  6

  9
$DIMTXTDIRECTION
 70
     0
  9
$LUNITS
 70
     2
  9
$LUPREC
 70
     4
  9
$SKETCHINC
 40
0.1
  9
$FILLETRAD
 40
0.0
  9
$AUNITS
 70
     0
  9
$AUPREC
 70
     0
  9
$MENU
  1
.
  9
$ELEVATION
 40
0.0
  9
$PELEVATION
 40
0.0
  9
$THICKNESS
 40
0.0
  9
$LIMCHECK
 70
     0
  9
$CHAMFERA
 40
0.0
  9
$CHAMFERB
 40
0.0
  9
$CHAMFERC
 40
0.0
  9
$CHAMFERD
 40
0.0
  9
$SKPOLY
 70
     0
  9
$TDCREATE
 40
2460422.535289352
  9
$TDUCREATE
 40
2460422.701956018
  9
$TDUPDATE
 40
2460422.535289352
  9
$TDUUPDATE
 40
2460422.701956018
  9
$TDINDWG
 40
0.0000000000
  9
$TDUSRTIMER
 40
0.0000000000
  9
$USRTIMER
 70
     1
  9
$ANGBASE
 50
0.0
  9
$ANGDIR
 70
     0
  9
$PDMODE
 70
     0
  9
$PDSIZE
 40
0.0
  9
$PLINEWID
 40
0.0
  9
$SPLFRAME
 70
     0
  9
$SPLINETYPE
 70
     6
  9
$SPLINESEGS
 70
     8
  9
$HANDSEED
  5
DC
  9
$SURFTAB1
 70
     6
  9
$SURFTAB2
 70
     6
  9
$SURFTYPE
 70
     6
  9
$SURFU
 70
     6
  9
$SURFV
 70
     6
  9
$UCSBASE
  2

  9
$UCSNAME
  2

  9
$UCSORG
 10
0.0
 20
0.0
 30
0.0
  9
$UCSXDIR
 10
1.0
 20
0.0
 30
0.0
  9
$UCSYDIR
 10
0.0
 20
1.0
 30
0.0
  9
$UCSORTHOREF
  2

  9
$UCSORTHOVIEW
 70
     0
  9
$UCSORGTOP
 10
0.0
 20
0.0
 30
0.0
  9
$UCSORGBOTTOM
 10
0.0
 20
0.0
 30
0.0
  9
$UCSORGLEFT
 10
0.0
 20
0.0
 30
0.0
  9
$UCSORGRIGHT
 10
0.0
 20
0.0
 30
0.0
  9
$UCSORGFRONT
 10
0.0
 20
0.0
 30
0.0
  9
$UCSORGBACK
 10
0.0
 20
0.0
 30
0.0
  9
$PUCSBASE
  2

  9
$PUCSNAME
  2

  9
$PUCSORG
 10
0.0
 20
0.0
 30
0.0
  9
$PUCSXDIR
 10
1.0
 20
0.0
 30
0.0
  9
$PUCSYDIR
 10
0.0
 20
1.0
 30
0.0
  9
$PUCSORTHOREF
  2

  9
$PUCSORTHOVIEW
 70
     0
  9
$PUCSORGTOP
 10
0.0
 20
0.0
 30
0.0
  9
$PUCSORGBOTTOM
 10
0.0
 20
0.0
 30
0.0
  9
$PUCSORGLEFT
 10
0.0
 20
0.0
 30
0.0
  9
$PUCSORGRIGHT
 10
0.0
 20
0.0
 30
0.0
  9
$PUCSORGFRONT
 10
0.0
 20
0.0
 30
0.0
  9
$PUCSORGBACK
 10
0.0
 20
0.0
 30
0.0
  9
$USERI1
 70
     0
  9
$USERI2
 70
     0
  9
$USERI3
 70
     0
  9
$USERI4
 70
     0
  9
$USERI5
 70
     0
  9
$USERR1
 40
0.0
  9
$USERR2
 40
0.0
  9
$USERR3
 40
0.0
  9
$USERR4
 40
0.0
  9
$USERR5
 40
0.0
  9
$WORLDVIEW
 70
     1
  9
$SHADEDGE
 70
     3
  9
$SHADEDIF
 70
    70
  9
$TILEMODE
 70
     1
  9
$MAXACTVP
 70
    64
  9
$PINSBASE
 10
0.0
 20
0.0
 30
0.0
  9
$PLIMCHECK
 70
     0
  9
$PEXTMIN
 10
1.000000000000000E+20
 20
1.000000000000000E+20
 30
1.000000000000000E+20
  9
$PEXTMAX
 10
-1.000000000000000E+20
 20
-1.000000000000000E+20
 30
-1.000000000000000E+20
  9
$PLIMMIN
 10
0.0
 20
0.0
  9
$PLIMMAX
 10
12.0
 20
9.0
  9
$UNITMODE
 70
     0
  9
$VISRETAIN
 70
     1
  9
$PLINEGEN
 70
     0
  9
$PSLTSCALE
 70
     1
  9
$TREEDEPTH
 70
  3020
  9
$CMLSTYLE
  2
Standard
  9
$CMLJUST
 70
     0
  9
$CMLSCALE
 40
1.0
  9
$PROXYGRAPHICS
 70
     1
  9
$MEASUREMENT
 70
     0
  9
$CELWEIGHT
370
    -1
  9
$ENDCAPS
280
     0
  9
$JOINSTYLE
280
     0
  9
$LWDISPLAY
290
     1
  9
$INSUNITS
 70
     1
  9
$HYPERLINKBASE
  1

  9
$STYLESHEET
  1

  9
$XEDIT
290
     1
  9
$CEPSNTYPE
380
     0
  9
$PSTYLEMODE
290
     1
  9
$FINGERPRINTGUID
  2
{4D5E24C5-A10D-DD4B-A8F5-878D7D6A11D1}
  9
$VERSIONGUID
  2
{0D27CDA8-FE9B-334B-9FEA-18B8DD6B1BA3}
  9
$EXTNAMES
290
     1
  9
$PSVPSCALE
 40
0.0
  9
$OLESTARTUP
290
     0
  9
$SORTENTS
280
   127
  9
$INDEXCTL
280
     0
  9
$HIDETEXT
280
     1
  9
$XCLIPFRAME
280
     2
  9
$HALOGAP
280
     0
  9
$OBSCOLOR
 70
   257
  9
$OBSLTYPE
280
     0
  9
$INTERSECTIONDISPLAY
280
     0
  9
$INTERSECTIONCOLOR
 70
   257
  9
$DIMASSOC
280
     2
  9
$PROJECTNAME
  1

  9
$CAMERADISPLAY
290
     0
  9
$LENSLENGTH
 40
50.0
  9
$CAMERAHEIGHT
 40
0.0
  9
$STEPSPERSEC
 40
2.0
  9
$STEPSIZE
 40
6.0
  9
$3DDWFPREC
 40
2.0
  9
$PSOLWIDTH
 40
0.25
  9
$PSOLHEIGHT
 40
4.0
  9
$LOFTANG1
 40
1.570796326794896
  9
$LOFTANG2
 40
1.570796326794896
  9
$LOFTMAG1
 40
0.0
  9
$LOFTMAG2
 40
0.0
  9
$LOFTPARAM
 70
     7
  9
$LOFTNORMALS
280
     1
  9
$LATITUDE
 40
37.795
  9
$LONGITUDE
 40
-122.394
  9
$NORTHDIRECTION
 40
0.0
  9
$TIMEZONE
 70
 -8000
  9
$LIGHTGLYPHDISPLAY
280
     1
  9
$TILEMODELIGHTSYNCH
280
     1
  9
$CMATERIAL
347
11
  9
$SOLIDHIST
280
     0
  9
$SHOWHIST
280
     1
  9
$DWFFRAME
280
     2
  9
$DGNFRAME
280
     0
  9
$REALWORLDSCALE
290
     1
  9
$INTERFERECOLOR
 62
     1
  9
$INTERFEREOBJVS
345
33
  9
$INTERFEREVPVS
346
30
  9
$CSHADOW
280
     0
  9
$SHADOWPLANELOCATION
 40
0.0
  0
ENDSEC
  0
SECTION
  2
CLASSES
  0
CLASS
  1
ACDBDICTIONARYWDFLT
  2
AcDbDictionaryWithDefault
  3
ObjectDBX Classes
 90
        0
 91
        1
280
     0
281
     0
  0
CLASS
  1
MATERIAL
  2
AcDbMaterial
  3
ObjectDBX Classes
 90
     1153
 91
        3
280
     0
281
     0
  0
CLASS
  1
VISUALSTYLE
  2
AcDbVisualStyle
  3
ObjectDBX Classes
 90
     4095
 91
       24
280
     0
281
     0
  0
CLASS
  1
SCALE
  2
AcDbScale
  3
ObjectDBX Classes
 90
     1153
 91
       17
280
     0
281
     0
  0
CLASS
  1
TABLESTYLE
  2
AcDbTableStyle
  3
ObjectDBX Classes
 90
     4095
 91
        1
280
     0
281
     0
  0
CLASS
  1
MLEADERSTYLE
  2
AcDbMLeaderStyle
  3
ACDB_MLEADERSTYLE_CLASS
 90
     4095
 91
        1
280
     0
281
     0
  0
CLASS
  1
ACDBSECTIONVIEWSTYLE
  2
AcDbSectionViewStyle
  3
ObjectDBX Classes
 90
     1025
 91
        1
280
     0
281
     0
  0
CLASS
  1
ACDBDETAILVIEWSTYLE
  2
AcDbDetailViewStyle
  3
ObjectDBX Classes
 90
     1025
 91
        1
280
     0
281
     0
  0
CLASS
  1
DICTIONARYVAR
  2
AcDbDictionaryVar
  3
ObjectDBX Classes
 90
        0
 91
        5
280
     0
281
     0
  0
CLASS
  1
CELLSTYLEMAP
  2
AcDbCellStyleMap
  3
ObjectDBX Classes
 90
     1152
 91
        1
280
     0
281
     0
  0
ENDSEC
  0
SECTION
  2
TABLES
  0
TABLE
  2
VPORT
  5
8
330
0
100
AcDbSymbolTable
 70
     1
  0
VPORT
  5
57
330
8
100
AcDbSymbolTableRecord
100
AcDbViewportTableRecord
  2
*Active
 70
     0
 10
0.0
 20
0.0
 11
1.0
 21
1.0
 12
0.0
 22
0.0
 13
0.0
 23
0.0
 14
1.0
 24
1.0
 15
0.0
 25
0.0
 16
0.0
 26
0.0
 36
1.0
 17
24.0
 27
-12.0
 37
0.0
 40
24.48
 41
2.0
 42
50.0
 43
0.0
 44
0.0
 50
0.0
 51
0.0
 71
     0
 72
   100
 73
     1
 74
     1
 75
     0
 76
     0
 77
     0
 78
     0
281
     0
 65
     1
110
0.0
120
0.0
130
0.0
111
1.0
121
0.0
131
0.0
112
0.0
122
1.0
132
0.0
 79
     0
146
0.0
 60
     3
 61
     5
292
     1
282
     1
141
0.0
142
0.0
 63
   250
421
  3355443
  0
ENDTAB
  0
TABLE
  2
LTYPE
  5
5
330
0
100
AcDbSymbolTable
 70
     1
  0
LTYPE
  5
5B
330
5
100
AcDbSymbolTableRecord
100
AcDbLinetypeTableRecord
  2
ByBlock
 70
     0
  3

 72
    65
 73
     0
 40
0.0
  0
LTYPE
  5
5C
330
5
100
AcDbSymbolTableRecord
100
AcDbLinetypeTableRecord
  2
ByLayer
 70
     0
  3

 72
    65
 73
     0
 40
0.0
  0
LTYPE
  5
5D
330
5
100
AcDbSymbolTableRecord
100
AcDbLinetypeTableRecord
  2
Continuous
 70
     0
  3
Solid line
 72
    65
 73
     0
 40
0.0
  0
ENDTAB
  0
TABLE
  2
LAYER
  5
2
330
0
100
AcDbSymbolTable
 70
     2
  0
LAYER
  5
54
330
2
100
AcDbSymbolTableRecord
100
AcDbLayerTableRecord
  2
0
 70
     0
 62
     7
  6
Continuous
370
    -3
390
F
347
21
348
0
  0
LAYER
  5
78
330
2
100
AcDbSymbolTableRecord
100
AcDbLayerTableRecord
  2
Layer 1
 70
     0
 62
     7
  6
Continuous
370
     0
390
F
347
21
348
0
  0
ENDTAB
  0
TABLE
  2
STYLE
  5
3
330
0
100
AcDbSymbolTable
 70
     2
  0
STYLE
  5
55
330
3
100
AcDbSymbolTableRecord
100
AcDbTextStyleTableRecord
  2
Standard
 70
     0
 40
0.0
 41
1.0
 50
0.0
 71
     0
 42
0.2
  3
txt
  4

  0
STYLE
  5
5A
330
3
100
AcDbSymbolTableRecord
100
AcDbTextStyleTableRecord
  2
Annotative
 70
     0
 40
0.0
 41
1.0
 50
0.0
 71
     0
 42
0.2
  3
txt
  4

1001
AcadAnnotative
1000
AnnotativeData
1002
{
1070
     1
1070
     1
1002
}
  0
ENDTAB
  0
TABLE
  2
VIEW
  5
6
330
0
100
AcDbSymbolTable
 70
     0
  0
ENDTAB
  0
TABLE
  2
UCS
  5
7
330
0
100
AcDbSymbolTable
 70
     0
  0
ENDTAB
  0
TABLE
  2
APPID
  5
9
330
0
100
AcDbSymbolTable
 70
     2
  0
APPID
  5
56
330
9
100
AcDbSymbolTableRecord
100
AcDbRegAppTableRecord
  2
ACAD
 70
     0
  0
APPID
  5
5E
330
9
100
AcDbSymbolTableRecord
100
AcDbRegAppTableRecord
  2
AcadAnnotative
 70
     0
  0
ENDTAB
  0
TABLE
  2
DIMSTYLE
  5
A
330
0
100
AcDbSymbolTable
 70
     2
100
AcDbDimStyleTable
 71
     0
  0
DIMSTYLE
105
58
330
A
100
AcDbSymbolTableRecord
100
AcDbDimStyleTableRecord
  2
Standard
 70
     0
340
55
  0
DIMSTYLE
105
59
330
A
100
AcDbSymbolTableRecord
100
AcDbDimStyleTableRecord
  2
Annotative
 70
     0
340
55
1001
AcadAnnotative
1000
AnnotativeData
1002
{
1070
     1
1070
     1
1002
}
  0
ENDTAB
  0
TABLE
  2
BLOCK_RECORD
  5
1
330
0
100
AcDbSymbolTable
 70
     8
  0
BLOCK_RECORD
  5
70
330
1
100
AcDbSymbolTableRecord
100
AcDbBlockTableRecord
  2
*Model_Space
340
73
 70
     0
280
     1
281
     0
  0
BLOCK_RECORD
  5
6C
330
1
100
AcDbSymbolTableRecord
100
AcDbBlockTableRecord
  2
*Paper_Space
340
6F
 70
     0
280
     1
281
     0
  0
BLOCK_RECORD
  5
74
330
1
100
AcDbSymbolTableRecord
100
AcDbBlockTableRecord
  2
*Paper_Space0
340
77
 70
     0
280
     1
281
     0
  0
BLOCK_RECORD
  5
79
330
1
100
AcDbSymbolTableRecord
100
AcDbBlockTableRecord
  2
Block_0
340
0
102
{BLKREFS
331
7A
102
}
 70
     0
280
     1
281
     0
  0
BLOCK_RECORD
  5
7D
330
1
100
AcDbSymbolTableRecord
100
AcDbBlockTableRecord
  2
Block_1
340
0
102
{BLKREFS
331
7E
102
}
 70
     0
280
     1
281
     0
  0
BLOCK_RECORD
  5
83
330
1
100
AcDbSymbolTableRecord
100
AcDbBlockTableRecord
  2
Block_2
340
0
102
{BLKREFS
331
84
102
}
 70
     0
280
     1
281
     0
  0
BLOCK_RECORD
  5
89
330
1
100
AcDbSymbolTableRecord
100
AcDbBlockTableRecord
  2
Block_3
340
0
102
{BLKREFS
331
8A
102
}
 70
     0
280
     1
281
     0
  0
BLOCK_RECORD
  5
91
330
1
100
AcDbSymbolTableRecord
100
AcDbBlockTableRecord
  2
Block_4
340
0
102
{BLKREFS
331
92
102
}
 70
     0
280
     1
281
     0
  0
BLOCK_RECORD
  5
C1
330
1
100
AcDbSymbolTableRecord
100
AcDbBlockTableRecord
  2
Block_5
340
0
102
{BLKREFS
331
C2
102
}
 70
     0
280
     1
281
     0
  0
BLOCK_RECORD
  5
C9
330
1
100
AcDbSymbolTableRecord
100
AcDbBlockTableRecord
  2
Block_6
340
0
102
{BLKREFS
331
CA
102
}
 70
     0
280
     1
281
     0
  0
ENDTAB
  0
ENDSEC
  0
SECTION
  2
BLOCKS
  0
BLOCK
  5
71
330
70
100
AcDbEntity
  8
0
100
AcDbBlockBegin
  2
*Model_Space
 70
     0
 10
0.0
 20
0.0
 30
0.0
  3
*Model_Space
  1

  0
ENDBLK
  5
72
330
70
100
AcDbEntity
  8
0
100
AcDbBlockEnd
  0
BLOCK
  5
6D
330
6C
100
AcDbEntity
 67
     1
  8
0
100
AcDbBlockBegin
  2
*Paper_Space
 70
     0
 10
0.0
 20
0.0
 30
0.0
  3
*Paper_Space
  1

  0
ENDBLK
  5
6E
330
6C
100
AcDbEntity
 67
     1
  8
0
100
AcDbBlockEnd
  0
BLOCK
  5
75
330
74
100
AcDbEntity
 67
     1
  8
0
100
AcDbBlockBegin
  2
*Paper_Space0
 70
     0
 10
0.0
 20
0.0
 30
0.0
  3
*Paper_Space0
  1

  0
ENDBLK
  5
76
330
74
100
AcDbEntity
 67
     1
  8
0
100
AcDbBlockEnd
  0
BLOCK
  5
7B
330
79
100
AcDbEntity
  8
0
100
AcDbBlockBegin
  2
Block_0
 70
     0
 10
0.0
 20
0.0
 30
0.0
  3
Block_0
  1

  0
INSERT
  5
7E
330
79
100
AcDbEntity
  8
Layer 1
100
AcDbBlockReference
  2
Block_1
 10
0.0
 20
0.0
 30
0.0
  0
INSERT
  5
84
330
79
100
AcDbEntity
  8
Layer 1
100
AcDbBlockReference
  2
Block_2
 10
0.0
 20
0.0
 30
0.0
  0
ENDBLK
  5
7C
330
79
100
AcDbEntity
  8
0
100
AcDbBlockEnd
  0
BLOCK
  5
7F
330
7D
100
AcDbEntity
  8
0
100
AcDbBlockBegin
  2
Block_1
 70
     0
 10
0.0
 20
0.0
 30
0.0
  3
Block_1
  1

  0
CIRCLE
  5
81
330
7D
100
AcDbEntity
  8
Layer 1
 62
     1
420
 16711680
370
    35
100
AcDbCircle
 10
10.94634008448601
 20
-12.43204749412752
 30
0.0
 40
0.1181102362204582
  0
CIRCLE
  5
82
330
7D
100
AcDbEntity
  8
Layer 1
 62
     1
420
 16711680
370
    35
100
AcDbCircle
 10
10.9463381545949
 20
-18.33755930515083
 30
0.0
 40
0.118110236220474
  0
ENDBLK
  5
80
330
7D
100
AcDbEntity
  8
0
100
AcDbBlockEnd
  0
BLOCK
  5
85
330
83
100
AcDbEntity
  8
0
100
AcDbBlockBegin
  2
Block_2
 70
     0
 10
0.0
 20
0.0
 30
0.0
  3
Block_2
  1

  0
CIRCLE
  5
87
330
83
100
AcDbEntity
  8
Layer 1
 62
     1
420
 16711680
370
    35
100
AcDbCircle
 10
4.253440084486365
 20
-12.43204530692197
 30
0.0
 40
0.1181102362204866
  0
CIRCLE
  5
88
330
83
100
AcDbEntity
  8
Layer 1
 62
     1
420
 16711680
370
    35
100
AcDbCircle
 10
4.253438154595253
 20
-18.33755711794527
 30
0.0
 40
0.1181102362205072
  0
ENDBLK
  5
86
330
83
100
AcDbEntity
  8
0
100
AcDbBlockEnd
  0
BLOCK
  5
8B
330
89
100
AcDbEntity
  8
0
100
AcDbBlockBegin
  2
Block_3
 70
     0
 10
0.0
 20
0.0
 30
0.0
  3
Block_3
  1

  0
CIRCLE
  5
8D
330
89
100
AcDbEntity
  8
Layer 1
 62
     1
420
 16711680
370
    35
100
AcDbCircle
 10
10.71011961204508
 20
-8.861917919137873
 30
0.0
 40
0.1181102362204661
  0
CIRCLE
  5
8E
330
89
100
AcDbEntity
  8
Layer 1
 62
     1
420
 16711680
370
    35
100
AcDbCircle
 10
9.529019612045077
 20
-8.861917919137873
 30
0.0
 40
0.1181102362204661
  0
CIRCLE
  5
8F
330
89
100
AcDbEntity
  8
Layer 1
 62
     1
420
 16711680
370
    35
100
AcDbCircle
 10
10.71011961204508
 20
-4.137508470318948
 30
0.0
 40
0.1181102362205277
  0
CIRCLE
  5
90
330
89
100
AcDbEntity
  8
Layer 1
 62
     1
420
 16711680
370
    35
100
AcDbCircle
 10
9.529019612045077
 20
-4.137508470318948
 30
0.0
 40
0.1181102362205277
  0
ENDBLK
  5
8C
330
89
100
AcDbEntity
  8
0
100
AcDbBlockEnd
  0
BLOCK
  5
93
330
91
100
AcDbEntity
  8
0
100
AcDbBlockBegin
  2
Block_4
 70
     0
 10
0.0
 20
0.0
 30
0.0
  3
Block_4
  1

  0
CIRCLE
  5
95
330
91
100
AcDbEntity
  8
Layer 1
 62
     1
420
 16711680
370
    35
100
AcDbCircle
 10
15.01425480702101
 20
-21.53686902918236
 30
0.0
 40
0.0825000000000608
  0
CIRCLE
  5
96
330
91
100
AcDbEntity
  8
Layer 1
 62
     1
420
 16711680
370
    35
100
AcDbCircle
 10
15.01425480702101
 20
-1.460852702482371
 30
0.0
 40
0.0825000000000134
  0
CIRCLE
  5
97
330
91
100
AcDbEntity
  8
Layer 1
 62
     1
420
 16711680
370
    35
100
AcDbCircle
 10
20.44976297032102
 20
-1.295714535382362
 30
0.0
 40
0.0825000000000103
  0
CIRCLE
  5
98
330
91
100
AcDbEntity
  8
Layer 1
 62
     1
420
 16711680
370
    35
100
AcDbCircle
 10
17.74084772342101
 20
-1.295714535382362
 30
0.0
 40
0.0824999999999976
  0
CIRCLE
  5
99
330
91
100
AcDbEntity
  8
Layer 1
 62
     1
420
 16711680
370
    35
100
AcDbCircle
 10
20.44976297032102
 20
-21.70200719638238
 30
0.0
 40
0.0824999999999755
  0
CIRCLE
  5
9A
330
91
100
AcDbEntity
  8
Layer 1
 62
     1
420
 16711680
370
    35
100
AcDbCircle
 10
17.74084772342101
 20
-21.70200719638238
 30
0.0
 40
0.0824999999999629
  0
CIRCLE
  5
9B
330
91
100
AcDbEntity
  8
Layer 1
 62
     1
420
 16711680
370
    35
100
AcDbCircle
 10
14.84911663982102
 20
-7.204433511382369
 30
0.0
 40
0.0825000000000039
  0
CIRCLE
  5
9C
330
91
100
AcDbEntity
  8
Layer 1
 62
     1
420
 16711680
370
    35
100
AcDbCircle
 10
14.84911663982102
 20
-10.06738508108236
 30
0.0
 40
0.0825000000000039
  0
CIRCLE
  5
9D
330
91
100
AcDbEntity
  8
Layer 1
 62
     1
420
 16711680
370
    35
100
AcDbCircle
 10
14.84911663982102
 20
-7.204433511382369
 30
0.0
 40
0.0825000000000039
  0
CIRCLE
  5
9E
330
91
100
AcDbEntity
  8
Layer 1
 62
     1
420
 16711680
370
    35
100
AcDbCircle
 10
14.72404044672102
 20
-4.341481941782376
 30
0.0
 40
0.0825000000000008
  0
CIRCLE
  5
9F
330
91
100
AcDbEntity
  8
Layer 1
 62
     1
420
 16711680
370
    35
100
AcDbCircle
 10
14.84911663982102
 20
-10.06738508108236
 30
0.0
 40
0.0825000000000039
  0
CIRCLE
  5
A0
330
91
100
AcDbEntity
  8
Layer 1
 62
     1
420
 16711680
370
    35
100
AcDbCircle
 10
14.72407684213519
 20
-4.341481941782376
 30
0.0
 40
0.0825000000000134
  0
CIRCLE
  5
A1
330
91
100
AcDbEntity
  8
Layer 1
 62
     1
420
 16711680
370
    35
100
AcDbCircle
 10
14.84911663982102
 20
-12.93033665068237
 30
0.0
 40
0.0825000000000008
  0
CIRCLE
  5
A2
330
91
100
AcDbEntity
  8
Layer 1
 62
     1
420
 16711680
370
    35
100
AcDbCircle
 10
14.72404044672102
 20
-18.65623978998235
 30
0.0
 40
0.0824999999999818
  0
CIRCLE
  5
A3
330
91
100
AcDbEntity
  8
Layer 1
 62
     1
420
 16711680
370
    35
100
AcDbCircle
 10
14.84911663982102
 20
-15.79328822038235
 30
0.0
 40
0.0824999999999945
  0
CIRCLE
  5
A4
330
91
100
AcDbEntity
  8
Layer 1
 62
     1
420
 16711680
370
    35
100
AcDbCircle
 10
25.88527113362103
 20
-21.53686902918236
 30
0.0
 40
0.0825000000000608
  0
CIRCLE
  5
A5
330
91
100
AcDbEntity
  8
Layer 1
 62
     1
420
 16711680
370
    35
100
AcDbCircle
 10
25.88527113362103
 20
-1.460852702482371
 30
0.0
 40
0.0825000000000134
  0
CIRCLE
  5
A6
330
91
100
AcDbEntity
  8
Layer 1
 62
     1
420
 16711680
370
    35
100
AcDbCircle
 10
23.15867821722102
 20
-1.295714535382362
 30
0.0
 40
0.0824999999999976
  0
CIRCLE
  5
A7
330
91
100
AcDbEntity
  8
Layer 1
 62
     1
420
 16711680
370
    35
100
AcDbCircle
 10
23.15867821722102
 20
-21.70200719638238
 30
0.0
 40
0.0824999999999629
  0
CIRCLE
  5
A8
330
91
100
AcDbEntity
  8
Layer 1
 62
     1
420
 16711680
370
    35
100
AcDbCircle
 10
26.05040930082103
 20
-12.93033665068237
 30
0.0
 40
0.0824999999999818
  0
CIRCLE
  5
A9
330
91
100
AcDbEntity
  8
Layer 1
 62
     1
420
 16711680
370
    35
100
AcDbCircle
 10
26.17548549382103
 20
-18.65623978998235
 30
0.0
 40
0.0824999999999818
  0
CIRCLE
  5
AA
330
91
100
AcDbEntity
  8
Layer 1
 62
     1
420
 16711680
370
    35
100
AcDbCircle
 10
26.05040930082103
 20
-15.79328822038235
 30
0.0
 40
0.0824999999999755
  0
CIRCLE
  5
AB
330
91
100
AcDbEntity
  8
Layer 1
 62
     1
420
 16711680
370
    35
100
AcDbCircle
 10
26.05040930082103
 20
-10.06738508108236
 30
0.0
 40
0.082499999999985
  0
CIRCLE
  5
AC
330
91
100
AcDbEntity
  8
Layer 1
 62
     1
420
 16711680
370
    35
100
AcDbCircle
 10
26.05040930082103
 20
-7.204433511382369
 30
0.0
 40
0.082499999999985
  0
CIRCLE
  5
AD
330
91
100
AcDbEntity
  8
Layer 1
 62
     1
420
 16711680
370
    35
100
AcDbCircle
 10
26.17548549382103
 20
-4.341481941782376
 30
0.0
 40
0.0825000000000008
  0
SPLINE
  5
AE
330
91
100
AcDbEntity
  8
Layer 1
 62
     1
420
 16711680
370
    35
100
AcDbSpline
210
0.0
220
0.0
230
1.0
 70
     8
 71
     3
 72
     8
 73
     4
 74
     0
 42
0.0000000001
 43
0.0000000001
 40
0.0
 40
0.0
 40
0.0
 40
0.0
 40
1.0
 40
1.0
 40
1.0
 40
1.0
 10
14.51826918997518
 20
-2.036741875804889
 30
0.0
 10
14.51825901191057
 20
-2.037002201759011
 30
0.0
 10
14.51825392142103
 20
-2.037262701736381
 30
0.0
 10
14.51825392142103
 20
-2.037523226582379
 30
0.0
  0
LINE
  5
AF
330
91
100
AcDbEntity
  8
Layer 1
 62
     1
420
 16711680
370
    35
100
AcDbLine
 10
15.570102154421
 20
-22.03686927958246
 30
0.0
 11
25.32950081202105
 21
-22.03686927958246
 31
0.0
  0
LINE
  5
B0
330
91
100
AcDbEntity
  8
Layer 1
 62
     1
420
 16711680
370
    35
100
AcDbLine
 10
26.38127201912104
 20
-20.98502128268246
 30
0.0
 11
26.38127201912104
 21
-2.037600448882383
 31
0.0
  0
LINE
  5
B1
330
91
100
AcDbEntity
  8
Layer 1
 62
     1
420
 16711680
370
    35
100
AcDbLine
 10
14.51825392142103
 20
-20.98509850508246
 30
0.0
 11
14.51825392142103
 21
-2.037523226582379
 31
0.0
  0
SPLINE
  5
B2
330
91
100
AcDbEntity
  8
Layer 1
 62
     1
420
 16711680
370
    35
100
AcDbSpline
210
0.0
220
0.0
230
1.0
 70
     8
 71
     3
 72
    35
 73
    31
 74
     0
 42
0.0000000001
 43
0.0000000001
 40
0.0
 40
0.0
 40
0.0
 40
0.0
 40
1.0
 40
1.0
 40
1.0
 40
2.0
 40
2.0
 40
2.0
 40
3.0
 40
3.0
 40
3.0
 40
4.0
 40
4.0
 40
4.0
 40
5.0
 40
5.0
 40
5.0
 40
6.0
 40
6.0
 40
6.0
 40
7.0
 40
7.0
 40
7.0
 40
8.0
 40
8.0
 40
8.0
 40
9.0
 40
9.0
 40
9.0
 40
10.0
 40
10.0
 40
10.0
 40
10.0
 10
14.51826918996018
 20
-20.9858798558198
 30
0.0
 10
14.52011793996269
 20
-21.0324281574612
 30
0.0
 10
14.52196741098864
 20
-21.07897641014008
 30
0.0
 10
14.52766254238575
 20
-21.1251166392398
 30
0.0
 10
14.53334406431767
 20
-21.1711466085751
 30
0.0
 10
14.54285288888937
 20
-21.21677050208162
 30
0.0
 10
14.55518477989682
 20
-21.26158889469578
 30
0.0
 10
14.57081657298127
 20
-21.31840028228385
 30
0.0
 10
14.59098443179183
 20
-21.37391740171592
 30
0.0
 10
14.6156815528449
 20
-21.42736923809995
 30
0.0
 10
14.64037012030185
 20
-21.48080256198551
 30
0.0
 10
14.66958481321685
 20
-21.53217203315481
 30
0.0
 10
14.70291487565392
 20
-21.58070469001884
 30
0.0
 10
14.73630566310075
 20
-21.62932576994133
 30
0.0
 10
14.77382682955298
 20
-21.675099689193
 30
0.0
 10
14.81488515360225
 20
-21.71744376856064
 30
0.0
 10
14.85594084545451
 20
-21.75978513330301
 30
0.0
 10
14.90053324139281
 20
-21.79869709791274
 30
0.0
 10
14.94810456070989
 20
-21.83356225796051
 30
0.0
 10
14.99602210566974
 20
-21.86868116780162
 30
0.0
 10
15.04696209320798
 20
-21.89969415316621
 30
0.0
 10
15.10012641767868
 20
-21.92617177458106
 30
0.0
 10
15.15330439410353
 20
-21.95265619512813
 30
0.0
 10
15.20870784997294
 20
-21.97460292217329
 30
0.0
 10
15.26558126293198
 20
-21.99196035716078
 30
0.0
 10
15.31467538352044
 20
-22.00694359734356
 30
0.0
 10
15.36486483426697
 20
-22.01850715267301
 30
0.0
 10
15.41559530468252
 20
-22.0254182063819
 30
0.0
 10
15.46644783249226
 20
-22.03234588807009
 30
0.0
 10
15.51784398648713
 20
-22.03459865338899
 30
0.0
 10
15.56924019449933
 20
-22.0368506965387
 30
0.0
  0
SPLINE
  5
B3
330
91
100
AcDbEntity
  8
Layer 1
 62
     1
420
 16711680
370
    35
100
AcDbSpline
210
0.0
220
0.0
230
1.0
 70
     8
 71
     3
 72
    35
 73
    31
 74
     0
 42
0.0000000001
 43
0.0000000001
 40
0.0
 40
0.0
 40
0.0
 40
0.0
 40
1.0
 40
1.0
 40
1.0
 40
2.0
 40
2.0
 40
2.0
 40
3.0
 40
3.0
 40
3.0
 40
4.0
 40
4.0
 40
4.0
 40
5.0
 40
5.0
 40
5.0
 40
6.0
 40
6.0
 40
6.0
 40
7.0
 40
7.0
 40
7.0
 40
8.0
 40
8.0
 40
8.0
 40
9.0
 40
9.0
 40
9.0
 40
10.0
 40
10.0
 40
10.0
 40
10.0
 10
25.33028231258019
 20
-22.03685400513286
 30
0.0
 10
25.37683146391646
 20
-22.03500487096355
 30
0.0
 10
25.42338056628518
 20
-22.03315501577246
 30
0.0
 10
25.46952162242688
 20
-22.02745949793856
 30
0.0
 10
25.51555299749285
 20
-22.02177751881772
 30
0.0
 10
25.56117826394464
 20
-22.01226813823551
 30
0.0
 10
25.60599796330659
 20
-21.99993552199718
 30
0.0
 10
25.66280959833799
 20
-21.98430319731218
 30
0.0
 10
25.71832692304881
 20
-21.96413476000202
 30
0.0
 10
25.77177888320855
 20
-21.93943701695523
 30
0.0
 10
25.82521266245324
 20
-21.91474767449022
 30
0.0
 10
25.87658248191575
 20
-21.88553210692091
 30
0.0
 10
25.92511556185688
 20
-21.85220134103439
 30
0.0
 10
25.9737376882917
 20
-21.818809421233
 30
0.0
 10
26.01951265619017
 20
-21.78128718846885
 30
0.0
 10
26.06185758248102
 20
-21.74022755751829
 30
0.0
 10
26.1041998872059
 20
-21.6991704685612
 30
0.0
 10
26.1431125750163
 20
-21.65457641940356
 30
0.0
 10
26.17797769568491
 20
-21.60700308477968
 30
0.0
 10
26.21309385739283
 20
-21.55908720553968
 30
0.0
 10
26.24410395432021
 20
-21.50814898258176
 30
0.0
 10
26.27057971306673
 20
-21.4549869728244
 30
0.0
 10
26.29706242995008
 20
-21.40181099147369
 30
0.0
 10
26.31900842498605
 20
-21.34641005429593
 30
0.0
 10
26.33636483426173
 20
-21.28953907831454
 30
0.0
 10
26.35134757918564
 20
-21.24044578296995
 30
0.0
 10
26.36291024228851
 20
-21.19025703952815
 30
0.0
 10
26.36982093514047
 20
-21.13952738952591
 30
0.0
 10
26.37674833971409
 20
-21.08867506299703
 30
0.0
 10
26.37900124766075
 20
-21.03727921065954
 30
0.0
 10
26.38125343343755
 20
-20.98588330430425
 30
0.0
  0
LINE
  5
B4
330
91
100
AcDbEntity
  8
Layer 1
 62
     1
420
 16711680
370
    35
100
AcDbLine
 10
15.570102154421
 20
-0.9857524521823709
 30
0.0
 11
25.32950081202105
 21
-0.9857524521823709
 31
0.0
  0
SPLINE
  5
B5
330
91
100
AcDbEntity
  8
Layer 1
 62
     1
420
 16711680
370
    35
100
AcDbSpline
210
0.0
220
0.0
230
1.0
 70
     8
 71
     3
 72
    35
 73
    31
 74
     0
 42
0.0000000001
 43
0.0000000001
 40
0.0
 40
0.0
 40
0.0
 40
0.0
 40
1.0
 40
1.0
 40
1.0
 40
2.0
 40
2.0
 40
2.0
 40
3.0
 40
3.0
 40
3.0
 40
4.0
 40
4.0
 40
4.0
 40
5.0
 40
5.0
 40
5.0
 40
6.0
 40
6.0
 40
6.0
 40
7.0
 40
7.0
 40
7.0
 40
8.0
 40
8.0
 40
8.0
 40
9.0
 40
9.0
 40
9.0
 40
10.0
 40
10.0
 40
10.0
 40
10.0
 10
14.51826918996018
 20
-2.036741875768711
 30
0.0
 10
14.52011793996435
 20
-1.990193574155227
 30
0.0
 10
14.52196741099183
 20
-1.943645321504163
 30
0.0
 10
14.52766254238575
 20
-1.897505092431982
 30
0.0
 10
14.53334406431783
 20
-1.851475123096709
 30
0.0
 10
14.54285288888947
 20
-1.805851229590214
 30
0.0
 10
14.55518477989682
 20
-1.761032836976002
 30
0.0
 10
14.57081657298117
 20
-1.704221449387963
 30
0.0
 10
14.59098443179183
 20
-1.648704329955888
 30
0.0
 10
14.6156815528449
 20
-1.595252493571756
 30
0.0
 10
14.64037012030185
 20
-1.54181916968629
 30
0.0
 10
14.66958481321685
 20
-1.490449698516992
 30
0.0
 10
14.70291487565392
 20
-1.441917041652939
 30
0.0
 10
14.7363056631006
 20
-1.393295961730498
 30
0.0
 10
14.77382682955298
 20
-1.347522042478784
 30
0.0
 10
14.81488515360225
 20
-1.305177963111115
 30
0.0
 10
14.85594084545435
 20
-1.262836598368696
 30
0.0
 10
14.90053324139281
 20
-1.223924633759073
 30
0.0
 10
14.94810456070974
 20
-1.189059473711343
 30
0.0
 10
14.99602210566974
 20
-1.153940563870113
 30
0.0
 10
15.04696209320798
 20
-1.122927578505267
 30
0.0
 10
15.10012641767868
 20
-1.096449957090701
 30
0.0
 10
15.15330439410338
 20
-1.06996553654388
 30
0.0
 10
15.20870784997284
 20
-1.048018809499378
 30
0.0
 10
15.26558126293173
 20
-1.03066137451108
 30
0.0
 10
15.31467538352059
 20
-1.015678134327395
 30
0.0
 10
15.36486483426727
 20
-1.004114578995995
 30
0.0
 10
15.41559530468353
 20
-0.9972035252896805
 30
0.0
 10
15.46644783249282
 20
-0.9902758436043212
 30
0.0
 10
15.51784398648754
 20
-0.9880230782925991
 30
0.0
 10
15.56924019449948
 20
-0.9857710351499614
 30
0.0
  0
SPLINE
  5
B6
330
91
100
AcDbEntity
  8
Layer 1
 62
     1
420
 16711680
370
    35
100
AcDbSpline
210
0.0
220
0.0
230
1.0
 70
     8
 71
     3
 72
    35
 73
    31
 74
     0
 42
0.0000000001
 43
0.0000000001
 40
0.0
 40
0.0
 40
0.0
 40
0.0
 40
1.0
 40
1.0
 40
1.0
 40
2.0
 40
2.0
 40
2.0
 40
3.0
 40
3.0
 40
3.0
 40
4.0
 40
4.0
 40
4.0
 40
5.0
 40
5.0
 40
5.0
 40
6.0
 40
6.0
 40
6.0
 40
7.0
 40
7.0
 40
7.0
 40
8.0
 40
8.0
 40
8.0
 40
9.0
 40
9.0
 40
9.0
 40
10.0
 40
10.0
 40
10.0
 40
10.0
 10
25.33028231258019
 20
-0.9857677265557766
 30
0.0
 10
25.37683146391616
 20
-0.9876168607179351
 30
0.0
 10
25.42338056628463
 20
-0.9894667159020274
 30
0.0
 10
25.46952162242577
 20
-0.9951622337331274
 30
0.0
 10
25.5155529974923
 20
-1.000844212851284
 30
0.0
 10
25.56117826394448
 20
-1.010353593435461
 30
0.0
 10
25.60599796330684
 20
-1.022686209674626
 30
0.0
 10
25.66280959833799
 20
-1.038318534360592
 30
0.0
 10
25.71832692304881
 20
-1.058486971669986
 30
0.0
 10
25.7717788832084
 20
-1.08318471471648
 30
0.0
 10
25.82521266245324
 20
-1.107874057181233
 30
0.0
 10
25.87658248191575
 20
-1.137089624750792
 30
0.0
 10
25.92511556185688
 20
-1.170420390637445
 30
0.0
 10
25.9737376882917
 20
-1.203812310438908
 30
0.0
 10
26.01951265619017
 20
-1.241334543202937
 30
0.0
 10
26.06185758248102
 20
-1.282394174153498
 30
0.0
 10
26.1041998872059
 20
-1.323451263110478
 30
0.0
 10
26.1431125750163
 20
-1.368045312268274
 30
0.0
 10
26.17797769568475
 20
-1.415618646892173
 30
0.0
 10
26.21309385739283
 20
-1.463534526132131
 30
0.0
 10
26.24410395432005
 20
-1.514472749090019
 30
0.0
 10
26.27057971306673
 20
-1.567634758847386
 30
0.0
 10
26.29706242995008
 20
-1.620810740198117
 30
0.0
 10
26.31900842498605
 20
-1.676211677375931
 30
0.0
 10
26.33636483426173
 20
-1.733082653357364
 30
0.0
 10
26.35134757918548
 20
-1.782175948701819
 30
0.0
 10
26.36291024228841
 20
-1.832364692143528
 30
0.0
 10
26.36982093514047
 20
-1.883094342145745
 30
0.0
 10
26.3767483397106
 20
-1.933946668647371
 30
0.0
 10
26.37900124765894
 20
-1.985342520957083
 30
0.0
 10
26.38125343343755
 20
-2.03673842728449
 30
0.0
  0
LINE
  5
B7
330
91
100
AcDbEntity
  8
Layer 1
 62
     1
420
 16711680
370
    35
100
AcDbLine
 10
26.24298549382102
 20
-18.65623978998231
 30
0.0
 11
26.25798549382105
 21
-18.65623978998231
 31
0.0
  0
SPLINE
  5
B8
330
91
100
AcDbEntity
  8
Layer 1
 62
     1
420
 16711680
370
    35
100
AcDbSpline
210
0.0
220
0.0
230
1.0
 70
     8
 71
     3
 72
     8
 73
     4
 74
     0
 42
0.0000000001
 43
0.0000000001
 40
0.0
 40
0.0
 40
0.0
 40
0.0
 40
1.0
 40
1.0
 40
1.0
 40
1.0
 10
25.3302823125956
 20
-0.9857677265937732
 30
0.0
 10
25.33002193678062
 20
-0.9857575446251555
 30
0.0
 10
25.32976138684226
 20
-0.9857524521823709
 30
0.0
 10
25.32950081202105
 20
-0.9857524521823709
 30
0.0
  0
SPLINE
  5
B9
330
91
100
AcDbEntity
  8
Layer 1
 62
     1
420
 16711680
370
    35
100
AcDbSpline
210
0.0
220
0.0
230
1.0
 70
     8
 71
     3
 72
     8
 73
     4
 74
     0
 42
0.0000000001
 43
0.0000000001
 40
0.0
 40
0.0
 40
0.0
 40
0.0
 40
1.0
 40
1.0
 40
1.0
 40
1.0
 10
25.32950081202105
 20
-22.03686927958231
 30
0.0
 10
25.32976138684338
 20
-22.03686927958231
 30
0.0
 10
25.33002193678269
 20
-22.03686418713952
 30
0.0
 10
25.33028231259868
 20
-22.03685400517093
 30
0.0
  0
SPLINE
  5
BA
330
91
100
AcDbEntity
  8
Layer 1
 62
     1
420
 16711680
370
    35
100
AcDbSpline
210
0.0
220
0.0
230
1.0
 70
     8
 71
     3
 72
     8
 73
     4
 74
     0
 42
0.0000000001
 43
0.0000000001
 40
0.0
 40
0.0
 40
0.0
 40
0.0
 40
1.0
 40
1.0
 40
1.0
 40
1.0
 10
26.38125343345241
 20
-20.98588330432717
 30
0.0
 10
26.38126582245852
 20
-20.9855961307212
 30
0.0
 10
26.38127201912104
 20
-20.98530872340216
 30
0.0
 10
26.38127201912104
 20
-20.98502128268246
 30
0.0
  0
SPLINE
  5
BB
330
91
100
AcDbEntity
  8
Layer 1
 62
     1
420
 16711680
370
    35
100
AcDbSpline
210
0.0
220
0.0
230
1.0
 70
     8
 71
     3
 72
     8
 73
     4
 74
     0
 42
0.0000000001
 43
0.0000000001
 40
0.0
 40
0.0
 40
0.0
 40
0.0
 40
1.0
 40
1.0
 40
1.0
 40
1.0
 10
26.38127201912104
 20
-2.037600448882383
 30
0.0
 10
26.38127201912104
 20
-2.037313008162148
 30
0.0
 10
26.38126582245852
 20
-2.037025600842778
 30
0.0
 10
26.38125343345241
 20
-2.036738427236438
 30
0.0
  0
LWPOLYLINE
  5
BC
330
91
100
AcDbEntity
  8
Layer 1
 62
     1
420
 16711680
370
    35
100
AcDbPolyline
 90
        3
 70
     0
 43
0.0
 10
16.95200227716101
 20
-20.0113108658823
 10
15.949762970271
 20
-20.0113108658823
 10
15.949762970271
 20
-11.51131086588238
  0
LWPOLYLINE
  5
BD
330
91
100
AcDbEntity
  8
Layer 1
 62
     1
420
 16711680
370
    35
100
AcDbPolyline
 90
        3
 70
     0
 43
0.0
 10
24.94976297027102
 20
-11.51131086588238
 10
24.94976297027102
 20
-20.0113108658823
 10
16.95200227716101
 20
-20.0113108658823
  0
LWPOLYLINE
  5
BE
330
91
100
AcDbEntity
  8
Layer 1
 62
     1
420
 16711680
370
    35
100
AcDbPolyline
 90
        3
 70
     0
 43
0.0
 10
15.949762970271
 20
-3.009989066937906
 10
24.94976297027102
 20
-3.009989066937906
 10
24.94976297027102
 20
-11.5099890669379
  0
LINE
  5
BF
330
91
100
AcDbEntity
  8
Layer 1
 62
     1
420
 16711680
370
    35
100
AcDbLine
 10
15.949762970271
 20
-11.5099890669379
 30
0.0
 11
15.949762970271
 21
-3.009989066937906
 31
0.0
  0
ENDBLK
  5
94
330
91
100
AcDbEntity
  8
0
100
AcDbBlockEnd
  0
BLOCK
  5
C3
330
C1
100
AcDbEntity
  8
0
100
AcDbBlockBegin
  2
Block_5
 70
     0
 10
0.0
 20
0.0
 30
0.0
  3
Block_5
  1

  0
CIRCLE
  5
C5
330
C1
100
AcDbEntity
  8
Layer 1
 62
     1
420
 16711680
370
    35
100
AcDbCircle
 10
18.48125594586728
 20
-1.809219905209526
 30
0.0
 40
0.0984251968504282
  0
CIRCLE
  5
C6
330
C1
100
AcDbEntity
  8
Layer 1
 62
     1
420
 16711680
370
    35
100
AcDbCircle
 10
22.418263819883
 20
-1.809219905209526
 30
0.0
 40
0.0984251968504282
  0
CIRCLE
  5
C7
330
C1
100
AcDbEntity
  8
Layer 1
 62
     1
420
 16711680
370
    35
100
AcDbCircle
 10
18.48125594586728
 20
-2.360401007571731
 30
0.0
 40
0.0984251968504282
  0
CIRCLE
  5
C8
330
C1
100
AcDbEntity
  8
Layer 1
 62
     1
420
 16711680
370
    35
100
AcDbCircle
 10
22.418263819883
 20
-2.360401007571731
 30
0.0
 40
0.0984251968504282
  0
ENDBLK
  5
C4
330
C1
100
AcDbEntity
  8
0
100
AcDbBlockEnd
  0
BLOCK
  5
CB
330
C9
100
AcDbEntity
  8
0
100
AcDbBlockBegin
  2
Block_6
 70
     0
 10
0.0
 20
0.0
 30
0.0
  3
Block_6
  1

  0
CIRCLE
  5
CD
330
C9
100
AcDbEntity
  8
Layer 1
 62
     1
420
 16711680
370
    35
100
AcDbCircle
 10
18.48125594586728
 20
-20.66088210993394
 30
0.0
 40
0.0984251968504282
  0
CIRCLE
  5
CE
330
C9
100
AcDbEntity
  8
Layer 1
 62
     1
420
 16711680
370
    35
100
AcDbCircle
 10
22.418263819883
 20
-20.66088210993394
 30
0.0
 40
0.0984251968504282
  0
CIRCLE
  5
CF
330
C9
100
AcDbEntity
  8
Layer 1
 62
     1
420
 16711680
370
    35
100
AcDbCircle
 10
18.48125594586728
 20
-21.21206321229614
 30
0.0
 40
0.0984251968504282
  0
CIRCLE
  5
D0
330
C9
100
AcDbEntity
  8
Layer 1
 62
     1
420
 16711680
370
    35
100
AcDbCircle
 10
22.418263819883
 20
-21.21206321229614
 30
0.0
 40
0.0984251968504282
  0
ENDBLK
  5
CC
330
C9
100
AcDbEntity
  8
0
100
AcDbBlockEnd
  0
ENDSEC
  0
SECTION
  2
ENTITIES
  0
INSERT
  5
7A
330
70
100
AcDbEntity
  8
Layer 1
100
AcDbBlockReference
  2
Block_0
 10
0.0
 20
0.0
 30
0.0
  0
INSERT
  5
8A
330
70
100
AcDbEntity
  8
Layer 1
100
AcDbBlockReference
  2
Block_3
 10
0.0
 20
0.0
 30
0.0
  0
INSERT
  5
92
330
70
100
AcDbEntity
  8
Layer 1
100
AcDbBlockReference
  2
Block_4
 10
0.0
 20
0.0
 30
0.0
  0
CIRCLE
  5
C0
330
70
100
AcDbEntity
  8
Layer 1
 62
     1
420
 16711680
370
    35
100
AcDbCircle
 10
32.4520284350461
 20
-22.49407411549386
 30
0.0
 40
0.0984251968504282
  0
INSERT
  5
C2
330
70
100
AcDbEntity
  8
Layer 1
100
AcDbBlockReference
  2
Block_5
 10
0.0
 20
0.0
 30
0.0
  0
INSERT
  5
CA
330
70
100
AcDbEntity
  8
Layer 1
100
AcDbBlockReference
  2
Block_6
 10
0.0
 20
0.0
 30
0.0
  0
SPLINE
  5
D1
330
70
100
AcDbEntity
  8
Layer 1
 62
     1
420
 16711680
370
    35
100
AcDbSpline
210
0.0
220
0.0
230
1.0
 70
     9
 71
     3
 72
    29
 73
    25
 74
     0
 42
0.0000000001
 43
0.0000000001
 40
0.0
 40
0.0
 40
0.0
 40
0.0
 40
1.0
 40
1.0
 40
1.0
 40
2.0
 40
2.0
 40
2.0
 40
3.0
 40
3.0
 40
3.0
 40
4.0
 40
4.0
 40
4.0
 40
5.0
 40
5.0
 40
5.0
 40
6.0
 40
6.0
 40
6.0
 40
7.0
 40
7.0
 40
7.0
 40
8.0
 40
8.0
 40
8.0
 40
8.0
 10
5.990925654436194
 20
-8.234260629921259
 30
0.0
 10
5.990925654436194
 20
-8.234260629921259
 30
0.0
 10
5.218983006981134
 20
-8.234260629921259
 30
0.0
 10
5.218983006981134
 20
-8.234260629921259
 30
0.0
 10
5.105996671630464
 20
-8.234260629921259
 30
0.0
 10
5.014403149606297
 20
-8.142667107897105
 30
0.0
 10
5.014403149606297
 20
-8.029680772546422
 30
0.0
 10
5.014403149606297
 20
-8.029680772546422
 30
0.0
 10
5.014403149606297
 20
-5.682934975485068
 30
0.0
 10
5.014403149606297
 20
-5.682934975485068
 30
0.0
 10
5.014403149606297
 20
-5.569948640134384
 30
0.0
 10
5.105996671630464
 20
-5.47835511811023
 30
0.0
 10
5.218983006981134
 20
-5.47835511811023
 30
0.0
 10
5.218983006981134
 20
-5.47835511811023
 30
0.0
 10
5.990925654436194
 20
-5.47835511811023
 30
0.0
 10
5.990925654436194
 20
-5.47835511811023
 30
0.0
 10
6.103911989786865
 20
-5.47835511811023
 30
0.0
 10
6.195505511811031
 20
-5.569948640134384
 30
0.0
 10
6.195505511811031
 20
-5.682934975485068
 30
0.0
 10
6.195505511811031
 20
-5.682934975485068
 30
0.0
 10
6.195505511811031
 20
-8.029680772546422
 30
0.0
 10
6.195505511811031
 20
-8.029680772546422
 30
0.0
 10
6.195505511811031
 20
-8.142667107897105
 30
0.0
 10
6.103911989786865
 20
-8.234260629921259
 30
0.0
 10
5.990925654436194
 20
-8.234260629921259
 30
0.0
  0
SPLINE
  5
D2
330
70
100
AcDbEntity
  8
Layer 1
 62
     1
420
 16711680
370
    35
100
AcDbSpline
210
0.0
220
0.0
230
1.0
 70
     8
 71
     3
 72
   494
 73
   490
 74
     0
 42
0.0000000001
 43
0.0000000001
 40
0.0
 40
0.0
 40
0.0
 40
0.0
 40
1.0
 40
1.0
 40
1.0
 40
2.0
 40
2.0
 40
2.0
 40
3.0
 40
3.0
 40
3.0
 40
4.0
 40
4.0
 40
4.0
 40
5.0
 40
5.0
 40
5.0
 40
6.0
 40
6.0
 40
6.0
 40
7.0
 40
7.0
 40
7.0
 40
8.0
 40
8.0
 40
8.0
 40
9.0
 40
9.0
 40
9.0
 40
10.0
 40
10.0
 40
10.0
 40
11.0
 40
11.0
 40
11.0
 40
12.0
 40
12.0
 40
12.0
 40
13.0
 40
13.0
 40
13.0
 40
14.0
 40
14.0
 40
14.0
 40
15.0
 40
15.0
 40
15.0
 40
16.0
 40
16.0
 40
16.0
 40
17.0
 40
17.0
 40
17.0
 40
18.0
 40
18.0
 40
18.0
 40
19.0
 40
19.0
 40
19.0
 40
20.0
 40
20.0
 40
20.0
 40
21.0
 40
21.0
 40
21.0
 40
22.0
 40
22.0
 40
22.0
 40
23.0
 40
23.0
 40
23.0
 40
24.0
 40
24.0
 40
24.0
 40
25.0
 40
25.0
 40
25.0
 40
26.0
 40
26.0
 40
26.0
 40
27.0
 40
27.0
 40
27.0
 40
28.0
 40
28.0
 40
28.0
 40
29.0
 40
29.0
 40
29.0
 40
30.0
 40
30.0
 40
30.0
 40
31.0
 40
31.0
 40
31.0
 40
32.0
 40
32.0
 40
32.0
 40
33.0
 40
33.0
 40
33.0
 40
34.0
 40
34.0
 40
34.0
 40
35.0
 40
35.0
 40
35.0
 40
36.0
 40
36.0
 40
36.0
 40
37.0
 40
37.0
 40
37.0
 40
38.0
 40
38.0
 40
38.0
 40
39.0
 40
39.0
 40
39.0
 40
40.0
 40
40.0
 40
40.0
 40
41.0
 40
41.0
 40
41.0
 40
42.0
 40
42.0
 40
42.0
 40
43.0
 40
43.0
 40
43.0
 40
44.0
 40
44.0
 40
44.0
 40
45.0
 40
45.0
 40
45.0
 40
46.0
 40
46.0
 40
46.0
 40
47.0
 40
47.0
 40
47.0
 40
48.0
 40
48.0
 40
48.0
 40
49.0
 40
49.0
 40
49.0
 40
50.0
 40
50.0
 40
50.0
 40
51.0
 40
51.0
 40
51.0
 40
52.0
 40
52.0
 40
52.0
 40
53.0
 40
53.0
 40
53.0
 40
54.0
 40
54.0
 40
54.0
 40
55.0
 40
55.0
 40
55.0
 40
56.0
 40
56.0
 40
56.0
 40
57.0
 40
57.0
 40
57.0
 40
58.0
 40
58.0
 40
58.0
 40
59.0
 40
59.0
 40
59.0
 40
60.0
 40
60.0
 40
60.0
 40
61.0
 40
61.0
 40
61.0
 40
62.0
 40
62.0
 40
62.0
 40
63.0
 40
63.0
 40
63.0
 40
64.0
 40
64.0
 40
64.0
 40
65.0
 40
65.0
 40
65.0
 40
66.0
 40
66.0
 40
66.0
 40
67.0
 40
67.0
 40
67.0
 40
68.0
 40
68.0
 40
68.0
 40
69.0
 40
69.0
 40
69.0
 40
70.0
 40
70.0
 40
70.0
 40
71.0
 40
71.0
 40
71.0
 40
72.0
 40
72.0
 40
72.0
 40
73.0
 40
73.0
 40
73.0
 40
74.0
 40
74.0
 40
74.0
 40
75.0
 40
75.0
 40
75.0
 40
76.0
 40
76.0
 40
76.0
 40
77.0
 40
77.0
 40
77.0
 40
78.0
 40
78.0
 40
78.0
 40
79.0
 40
79.0
 40
79.0
 40
80.0
 40
80.0
 40
80.0
 40
81.0
 40
81.0
 40
81.0
 40
82.0
 40
82.0
 40
82.0
 40
83.0
 40
83.0
 40
83.0
 40
84.0
 40
84.0
 40
84.0
 40
85.0
 40
85.0
 40
85.0
 40
86.0
 40
86.0
 40
86.0
 40
87.0
 40
87.0
 40
87.0
 40
88.0
 40
88.0
 40
88.0
 40
89.0
 40
89.0
 40
89.0
 40
90.0
 40
90.0
 40
90.0
 40
91.0
 40
91.0
 40
91.0
 40
92.0
 40
92.0
 40
92.0
 40
93.0
 40
93.0
 40
93.0
 40
94.0
 40
94.0
 40
94.0
 40
95.0
 40
95.0
 40
95.0
 40
96.0
 40
96.0
 40
96.0
 40
97.0
 40
97.0
 40
97.0
 40
98.0
 40
98.0
 40
98.0
 40
99.0
 40
99.0
 40
99.0
 40
100.0
 40
100.0
 40
100.0
 40
101.0
 40
101.0
 40
101.0
 40
102.0
 40
102.0
 40
102.0
 40
103.0
 40
103.0
 40
103.0
 40
104.0
 40
104.0
 40
104.0
 40
105.0
 40
105.0
 40
105.0
 40
106.0
 40
106.0
 40
106.0
 40
107.0
 40
107.0
 40
107.0
 40
108.0
 40
108.0
 40
108.0
 40
109.0
 40
109.0
 40
109.0
 40
110.0
 40
110.0
 40
110.0
 40
111.0
 40
111.0
 40
111.0
 40
112.0
 40
112.0
 40
112.0
 40
113.0
 40
113.0
 40
113.0
 40
114.0
 40
114.0
 40
114.0
 40
115.0
 40
115.0
 40
115.0
 40
116.0
 40
116.0
 40
116.0
 40
117.0
 40
117.0
 40
117.0
 40
118.0
 40
118.0
 40
118.0
 40
119.0
 40
119.0
 40
119.0
 40
120.0
 40
120.0
 40
120.0
 40
121.0
 40
121.0
 40
121.0
 40
122.0
 40
122.0
 40
122.0
 40
123.0
 40
123.0
 40
123.0
 40
124.0
 40
124.0
 40
124.0
 40
125.0
 40
125.0
 40
125.0
 40
126.0
 40
126.0
 40
126.0
 40
127.0
 40
127.0
 40
127.0
 40
128.0
 40
128.0
 40
128.0
 40
129.0
 40
129.0
 40
129.0
 40
130.0
 40
130.0
 40
130.0
 40
131.0
 40
131.0
 40
131.0
 40
132.0
 40
132.0
 40
132.0
 40
133.0
 40
133.0
 40
133.0
 40
134.0
 40
134.0
 40
134.0
 40
135.0
 40
135.0
 40
135.0
 40
136.0
 40
136.0
 40
136.0
 40
137.0
 40
137.0
 40
137.0
 40
138.0
 40
138.0
 40
138.0
 40
139.0
 40
139.0
 40
139.0
 40
140.0
 40
140.0
 40
140.0
 40
141.0
 40
141.0
 40
141.0
 40
142.0
 40
142.0
 40
142.0
 40
143.0
 40
143.0
 40
143.0
 40
144.0
 40
144.0
 40
144.0
 40
145.0
 40
145.0
 40
145.0
 40
146.0
 40
146.0
 40
146.0
 40
147.0
 40
147.0
 40
147.0
 40
148.0
 40
148.0
 40
148.0
 40
149.0
 40
149.0
 40
149.0
 40
150.0
 40
150.0
 40
150.0
 40
151.0
 40
151.0
 40
151.0
 40
152.0
 40
152.0
 40
152.0
 40
153.0
 40
153.0
 40
153.0
 40
154.0
 40
154.0
 40
154.0
 40
155.0
 40
155.0
 40
155.0
 40
156.0
 40
156.0
 40
156.0
 40
157.0
 40
157.0
 40
157.0
 40
158.0
 40
158.0
 40
158.0
 40
159.0
 40
159.0
 40
159.0
 40
160.0
 40
160.0
 40
160.0
 40
161.0
 40
161.0
 40
161.0
 40
162.0
 40
162.0
 40
162.0
 40
163.0
 40
163.0
 40
163.0
 40
163.0
 10
13.82378422427758
 20
-5.318610484356402
 30
0.0
 10
13.8238057050678
 20
-5.401050888762281
 30
0.0
 10
13.82382655359869
 20
-5.480537942084386
 30
0.0
 10
13.82384575737847
 20
-5.55416022406684
 30
0.0
 10
13.82355075412326
 20
-5.556004842122395
 30
0.0
 10
13.8213636610243
 20
-5.566530015733506
 30
0.0
 10
13.82113647460937
 20
-5.5681644015842
 30
0.0
 10
13.81456502278646
 20
-5.576634724934895
 30
0.0
 10
13.80769856770833
 20
-5.58983188205295
 30
0.0
 10
13.79923841688368
 20
-5.596654256184895
 30
0.0
 10
13.79615953233507
 20
-5.595596313476562
 30
0.0
 10
13.77704874674479
 20
-5.604582044813367
 30
0.0
 10
13.77384101019965
 20
-5.604154798719617
 30
0.0
 10
13.76642862955729
 20
-5.604134453667534
 30
0.0
 10
13.75618828667535
 20
-5.6041751437717
 30
0.0
 10
13.74878268771701
 20
-5.604141235351562
 30
0.0
 10
13.71656290690104
 20
-5.60753207736545
 30
0.0
 10
13.70539347330729
 20
-5.624906751844617
 30
0.0
 10
13.69876776801215
 20
-5.654129028320312
 30
0.0
 10
13.69877454969618
 20
-5.673188951280381
 30
0.0
 10
13.69878217909071
 20
-5.69281005859375
 30
0.0
 10
13.69878896077474
 20
-5.712366739908853
 30
0.0
 10
13.69842105441623
 20
-5.712365044487847
 30
0.0
 10
13.69806755913628
 20
-5.712311638726128
 30
0.0
 10
13.69769965277777
 20
-5.712311638726128
 30
0.0
 10
13.53462388780382
 20
-5.712311638726128
 30
0.0
 10
13.40242428249783
 20
-5.844510396321614
 30
0.0
 10
13.40242428249783
 20
-6.007587009006075
 30
0.0
 10
13.40242428249783
 20
-6.170663621690537
 30
0.0
 10
13.53462388780382
 20
-6.302862379286024
 30
0.0
 10
13.69769965277777
 20
-6.302862379286024
 30
0.0
 10
13.69813961452908
 20
-6.302862379286024
 30
0.0
 10
13.69856346978081
 20
-6.302797953287759
 30
0.0
 10
13.69900258382161
 20
-6.302796257866752
 30
0.0
 10
13.6990492078993
 20
-6.435005187988281
 30
0.0
 10
13.699097527398
 20
-6.567825317382812
 30
0.0
 10
13.69914415147569
 20
-6.696636623806423
 30
0.0
 10
13.69865671793619
 20
-6.696634080674912
 30
0.0
 10
13.69818708631727
 20
-6.696563720703125
 30
0.0
 10
13.69769965277777
 20
-6.696563720703125
 30
0.0
 10
13.53462388780382
 20
-6.696563720703125
 30
0.0
 10
13.40242428249783
 20
-6.82876247829861
 30
0.0
 10
13.40242428249783
 20
-6.991839090983072
 30
0.0
 10
13.40242428249783
 20
-7.154914855957031
 30
0.0
 10
13.53462388780382
 20
-7.28711446126302
 30
0.0
 10
13.69769965277777
 20
-7.28711446126302
 30
0.0
 10
13.69799465603298
 20
-7.28711446126302
 30
0.0
 10
13.69827779134114
 20
-7.287071228027343
 30
0.0
 10
13.69857279459635
 20
-7.28707038031684
 30
0.0
 10
13.69861857096354
 20
-7.418230692545572
 30
0.0
 10
13.69865502251519
 20
-7.549492730034721
 30
0.0
 10
13.6986821492513
 20
-7.680864122178818
 30
0.0
 10
13.69835069444444
 20
-7.680863274468315
 30
0.0
 10
13.69803110758463
 20
-7.680814954969617
 30
0.0
 10
13.69769965277777
 20
-7.680814954969617
 30
0.0
 10
13.53462388780382
 20
-7.680814954969617
 30
0.0
 10
13.40242428249783
 20
-7.813014560275607
 30
0.0
 10
13.40242428249783
 20
-7.976091172960068
 30
0.0
 10
13.40242428249783
 20
-8.139166937934026
 30
0.0
 10
13.53462388780382
 20
-8.271366543240016
 30
0.0
 10
13.69769965277777
 20
-8.271366543240016
 30
0.0
 10
13.69805569118923
 20
-8.271366543240016
 30
0.0
 10
13.69839816623264
 20
-8.2713139851888
 30
0.0
 10
13.69875335693359
 20
-8.271313137478298
 30
0.0
 10
13.69882202148437
 20
-10.01463741726345
 30
0.0
 10
13.69776492648654
 20
-11.77186245388455
 30
0.0
 10
13.69818454318576
 20
-13.51473999023437
 30
0.0
 10
13.69795650906033
 20
-13.51473999023437
 30
0.0
 10
13.69773271348741
 20
-13.5147230360243
 30
0.0
 10
13.69750467936198
 20
-13.5147230360243
 30
0.0
 10
13.48006947835286
 20
-13.5147230360243
 30
0.0
 10
13.30380418565538
 20
-13.69098917643229
 30
0.0
 10
13.30380418565538
 20
-13.9084243774414
 30
0.0
 10
13.30380418565538
 20
-14.12585873074001
 30
0.0
 10
13.48006947835286
 20
-14.3021240234375
 30
0.0
 10
13.69750467936198
 20
-14.3021240234375
 30
0.0
 10
13.69783359103732
 20
-14.3021240234375
 30
0.0
 10
13.69815656873915
 20
-14.3021002875434
 30
0.0
 10
13.69848463270399
 20
-14.3021002875434
 30
0.0
 10
13.69852023654513
 20
-14.36777072482638
 30
0.0
 10
13.6985609266493
 20
-14.43338860405816
 30
0.0
 10
13.69860161675347
 20
-14.49900309244791
 30
0.0
 10
13.69823371039496
 20
-14.49900309244791
 30
0.0
 10
13.69787258572048
 20
-14.4989759657118
 30
0.0
 10
13.69750467936198
 20
-14.4989759657118
 30
0.0
 10
13.48006947835286
 20
-14.4989759657118
 30
0.0
 10
13.30380418565538
 20
-14.67524210611979
 30
0.0
 10
13.30380418565538
 20
-14.8926764594184
 30
0.0
 10
13.30380418565538
 20
-15.11011081271701
 30
0.0
 10
13.48006947835286
 20
-15.286376953125
 30
0.0
 10
13.69750467936198
 20
-15.286376953125
 30
0.0
 10
13.69795735677083
 20
-15.286376953125
 30
0.0
 10
13.69840240478515
 20
-15.28634474012586
 30
0.0
 10
13.69885508219401
 20
-15.28634304470486
 30
0.0
 10
13.69886271158854
 20
-15.35186937120225
 30
0.0
 10
13.69887034098307
 20
-15.41750420464409
 30
0.0
 10
13.69887457953559
 20
-15.48326280381944
 30
0.0
 10
13.69841512044271
 20
-15.48325941297743
 30
0.0
 10
13.69796413845486
 20
-15.4832271999783
 30
0.0
 10
13.69750467936198
 20
-15.4832271999783
 30
0.0
 10
13.48006947835286
 20
-15.4832271999783
 30
0.0
 10
13.30380418565538
 20
-15.65949334038628
 30
0.0
 10
13.30380418565538
 20
-15.87692769368489
 30
0.0
 10
13.30380418565538
 20
-16.09436374240451
 30
0.0
 10
13.48006947835286
 20
-16.2706298828125
 30
0.0
 10
13.69750467936198
 20
-16.2706298828125
 30
0.0
 10
13.69795905219184
 20
-16.2706298828125
 30
0.0
 10
13.69840494791666
 20
-16.27059597439236
 30
0.0
 10
13.69885932074653
 20
-16.27059597439236
 30
0.0
 10
13.6988542344835
 20
-16.33628675672743
 30
0.0
 10
13.69884914822048
 20
-16.40192328559028
 30
0.0
 10
13.69884236653646
 20
-16.46751234266493
 30
0.0
 10
13.69839392768012
 20
-16.46751234266493
 30
0.0
 10
13.69795311821831
 20
-16.46747843424479
 30
0.0
 10
13.69750467936198
 20
-16.46747843424479
 30
0.0
 10
13.48006947835286
 20
-16.46747843424479
 30
0.0
 10
13.30380418565538
 20
-16.64374457465278
 30
0.0
 10
13.30380418565538
 20
-16.86117892795139
 30
0.0
 10
13.30380418565538
 20
-17.078614976671
 30
0.0
 10
13.48006947835286
 20
-17.25488111707899
 30
0.0
 10
13.69750467936198
 20
-17.25488111707899
 30
0.0
 10
13.69793192545573
 20
-17.25488111707899
 30
0.0
 10
13.69835069444444
 20
-17.25485059950086
 30
0.0
 10
13.69877709282769
 20
-17.25484890407986
 30
0.0
 10
13.69877370198567
 20
-17.32477823893229
 30
0.0
 10
13.69877200656467
 20
-17.39455159505208
 30
0.0
 10
13.69877115885416
 20
-17.46397060818142
 30
0.0
 10
13.6971435546875
 20
-17.48003641764323
 30
0.0
 10
13.70033433702257
 20
-17.50754292805989
 30
0.0
 10
13.70703803168402
 20
-17.52234734429253
 30
0.0
 10
13.70703803168402
 20
-17.52234734429253
 30
0.0
 10
13.7085706922743
 20
-17.52390034993489
 30
0.0
 10
13.7085706922743
 20
-17.52390034993489
 30
0.0
 10
13.7085706922743
 20
-17.52390034993489
 30
0.0
 10
13.71384684244791
 20
-17.52864752875434
 30
0.0
 10
13.71384684244791
 20
-17.52864752875434
 30
0.0
 10
13.71384684244791
 20
-17.52864752875434
 30
0.0
 10
13.72463989257812
 20
-17.53834533691406
 30
0.0
 10
13.72463989257812
 20
-17.53835211859809
 30
0.0
 10
13.73075018988715
 20
-17.53908454047309
 30
0.0
 10
13.74221801757812
 20
-17.54657151963975
 30
0.0
 10
13.74879286024305
 20
-17.54529656304253
 30
0.0
 10
13.75987413194444
 20
-17.54495069715711
 30
0.0
 10
13.77554660373264
 20
-17.54508633083767
 30
0.0
 10
13.78628879123264
 20
-17.54771084255642
 30
0.0
 10
13.79604424370659
 20
-17.55312940809461
 30
0.0
 10
13.80865478515625
 20
-17.56098259819878
 30
0.0
 10
13.81620279947916
 20
-17.56956142849392
 30
0.0
 10
13.81858656141493
 20
-17.58050028483072
 30
0.0
 10
13.82609388563368
 20
-17.59868876139323
 30
0.0
 10
13.82384236653646
 20
-17.61017693413628
 30
0.0
 10
13.82383897569444
 20
-17.81685553656684
 30
0.0
 10
13.8238288031684
 20
-18.10066901312934
 30
0.0
 10
13.82383558485243
 20
-18.30659484863281
 30
0.0
 10
13.82509358723958
 20
-19.00070699055989
 30
0.0
 10
13.82219780815972
 20
-19.74785868326822
 30
0.0
 10
13.82361857096354
 20
-20.4424319797092
 30
0.0
 10
13.81790161132812
 20
-20.44650099012587
 30
0.0
 10
13.81708780924479
 20
-20.45552741156684
 30
0.0
 10
13.81528727213541
 20
-20.46173943413629
 30
0.0
 10
13.80713568793402
 20
-20.468995836046
 30
0.0
 10
13.80054050021701
 20
-20.48280334472656
 30
0.0
 10
13.79478624131944
 20
-20.49189080132379
 30
0.0
 10
13.49389987521701
 20
-20.48823547363281
 30
0.0
 10
13.13333808051215
 20
-20.48614671495226
 30
0.0
 10
12.83186509874132
 20
-20.48792351616754
 30
0.0
 10
12.75408257378472
 20
-20.48370530870226
 30
0.0
 10
12.6093037923177
 20
-20.48387485080295
 30
0.0
 10
12.53122287326388
 20
-20.492189195421
 30
0.0
 10
12.51233249240451
 20
-20.48630947536892
 30
0.0
 10
12.41060723198784
 20
-20.54303826226128
 30
0.0
 10
12.39302910698784
 20
-20.55037604437934
 30
0.0
 10
12.39302910698784
 20
-20.55037604437934
 30
0.0
 10
12.29904174804687
 20
-20.58995395236545
 30
0.0
 10
12.29904513888889
 20
-20.58996073404948
 30
0.0
 10
12.259521484375
 20
-20.62012566460504
 30
0.0
 10
12.20575290256076
 20
-20.69676547580295
 30
0.0
 10
12.17640177408854
 20
-20.73656717936198
 30
0.0
 10
12.15390014648437
 20
-20.78625657823351
 30
0.0
 10
12.09630669487847
 20
-20.91120232476129
 30
0.0
 10
12.08584255642361
 20
-20.96363152398003
 30
0.0
 10
12.07582261827257
 20
-21.024415757921
 30
0.0
 10
12.05855305989583
 20
-21.15989345974393
 30
0.0
 10
12.04911295572916
 20
-21.222169664171
 30
0.0
 10
12.0464613172743
 20
-21.24901835123698
 30
0.0
 10
12.04664103190104
 20
-21.54311964246962
 30
0.0
 10
12.04352145724826
 20
-21.56009419759115
 30
0.0
 10
12.04429117838542
 20
-21.56924268934462
 30
0.0
 10
12.04230414496527
 20
-21.57862175835504
 30
0.0
 10
12.03637356228298
 20
-21.58596632215711
 30
0.0
 10
12.02560424804687
 20
-21.58751254611545
 30
0.0
 10
12.01359049479166
 20
-21.59132385253906
 30
0.0
 10
12.00319078233507
 20
-21.59467400444878
 30
0.0
 10
12.00281100802951
 20
-21.59550136990017
 30
0.0
 10
12.00172593858507
 20
-21.59806484646267
 30
0.0
 10
12.00094604492187
 20
-21.59858703613281
 30
0.0
 10
12.00093248155382
 20
-21.59872945149739
 30
0.0
 10
12.00084771050347
 20
-21.59976704915365
 30
0.0
 10
12.00084092881944
 20
-21.59988233778212
 30
0.0
 10
10.95900132921007
 20
-21.59920416937934
 30
0.0
 10
9.851881239149305
 20
-21.59934658474393
 30
0.0
 10
8.77647230360243
 20
-21.59960428873698
 30
0.0
 10
8.776201036241319
 20
-21.32369147406684
 30
0.0
 10
8.552459716796875
 20
-21.100099351671
 30
0.0
 10
8.276482476128471
 20
-21.100099351671
 30
0.0
 10
8.000420464409721
 20
-21.100099351671
 30
0.0
 10
7.776618109809027
 20
-21.3238271077474
 30
0.0
 10
7.7764892578125
 20
-21.59986199273003
 30
0.0
 10
7.74154324001736
 20
-21.59986877441406
 30
0.0
 10
7.706356472439235
 20
-21.59988233778212
 30
0.0
 10
7.67155287000868
 20
-21.59988911946614
 30
0.0
 10
6.891387939453125
 20
-21.59975348578559
 30
0.0
 10
5.777865939670138
 20
-21.60018751356337
 30
0.0
 10
5.007714165581597
 20
-21.59940761990017
 30
0.0
 10
5.005957709418402
 20
-21.59827507866753
 30
0.0
 10
4.552195231119791
 20
-21.60199822319878
 30
0.0
 10
4.552134195963541
 20
-21.59870232476128
 30
0.0
 10
4.545745849609375
 20
-21.59655253092448
 30
0.0
 10
4.525875515407985
 20
-21.59143914116754
 30
0.0
 10
4.520199245876735
 20
-21.58781094021267
 30
0.0
 10
4.518988715277777
 20
-21.58508470323351
 30
0.0
 10
4.509572347005208
 20
-21.5750003390842
 30
0.0
 10
4.509019639756943
 20
-21.57272847493489
 30
0.0
 10
4.506127251519097
 20
-21.46669684516059
 30
0.0
 10
4.507937961154513
 20
-21.22373623318142
 30
0.0
 10
4.494683159722222
 20
-21.11927117241753
 30
0.0
 10
4.485965304904513
 20
-21.04067823621962
 30
0.0
 10
4.458065456814235
 20
-20.92441982693142
 30
0.0
 10
4.43321058485243
 20
-20.84992302788629
 30
0.0
 10
4.409437391493055
 20
-20.79586622450086
 30
0.0
 10
4.309173583984375
 20
-20.6471438937717
 30
0.0
 10
4.266448974609375
 20
-20.6074710422092
 30
0.0
 10
4.207312689887152
 20
-20.58174811469184
 30
0.0
 10
4.051771375868055
 20
-20.51100158691406
 30
0.0
 10
3.99371337890625
 20
-20.48815409342448
 30
0.0
 10
3.960316975911458
 20
-20.48447842068142
 30
0.0
 10
3.836849636501735
 20
-20.48883904351129
 30
0.0
 10
3.801317003038194
 20
-20.48832363552517
 30
0.0
 10
3.567874484592013
 20
-20.49222310384115
 30
0.0
 10
3.304789225260416
 20
-20.47510613335504
 30
0.0
 10
3.072255452473958
 20
-20.49458991156684
 30
0.0
 10
2.982445610894096
 20
-20.48504808213976
 30
0.0
 10
2.846455891927083
 20
-20.48301357693143
 30
0.0
 10
2.757592095269096
 20
-20.4886220296224
 30
0.0
 10
2.753221299913194
 20
-20.48827616373698
 30
0.0
 10
2.732120090060763
 20
-20.42779710557725
 30
0.0
 10
2.7314453125
 20
-20.4261966281467
 30
0.0
 10
2.7314453125
 20
-20.4261966281467
 30
0.0
 10
2.729522705078125
 20
-20.42074415418837
 30
0.0
 10
2.729522705078125
 20
-20.42074415418837
 30
0.0
 10
2.729363335503471
 20
-20.42031012641059
 30
0.0
 10
2.728691948784721
 20
-20.41940138075087
 30
0.0
 10
2.728539360894096
 20
-20.41893344455295
 30
0.0
 10
2.728539360894096
 20
-20.41893344455295
 30
0.0
 10
2.728573269314236
 20
-20.40357293023003
 30
0.0
 10
2.728573269314236
 20
-20.40357293023003
 30
0.0
 10
2.72874281141493
 20
-20.34431457519531
 30
0.0
 10
2.728800455729166
 20
-20.27494472927517
 30
0.0
 10
2.72880384657118
 20
-20.21581522623698
 30
0.0
 10
2.728597005208333
 20
-19.26422288682725
 30
0.0
 10
2.728444417317708
 20
-18.24437289767795
 30
0.0
 10
2.728508843315971
 20
-17.29397413465711
 30
0.0
 10
2.732418484157986
 20
-17.27379184299045
 30
0.0
 10
2.747439914279513
 20
-17.24945237901475
 30
0.0
 10
2.769188774956596
 20
-17.24574279785156
 30
0.0
 10
2.797203911675346
 20
-17.24325391981336
 30
0.0
 10
2.825449625651041
 20
-17.247804429796
 30
0.0
 10
2.844641791449652
 20
-17.22193908691406
 30
0.0
 10
2.845001220703125
 20
-17.22166103786892
 30
0.0
 10
2.852969699435763
 20
-17.19497511121961
 30
0.0
 10
2.853586832682291
 20
-17.19400533040364
 30
0.0
 10
2.853607177734375
 20
-17.11657206217448
 30
0.0
 10
2.853549533420138
 20
-16.96003723144531
 30
0.0
 10
2.853580050998263
 20
-16.88229200575086
 30
0.0
 10
2.853634304470486
 20
-16.65299648708767
 30
0.0
 10
2.853854709201388
 20
-16.25590176052517
 30
0.0
 10
2.853834364149305
 20
-16.029786851671
 30
0.0
 10
2.853674994574652
 20
-16.02967834472656
 30
0.0
 10
2.853247748480902
 20
-16.02937995062934
 30
0.0
 10
2.853081597222221
 20
-16.02926466200086
 30
0.0
 10
2.853416442871093
 20
-15.42311943901909
 30
0.0
 10
2.853636847601996
 20
-14.81404622395833
 30
0.0
 10
2.853779262966579
 20
-14.20339711507161
 30
0.0
 10
3.066535101996527
 20
-14.19802602132161
 30
0.0
 10
3.237386915418836
 20
-14.02400207519531
 30
0.0
 10
3.237386915418836
 20
-13.80995178222656
 30
0.0
 10
3.237386915418836
 20
-13.595948961046
 30
0.0
 10
3.066610548231336
 20
-13.42195298936632
 30
0.0
 10
2.853919982910156
 20
-13.41650984022352
 30
0.0
 10
2.854185316297742
 20
-11.31632486979166
 30
0.0
 10
2.853624131944444
 20
-9.202406141493055
 30
0.0
 10
2.853339301215277
 20
-7.121637980143228
 30
0.0
 10
2.853339301215277
 20
-7.121637980143228
 30
0.0
 10
2.853834364149305
 20
-7.121522691514756
 30
0.0
 10
2.853834364149305
 20
-7.121522691514756
 30
0.0
 10
2.853834364149305
 20
-7.121522691514756
 30
0.0
 10
2.853081597222221
 20
-7.12068854437934
 30
0.0
 10
2.853081597222221
 20
-7.12068854437934
 30
0.0
 10
2.85319349500868
 20
-6.766155666775173
 30
0.0
 10
2.85374281141493
 20
-6.342463175455728
 30
0.0
 10
2.853583441840277
 20
-5.986526489257812
 30
0.0
 10
2.855183919270833
 20
-5.970711602105034
 30
0.0
 10
2.852047390407986
 20
-5.942879570855034
 30
0.0
 10
2.845313178168402
 20
-5.928387112087673
 30
0.0
 10
2.841311984592013
 20
-5.924345228407117
 30
0.0
 10
2.831939697265625
 20
-5.916356404622395
 30
0.0
 10
2.827714708116319
 20
-5.912416246202256
 30
0.0
 10
2.813157823350694
 20
-5.9055667453342
 30
0.0
 10
2.79429456922743
 20
-5.904698689778645
 30
0.0
 10
2.778540717230902
 20
-5.905451456705728
 30
0.0
 10
2.762613932291666
 20
-5.90297614203559
 30
0.0
 10
2.744669596354166
 20
-5.89156256781684
 30
0.0
 10
2.735280354817708
 20
-5.878494262695312
 30
0.0
 10
2.731842041015625
 20
-5.874771118164062
 30
0.0
 10
2.732242160373263
 20
-5.867195977105034
 30
0.0
 10
2.729800754123263
 20
-5.86275397406684
 30
0.0
 10
2.726138644748263
 20
-5.513768513997395
 30
0.0
 10
2.729949951171875
 20
-4.951878865559895
 30
0.0
 10
2.728752983940971
 20
-4.602154201931423
 30
0.0
 10
2.728752983940971
 20
-4.602154201931423
 30
0.0
 10
2.728006998697916
 20
-4.601659138997395
 30
0.0
 10
2.728006998697916
 20
-4.601659138997395
 30
0.0
 10
2.728285047743055
 20
-3.893705579969617
 30
0.0
 10
2.729000515407986
 20
-3.032279120551215
 30
0.0
 10
2.728515625
 20
-2.321609497070312
 30
0.0
 10
2.726433648003471
 20
-2.27248297797309
 30
0.0
 10
2.732499864366319
 20
-2.204506768120659
 30
0.0
 10
2.738176133897569
 20
-2.155929565429687
 30
0.0
 10
2.747334798177083
 20
-2.066082424587673
 30
0.0
 10
2.78861829969618
 20
-1.962553236219617
 30
0.0
 10
2.82470703125
 20
-1.880542331271701
 30
0.0
 10
2.846669514973958
 20
-1.835383097330728
 30
0.0
 10
2.894982231987846
 20
-1.766420152452256
 30
0.0
 10
2.92132568359375
 20
-1.723485310872395
 30
0.0
 10
2.938490125868055
 20
-1.707989162868923
 30
0.0
 10
2.982035319010416
 20
-1.656129625108506
 30
0.0
 10
3.000142415364583
 20
-1.642807006835937
 30
0.0
 10
3.022606743706596
 20
-1.62489997016059
 30
0.0
 10
3.083696153428819
 20
-1.583226521809895
 30
0.0
 10
3.105750189887152
 20
-1.563871595594617
 30
0.0
 10
3.13340589735243
 20
-1.537300957573784
 30
0.0
 10
3.211435953776041
 20
-1.508773803710937
 30
0.0
 10
3.243832058376735
 20
-1.487635294596354
 30
0.0
 10
3.31494140625
 20
-1.465611775716145
 30
0.0
 10
3.484246148003471
 20
-1.425186157226562
 30
0.0
 10
3.558000352647569
 20
-1.424494425455729
 30
0.0
 10
3.62876722547743
 20
-1.424229939778645
 30
0.0
 10
3.7303466796875
 20
-1.424864027235243
 30
0.0
 10
3.801317003038194
 20
-1.424494425455729
 30
0.0
 10
3.801408555772569
 20
-1.424602932400173
 30
0.0
 10
4.245076497395833
 20
-1.424358791775173
 30
0.0
 10
4.245103624131944
 20
-1.424507988823784
 30
0.0
 10
4.252085367838541
 20
-1.425240410698784
 30
0.0
 10
4.263071695963541
 20
-1.431133694118923
 30
0.0
 10
4.270579020182291
 20
-1.43147956000434
 30
0.0
 10
4.33872816297743
 20
-1.458124796549479
 30
0.0
 10
4.466020372178818
 20
-1.529722425672743
 30
0.0
 10
4.537238226996527
 20
-1.549562242296006
 30
0.0
 10
4.910593668619791
 20
-1.549819946289062
 30
0.0
 10
5.397494845920138
 20
-1.549250284830729
 30
0.0
 10
5.768052842881943
 20
-1.549585978190104
 30
0.0
 10
5.768052842881943
 20
-1.549585978190104
 30
0.0
 10
5.767964680989583
 20
-1.549487643771701
 30
0.0
 10
5.767964680989583
 20
-1.549487643771701
 30
0.0
 10
5.77499050564236
 20
-1.549507988823784
 30
0.0
 10
5.806810167100693
 20
-1.549592759874131
 30
0.0
 10
5.813181559244791
 20
-1.549609714084201
 30
0.0
 10
5.813357883029513
 20
-1.54994879828559
 30
0.0
 10
5.818705240885416
 20
-1.554797702365451
 30
0.0
 10
5.818844265407985
 20
-1.555157131618923
 30
0.0
 10
5.818844265407985
 20
-1.555157131618923
 30
0.0
 10
5.851525200737847
 20
-1.574573092990451
 30
0.0
 10
5.851531982421875
 20
-1.574573092990451
 30
0.0
 10
5.864495171440972
 20
-1.597061157226562
 30
0.0
 10
5.956834581163193
 20
-1.719751993815104
 30
0.0
 10
5.968997531467013
 20
-1.742592705620659
 30
0.0
 10
6.000179714626735
 20
-1.789918687608506
 30
0.0
 10
6.153052435980902
 20
-1.907533433702256
 30
0.0
 10
6.195451524522568
 20
-1.943093193901909
 30
0.0
 10
6.209299723307291
 20
-1.957039727105034
 30
0.0
 10
6.256693522135416
 20
-1.989008585611978
 30
0.0
 10
6.269622802734375
 20
-2.003250122070312
 30
0.0
 10
6.269622802734375
 20
-2.003250122070312
 30
0.0
 10
6.335723876953125
 20
-2.031350029839409
 30
0.0
 10
6.335730658637152
 20
-2.031346638997395
 30
0.0
 10
6.352834065755208
 20
-2.037151760525173
 30
0.0
 10
6.593343098958333
 20
-2.098509046766492
 30
0.0
 10
6.61212158203125
 20
-2.105236477322048
 30
0.0
 10
6.612406412760416
 20
-2.105494181315104
 30
0.0
 10
7.126719156901041
 20
-2.105253431532117
 30
0.0
 10
7.127051459418402
 20
-2.105344984266492
 30
0.0
 10
7.309722900390625
 20
-2.105212741427951
 30
0.0
 10
7.587270100911458
 20
-2.105528089735242
 30
0.0
 10
7.776763916015625
 20
-2.105395846896701
 30
0.0
 10
7.776682535807291
 20
-2.109118991427951
 30
0.0
 10
7.776482476128471
 20
-2.112808227539062
 30
0.0
 10
7.776482476128471
 20
-2.116544935438367
 30
0.0
 10
7.776482476128471
 20
-2.392688327365451
 30
0.0
 10
8.000342475043401
 20
-2.616544935438367
 30
0.0
 10
8.276482476128471
 20
-2.616544935438367
 30
0.0
 10
8.552625868055555
 20
-2.616544935438367
 30
0.0
 10
8.776482476128471
 20
-2.392688327365451
 30
0.0
 10
8.776482476128471
 20
-2.116544935438367
 30
0.0
 10
8.776482476128471
 20
-2.112794664171006
 30
0.0
 10
8.776282416449651
 20
-2.109088473849826
 30
0.0
 10
8.776201036241319
 20
-2.105355156792534
 30
0.0
 10
8.838473849826389
 20
-2.105355156792534
 30
0.0
 10
8.900461832682291
 20
-2.105355156792534
 30
0.0
 10
8.961632622612846
 20
-2.105361938476562
 30
0.0
 10
9.227030436197916
 20
-2.105317857530381
 30
0.0
 10
9.657582600911457
 20
-2.105416191948784
 30
0.0
 10
9.922258165147569
 20
-2.105328030056423
 30
0.0
 10
9.922461615668401
 20
-2.105172051323784
 30
0.0
 10
9.94061279296875
 20
-2.105599297417534
 30
0.0
 10
9.940277099609375
 20
-2.105205959743923
 30
0.0
 10
9.940277099609375
 20
-2.105205959743923
 30
0.0
 10
10.22886488172743
 20
-2.013812594943576
 30
0.0
 10
10.22886149088541
 20
-2.013812594943576
 30
0.0
 10
10.24714152018229
 20
-2.008909437391492
 30
0.0
 10
10.28052775065104
 20
-1.99762471516927
 30
0.0
 10
10.30075073242187
 20
-1.992355346679687
 30
0.0
 10
10.30077785915798
 20
-1.992372300889756
 30
0.0
 10
10.33580186631944
 20
-1.966357760959201
 30
0.0
 10
10.33581203884548
 20
-1.966347588433159
 30
0.0
 10
10.33581203884548
 20
-1.966347588433159
 30
0.0
 10
10.47617933485243
 20
-1.862225002712673
 30
0.0
 10
10.4761725531684
 20
-1.862225002712673
 30
0.0
 10
10.53168063693576
 20
-1.791010538736979
 30
0.0
 10
10.63809882269965
 20
-1.645794338650173
 30
0.0
 10
10.69606865776909
 20
-1.574640909830729
 30
0.0
 10
10.69606865776909
 20
-1.574640909830729
 30
0.0
 10
10.73589409722222
 20
-1.550959269205729
 30
0.0
 10
10.73589409722222
 20
-1.550959269205729
 30
0.0
 10
10.73589409722222
 20
-1.550959269205729
 30
0.0
 10
10.73653157552083
 20
-1.549609714084201
 30
0.0
 10
10.73653157552083
 20
-1.549609714084201
 30
0.0
 10
10.7434590657552
 20
-1.549592759874131
 30
0.0
 10
10.77634684244791
 20
-1.549507988823784
 30
0.0
 10
10.78397284613715
 20
-1.549487643771701
 30
0.0
 10
10.78397284613715
 20
-1.549487643771701
 30
0.0
 10
10.78395928276909
 20
-1.54958258734809
 30
0.0
 10
10.78395928276909
 20
-1.54958258734809
 30
0.0
 10
11.17659166124132
 20
-1.54958258734809
 30
0.0
 10
11.60189819335937
 20
-1.549572414822048
 30
0.0
 10
11.99413723415798
 20
-1.54958258734809
 30
0.0
 10
12.00642564561632
 20
-1.550003051757812
 30
0.0
 10
12.01998901367187
 20
-1.549480862087673
 30
0.0
 10
12.03197564019097
 20
-1.546510484483506
 30
0.0
 10
12.10834079318576
 20
-1.51772223578559
 30
0.0
 10
12.2095947265625
 20
-1.470986260308159
 30
0.0
 10
12.2812025282118
 20
-1.431686401367187
 30
0.0
 10
12.46624416775173
 20
-1.41241963704427
 30
0.0
 10
12.80877007378472
 20
-1.430482652452256
 30
0.0
 10
12.99435424804687
 20
-1.424494425455729
 30
0.0
 10
13.08073255750868
 20
-1.429916381835937
 30
0.0
 10
13.19335598415798
 20
-1.445995754665798
 30
0.0
 10
13.27328152126736
 20
-1.480578952365451
 30
0.0
 10
13.28565131293403
 20
-1.482287936740451
 30
0.0
 10
13.32460869683159
 20
-1.499872843424479
 30
0.0
 10
13.33718872070312
 20
-1.500801934136284
 30
0.0
 10
13.33718872070312
 20
-1.500801934136284
 30
0.0
 10
13.44012112087673
 20
-1.55829366048177
 30
0.0
 10
13.44012112087673
 20
-1.55829366048177
 30
0.0
 10
13.44012112087673
 20
-1.55829366048177
 30
0.0
 10
13.44521755642361
 20
-1.56124030219184
 30
0.0
 10
13.44522094726562
 20
-1.561250474717881
 30
0.0
 10
13.46658325195312
 20
-1.575146145290798
 30
0.0
 10
13.54725138346354
 20
-1.644343058268229
 30
0.0
 10
13.56976996527778
 20
-1.658401489257812
 30
0.0
 10
13.60255262586805
 20
-1.698793199327256
 30
0.0
 10
13.65181138780382
 20
-1.757461547851562
 30
0.0
 10
13.6839599609375
 20
-1.798399183485242
 30
0.0
 10
13.71090020073784
 20
-1.85677252875434
 30
0.0
 10
13.75750393337673
 20
-1.96163092719184
 30
0.0
 10
13.7847900390625
 20
-2.020414564344617
 30
0.0
 10
13.82129923502604
 20
-2.15743170844184
 30
0.0
 10
13.82809109157986
 20
-2.316197713216145
 30
0.0
 10
13.82384236653646
 20
-2.457168579101562
 30
0.0
 10
13.82388983832465
 20
-3.139819675021701
 30
0.0
 10
13.82381184895833
 20
-3.880142211914062
 30
0.0
 10
13.82358127170139
 20
-4.561287773980034
 30
0.0
 10
13.82358127170139
 20
-4.561287773980034
 30
0.0
 10
13.82270000000001
 20
-4.728059651421264
 30
0.0
 10
13.82270000000001
 20
-4.728059651421264
 30
0.0
 10
13.65962379435041
 20
-4.728059651421264
 30
0.0
 10
13.52742440944881
 20
-4.860259036322834
 30
0.0
 10
13.52742440944881
 20
-5.023335241972441
 30
0.0
 10
13.52742440944881
 20
-5.186411447622049
 30
0.0
 10
13.65962379435041
 20
-5.318610832523618
 30
0.0
 10
13.82270000000001
 20
-5.318610832523618
 30
0.0
  0
ENDSEC
  0
SECTION
  2
OBJECTS
  0
DICTIONARY
  5
C
330
0
100
AcDbDictionary
281
     1
  3
ACAD_COLOR
350
63
  3
ACAD_DETAILVIEWSTYLE
350
6A
  3
ACAD_GROUP
350
D
  3
ACAD_LAYOUT
350
62
  3
ACAD_MATERIAL
350
10
  3
ACAD_MLEADERSTYLE
350
66
  3
ACAD_MLINESTYLE
350
5F
  3
ACAD_PLOTSETTINGS
350
61
  3
ACAD_PLOTSTYLENAME
350
E
  3
ACAD_SCALELIST
350
42
  3
ACAD_SECTIONVIEWSTYLE
350
68
  3
ACAD_TABLESTYLE
350
64
  3
ACAD_VISUALSTYLE
350
29
  3
ACDB_RECOMPOSE_DATA
350
DB
  3
AcDbVariableDictionary
350
D3
  0
DICTIONARY
  5
63
102
{ACAD_REACTORS
330
C
102
}
330
C
100
AcDbDictionary
281
     1
  0
DICTIONARY
  5
6A
102
{ACAD_REACTORS
330
C
102
}
330
C
100
AcDbDictionary
281
     1
  3
Imperial24
350
6B
  0
DICTIONARY
  5
D
102
{ACAD_REACTORS
330
C
102
}
330
C
100
AcDbDictionary
281
     1
  0
DICTIONARY
  5
62
102
{ACAD_REACTORS
330
C
102
}
330
C
100
AcDbDictionary
281
     1
  3
Layout1
350
6F
  3
Layout2
350
77
  3
Model
350
73
  0
DICTIONARY
  5
10
102
{ACAD_REACTORS
330
C
102
}
330
C
100
AcDbDictionary
281
     1
  3
ByBlock
350
19
  3
ByLayer
350
11
  3
Global
350
21
  0
DICTIONARY
  5
66
102
{ACAD_REACTORS
330
C
102
}
330
C
100
AcDbDictionary
281
     1
  3
Standard
350
67
  0
DICTIONARY
  5
5F
102
{ACAD_REACTORS
330
C
102
}
330
C
100
AcDbDictionary
281
     1
  3
Standard
350
60
  0
DICTIONARY
  5
61
102
{ACAD_REACTORS
330
C
102
}
330
C
100
AcDbDictionary
281
     1
  0
ACDBDICTIONARYWDFLT
  5
E
102
{ACAD_REACTORS
330
C
102
}
330
C
100
AcDbDictionary
281
     1
  3
Normal
350
F
100
AcDbDictionaryWithDefault
340
F
  0
DICTIONARY
  5
42
102
{ACAD_REACTORS
330
C
102
}
330
C
100
AcDbDictionary
281
     1
  3
A0
350
43
  3
A1
350
44
  3
A2
350
45
  3
A3
350
46
  3
A4
350
47
  3
A5
350
48
  3
A6
350
49
  3
A7
350
4A
  3
A8
350
4B
  3
A9
350
4C
  3
B0
350
4D
  3
B1
350
4E
  3
B2
350
4F
  3
B3
350
50
  3
B4
350
51
  3
B5
350
52
  3
B6
350
53
  0
DICTIONARY
  5
68
102
{ACAD_REACTORS
330
C
102
}
330
C
100
AcDbDictionary
281
     1
  3
Imperial24
350
69
  0
DICTIONARY
  5
64
102
{ACAD_REACTORS
330
C
102
}
330
C
100
AcDbDictionary
281
     1
  3
Standard
350
65
  0
DICTIONARY
  5
29
102
{ACAD_REACTORS
330
C
102
}
330
C
100
AcDbDictionary
281
     1
  3
2dWireframe
350
2F
  3
Basic
350
2E
  3
Brighten
350
35
  3
ColorChange
350
39
  3
Conceptual
350
32
  3
Dim
350
34
  3
EdgeColorOff
350
41
  3
Facepattern
350
38
  3
Flat
350
2A
  3
FlatWithEdges
350
2B
  3
Gouraud
350
2C
  3
GouraudWithEdges
350
2D
  3
Hidden
350
31
  3
JitterOff
350
3F
  3
Linepattern
350
37
  3
OverhangOff
350
40
  3
Realistic
350
33
  3
Shaded
350
3E
  3
Shaded with edges
350
3D
  3
Shades of Gray
350
3A
  3
Sketchy
350
3B
  3
Thicken
350
36
  3
Wireframe
350
30
  3
X-Ray
350
3C
  0
XRECORD
  5
DB
102
{ACAD_REACTORS
330
C
102
}
330
C
100
AcDbXrecord
280
     1
 90
        1
330
65
  0
DICTIONARY
  5
D3
102
{ACAD_REACTORS
330
C
102
}
330
C
100
AcDbDictionary
281
     1
  3
CANNOSCALE
350
D8
  3
CMLEADERSTYLE
350
D5
  3
CTABLESTYLE
350
D4
  3
CVIEWDETAILSTYLE
350
D6
  3
CVIEWSECTIONSTYLE
350
D7
  0
ACDBDETAILVIEWSTYLE
  5
6B
102
{ACAD_REACTORS
330
6A
102
}
330
6A
100
AcDbModelDocViewStyle
 70
     0
  3
Imperial24
290
     1
300
Imperial24
 90
        0
100
AcDbDetailViewStyle
 70
     0
 71
     0
 90
        3
 71
     1
340
55
 62
   256
 40
0.24
340
0
 62
   256
 40
0.24
300

 40
0.36
280
     3
 71
     2
340
5D
 90
       25
 62
   256
 71
     3
340
55
 62
   256
 40
0.24
 90
        1
 40
0.75
 90
        1
300
%<\AcVar ViewType \f "%tc1">% %<\AcVar ViewDetailId>%\PSCALE %<\AcVar ViewScale \f "%sn">%
 71
     4
340
5D
 90
       25
 62
   256
340
5D
 90
       25
 62
   256
280
     0
  0
LAYOUT
  5
6F
102
{ACAD_REACTORS
330
62
102
}
330
62
100
AcDbPlotSettings
  1

  2

  4

  6

 40
0.0
 41
0.0
 42
0.0
 43
0.0
 44
0.0
 45
0.0
 46
0.0
 47
0.0
 48
0.0
 49
0.0
140
0.0
141
0.0
142
1.0
143
1.0
 70
   688
 72
     0
 73
     0
 74
     5
  7

 75
    16
147
1.0
 76
     0
 77
     2
 78
   300
148
0.0
149
0.0
100
AcDbLayout
  1
Layout1
 70
     1
 71
     1
 10
0.0
 20
0.0
 11
12.0
 21
9.0
 12
0.0
 22
0.0
 32
0.0
 14
0.0
 24
0.0
 34
0.0
 15
0.0
 25
0.0
 35
0.0
146
0.0
 13
0.0
 23
0.0
 33
0.0
 16
1.0
 26
0.0
 36
0.0
 17
0.0
 27
1.0
 37
0.0
 76
     0
330
6C
  0
LAYOUT
  5
77
102
{ACAD_REACTORS
330
62
102
}
330
62
100
AcDbPlotSettings
  1

  2

  4

  6

 40
0.0
 41
0.0
 42
0.0
 43
0.0
 44
0.0
 45
0.0
 46
0.0
 47
0.0
 48
0.0
 49
0.0
140
0.0
141
0.0
142
1.0
143
1.0
 70
   688
 72
     0
 73
     0
 74
     5
  7

 75
    16
147
1.0
 76
     0
 77
     2
 78
   300
148
0.0
149
0.0
100
AcDbLayout
  1
Layout2
 70
     1
 71
     2
 10
0.0
 20
0.0
 11
12.0
 21
9.0
 12
0.0
 22
0.0
 32
0.0
 14
0.0
 24
0.0
 34
0.0
 15
0.0
 25
0.0
 35
0.0
146
0.0
 13
0.0
 23
0.0
 33
0.0
 16
1.0
 26
0.0
 36
0.0
 17
0.0
 27
1.0
 37
0.0
 76
     0
330
74
  0
LAYOUT
  5
73
102
{ACAD_REACTORS
330
62
102
}
330
62
100
AcDbPlotSettings
  1

  2

  4

  6

 40
0.0
 41
0.0
 42
0.0
 43
0.0
 44
0.0
 45
0.0
 46
0.0
 47
0.0
 48
0.0
 49
0.0
140
0.0
141
0.0
142
1.0
143
1.0
 70
  1712
 72
     0
 73
     0
 74
     0
  7

 75
     0
147
1.0
 76
     0
 77
     2
 78
   300
148
0.0
149
0.0
100
AcDbLayout
  1
Model
 70
     1
 71
     0
 10
0.0
 20
0.0
 11
12.0
 21
9.0
 12
0.0
 22
0.0
 32
0.0
 14
0.0
 24
0.0
 34
0.0
 15
0.0
 25
0.0
 35
0.0
146
0.0
 13
0.0
 23
0.0
 33
0.0
 16
1.0
 26
0.0
 36
0.0
 17
0.0
 27
1.0
 37
0.0
 76
     0
330
70
  0
MATERIAL
  5
19
102
{ACAD_XDICTIONARY
360
1A
102
}
102
{ACAD_REACTORS
330
10
102
}
330
10
100
AcDbMaterial
  1
ByBlock
 72
     0
 43
0.0208333333333333
 43
0.0
 43
0.0
 43
0.0
 43
0.0
 43
0.0208333333333333
 43
0.0
 43
0.0
 43
0.0
 43
0.0
 43
1.0
 43
0.0
 43
0.0
 43
0.0
 43
0.0
 43
1.0
 77
     0
 47
0.0208333333333333
 47
0.0
 47
0.0
 47
0.0
 47
0.0
 47
0.0208333333333333
 47
0.0
 47
0.0
 47
0.0
 47
0.0
 47
1.0
 47
0.0
 47
0.0
 47
0.0
 47
0.0
 47
1.0
171
     0
 49
0.0208333333333333
 49
0.0
 49
0.0
 49
0.0
 49
0.0
 49
0.0208333333333333
 49
0.0
 49
0.0
 49
0.0
 49
0.0
 49
1.0
 49
0.0
 49
0.0
 49
0.0
 49
0.0
 49
1.0
175
     0
142
0.0208333333333333
142
0.0
142
0.0
142
0.0
142
0.0
142
0.0208333333333333
142
0.0
142
0.0
142
0.0
142
0.0
142
1.0
142
0.0
142
0.0
142
0.0
142
0.0
142
1.0
179
     0
144
0.0208333333333333
144
0.0
144
0.0
144
0.0
144
0.0
144
0.0208333333333333
144
0.0
144
0.0
144
0.0
144
0.0
144
1.0
144
0.0
144
0.0
144
0.0
144
0.0
144
1.0
147
0.0208333333333333
147
0.0
147
0.0
147
0.0
147
0.0
147
0.0208333333333333
147
0.0
147
0.0
147
0.0
147
0.0
147
1.0
147
0.0
147
0.0
147
0.0
147
0.0
147
1.0
  0
MATERIAL
  5
11
102
{ACAD_XDICTIONARY
360
12
102
}
102
{ACAD_REACTORS
330
10
102
}
330
10
100
AcDbMaterial
  1
ByLayer
 72
     0
 43
0.0208333333333333
 43
0.0
 43
0.0
 43
0.0
 43
0.0
 43
0.0208333333333333
 43
0.0
 43
0.0
 43
0.0
 43
0.0
 43
1.0
 43
0.0
 43
0.0
 43
0.0
 43
0.0
 43
1.0
 77
     0
 47
0.0208333333333333
 47
0.0
 47
0.0
 47
0.0
 47
0.0
 47
0.0208333333333333
 47
0.0
 47
0.0
 47
0.0
 47
0.0
 47
1.0
 47
0.0
 47
0.0
 47
0.0
 47
0.0
 47
1.0
171
     0
 49
0.0208333333333333
 49
0.0
 49
0.0
 49
0.0
 49
0.0
 49
0.0208333333333333
 49
0.0
 49
0.0
 49
0.0
 49
0.0
 49
1.0
 49
0.0
 49
0.0
 49
0.0
 49
0.0
 49
1.0
175
     0
142
0.0208333333333333
142
0.0
142
0.0
142
0.0
142
0.0
142
0.0208333333333333
142
0.0
142
0.0
142
0.0
142
0.0
142
1.0
142
0.0
142
0.0
142
0.0
142
0.0
142
1.0
179
     0
144
0.0208333333333333
144
0.0
144
0.0
144
0.0
144
0.0
144
0.0208333333333333
144
0.0
144
0.0
144
0.0
144
0.0
144
1.0
144
0.0
144
0.0
144
0.0
144
0.0
144
1.0
147
0.0208333333333333
147
0.0
147
0.0
147
0.0
147
0.0
147
0.0208333333333333
147
0.0
147
0.0
147
0.0
147
0.0
147
1.0
147
0.0
147
0.0
147
0.0
147
0.0
147
1.0
  0
MATERIAL
  5
21
102
{ACAD_XDICTIONARY
360
22
102
}
102
{ACAD_REACTORS
330
10
102
}
330
10
100
AcDbMaterial
  1
Global
 72
     0
 43
0.0208333333333333
 43
0.0
 43
0.0
 43
0.0
 43
0.0
 43
0.0208333333333333
 43
0.0
 43
0.0
 43
0.0
 43
0.0
 43
1.0
 43
0.0
 43
0.0
 43
0.0
 43
0.0
 43
1.0
 77
     0
 47
0.0208333333333333
 47
0.0
 47
0.0
 47
0.0
 47
0.0
 47
0.0208333333333333
 47
0.0
 47
0.0
 47
0.0
 47
0.0
 47
1.0
 47
0.0
 47
0.0
 47
0.0
 47
0.0
 47
1.0
171
     0
 49
0.0208333333333333
 49
0.0
 49
0.0
 49
0.0
 49
0.0
 49
0.0208333333333333
 49
0.0
 49
0.0
 49
0.0
 49
0.0
 49
1.0
 49
0.0
 49
0.0
 49
0.0
 49
0.0
 49
1.0
175
     0
142
0.0208333333333333
142
0.0
142
0.0
142
0.0
142
0.0
142
0.0208333333333333
142
0.0
142
0.0
142
0.0
142
0.0
142
1.0
142
0.0
142
0.0
142
0.0
142
0.0
142
1.0
179
     0
144
0.0208333333333333
144
0.0
144
0.0
144
0.0
144
0.0
144
0.0208333333333333
144
0.0
144
0.0
144
0.0
144
0.0
144
1.0
144
0.0
144
0.0
144
0.0
144
0.0
144
1.0
147
0.0208333333333333
147
0.0
147
0.0
147
0.0
147
0.0
147
0.0208333333333333
147
0.0
147
0.0
147
0.0
147
0.0
147
1.0
147
0.0
147
0.0
147
0.0
147
0.0
147
1.0
  0
MLEADERSTYLE
  5
67
102
{ACAD_REACTORS
330
66
102
}
330
66
100
AcDbMLeaderStyle
179
     2
170
     2
171
     1
172
     0
 90
        2
 40
0.0
 41
0.0
173
     1
 91
-1056964608
340
5B
 92
       -2
290
     1
 42
0.09
291
     1
 43
0.36
  3
Standard
 44
0.18
300

342
55
174
     1
178
     6
175
     1
176
     0
 93
-1056964608
 45
0.18
292
     0
297
     0
 46
0.18
 94
-1056964608
 47
1.0
 49
1.0
140
1.0
293
     1
141
0.0
294
     1
177
     0
142
1.0
295
     1
296
     0
143
0.125
271
     0
272
     9
273
     9
298
     1
  0
MLINESTYLE
  5
60
102
{ACAD_REACTORS
330
5F
102
}
330
5F
100
AcDbMlineStyle
  2
STANDARD
 70
     0
  3

 62
   256
 51
90.0
 52
90.0
 71
     2
 49
0.5
 62
   256
  6
BYLAYER
 49
-0.5
 62
   256
  6
BYLAYER
  0
ACDBPLACEHOLDER
  5
F
102
{ACAD_REACTORS
330
E
102
}
330
E
  0
SCALE
  5
43
102
{ACAD_REACTORS
330
42
102
}
330
42
100
AcDbScale
 70
     0
300
1:1
140
1.0
141
1.0
290
     1
  0
SCALE
  5
44
102
{ACAD_REACTORS
330
42
102
}
330
42
100
AcDbScale
 70
     0
300
1/128" = 1'-0"
140
0.0078125
141
12.0
290
     0
  0
SCALE
  5
45
102
{ACAD_REACTORS
330
42
102
}
330
42
100
AcDbScale
 70
     0
300
1/64" = 1'-0"
140
0.015625
141
12.0
290
     0
  0
SCALE
  5
46
102
{ACAD_REACTORS
330
42
102
}
330
42
100
AcDbScale
 70
     0
300
1/32" = 1'-0"
140
0.03125
141
12.0
290
     0
  0
SCALE
  5
47
102
{ACAD_REACTORS
330
42
102
}
330
42
100
AcDbScale
 70
     0
300
1/16" = 1'-0"
140
0.0625
141
12.0
290
     0
  0
SCALE
  5
48
102
{ACAD_REACTORS
330
42
102
}
330
42
100
AcDbScale
 70
     0
300
3/32" = 1'-0"
140
0.09375
141
12.0
290
     0
  0
SCALE
  5
49
102
{ACAD_REACTORS
330
42
102
}
330
42
100
AcDbScale
 70
     0
300
1/8" = 1'-0"
140
0.125
141
12.0
290
     0
  0
SCALE
  5
4A
102
{ACAD_REACTORS
330
42
102
}
330
42
100
AcDbScale
 70
     0
300
3/16" = 1'-0"
140
0.1875
141
12.0
290
     0
  0
SCALE
  5
4B
102
{ACAD_REACTORS
330
42
102
}
330
42
100
AcDbScale
 70
     0
300
1/4" = 1'-0"
140
0.25
141
12.0
290
     0
  0
SCALE
  5
4C
102
{ACAD_REACTORS
330
42
102
}
330
42
100
AcDbScale
 70
     0
300
3/8" = 1'-0"
140
0.375
141
12.0
290
     0
  0
SCALE
  5
4D
102
{ACAD_REACTORS
330
42
102
}
330
42
100
AcDbScale
 70
     0
300
1/2" = 1'-0"
140
0.5
141
12.0
290
     0
  0
SCALE
  5
4E
102
{ACAD_REACTORS
330
42
102
}
330
42
100
AcDbScale
 70
     0
300
3/4" = 1'-0"
140
0.75
141
12.0
290
     0
  0
SCALE
  5
4F
102
{ACAD_REACTORS
330
42
102
}
330
42
100
AcDbScale
 70
     0
300
1" = 1'-0"
140
1.0
141
12.0
290
     0
  0
SCALE
  5
50
102
{ACAD_REACTORS
330
42
102
}
330
42
100
AcDbScale
 70
     0
300
1-1/2" = 1'-0"
140
1.5
141
12.0
290
     0
  0
SCALE
  5
51
102
{ACAD_REACTORS
330
42
102
}
330
42
100
AcDbScale
 70
     0
300
3" = 1'-0"
140
3.0
141
12.0
290
     0
  0
SCALE
  5
52
102
{ACAD_REACTORS
330
42
102
}
330
42
100
AcDbScale
 70
     0
300
6" = 1'-0"
140
6.0
141
12.0
290
     0
  0
SCALE
  5
53
102
{ACAD_REACTORS
330
42
102
}
330
42
100
AcDbScale
 70
     0
300
1'-0" = 1'-0"
140
12.0
141
12.0
290
     0
  0
ACDBSECTIONVIEWSTYLE
  5
69
102
{ACAD_REACTORS
330
68
102
}
330
68
100
AcDbModelDocViewStyle
 70
     0
  3
Imperial24
290
     1
300
Imperial24
 90
        0
100
AcDbSectionViewStyle
 70
     0
 71
     0
 90
       78
 71
     1
340
55
 62
   256
 40
0.24
340
0
340
0
 62
   256
 40
0.24
300
I, O, Q, S, X, Z
 40
0.48
 90
        3
 40
0.18
 90
        1
 71
     2
340
5D
 90
       25
 62
   256
340
5D
 90
       50
 62
   256
 40
0.24
 40
0.0
 40
0.24
 71
     3
340
55
 62
   256
 40
0.24
 90
        1
 40
0.75
 90
        1
300
%<\AcVar ViewType \f "%tc1">% %<\AcVar ViewSectionStartId>%-%<\AcVar ViewSectionEndId>%\PSCALE %<\AcVar ViewScale \f "%sn">%
 71
     4
 62
   256
 62
   257
300
ANSI31
 40
1.0
 90
        0
290
     0
290
     0
 90
        6
 40
0.0
 40
1.570796326794896
 40
0.2617993877991494
 40
1.308996938995747
 40
-0.2617993877991494
 40
1.832595714594046
  0
TABLESTYLE
  5
65
102
{ACAD_XDICTIONARY
360
D9
102
}
102
{ACAD_REACTORS
330
64
102
}
330
64
100
AcDbTableStyle
280
     0
  3
Standard
 70
     0
 71
     0
 40
0.06
 41
0.06
280
     0
281
     0
  7
Standard
140
0.18
170
     2
 62
     0
 63
     7
283
     0
 90
      512
 91
        0
  1

274
    -2
284
     1
 64
     0
275
    -2
285
     1
 65
     0
276
    -2
286
     1
 66
     0
277
    -2
287
     1
 67
     0
278
    -2
288
     1
 68
     0
279
    -2
289
     1
 69
     0
  7
Standard
140
0.25
170
     5
 62
     0
 63
     7
283
     0
 90
      512
 91
        0
  1

274
    -2
284
     1
 64
     0
275
    -2
285
     1
 65
     0
276
    -2
286
     1
 66
     0
277
    -2
287
     1
 67
     0
278
    -2
288
     1
 68
     0
279
    -2
289
     1
 69
     0
  7
Standard
140
0.18
170
     5
 62
     0
 63
     7
283
     0
 90
      512
 91
        0
  1

274
    -2
284
     1
 64
     0
275
    -2
285
     1
 65
     0
276
    -2
286
     1
 66
     0
277
    -2
287
     1
 67
     0
278
    -2
288
     1
 68
     0
279
    -2
289
     1
 69
     0
  0
VISUALSTYLE
  5
2F
102
{ACAD_REACTORS
330
29
102
}
330
29
100
AcDbVisualStyle
  2
2dWireframe
 70
     4
177
     3
291
     0
 70
    58
 90
        0
176
     1
 90
        2
176
     1
 90
        0
176
     1
 90
        0
176
     1
 40
0.6
176
     1
 40
30.0
176
     1
 62
     7
420
 16777215
176
     1
 90
        1
176
     1
 90
        4
176
     1
 62
     7
176
     1
 62
   257
176
     1
 90
        1
176
     1
 90
        1
176
     1
 40
1.0
176
     1
 90
        0
176
     1
 62
   257
176
     1
 40
1.0
176
     1
 90
        1
176
     1
 90
        6
176
     1
 90
        2
176
     1
 62
     7
176
     1
 90
        5
176
     1
 90
        0
176
     1
 90
        0
176
     1
290
     0
176
     1
 90
        1
176
     1
 40
0.0
176
     1
 90
        0
176
     1
290
     1
176
     1
290
     1
176
     1
290
     0
176
     1
290
     0
176
     1
290
     0
176
     1
290
     0
176
     1
290
     0
176
     1
290
     0
176
     1
290
     0
176
     1
 90
       50
176
     1
 40
0.0
176
     1
 40
1.0
176
     1
 90
        0
176
     1
 62
    18
420
        0
176
     1
 90
       50
176
     1
 90
        3
176
     1
 62
     5
420
      255
176
     1
290
     0
176
     1
 90
       50
176
     1
 90
       50
176
     1
 90
       50
176
     1
290
     0
176
     1
 90
       50
176
     1
 62
   256
176
     0
 40
1.0
176
     0
 90
        2
176
     1
  1
strokes_ogs.tif
176
     1
290
     0
176
     1
 40
1.0
176
     1
 40
1.0
176
     1
  0
VISUALSTYLE
  5
2E
102
{ACAD_REACTORS
330
29
102
}
330
29
100
AcDbVisualStyle
  2
Basic
 70
     7
177
     3
291
     1
 70
    58
 90
        1
176
     1
 90
        0
176
     1
 90
        1
176
     1
 90
        0
176
     1
 40
0.6
176
     1
 40
30.0
176
     1
 62
     7
420
 16777215
176
     1
 90
        0
176
     1
 90
        4
176
     1
 62
     7
176
     1
 62
   257
176
     1
 90
        1
176
     1
 90
        1
176
     1
 40
1.0
176
     1
 90
        8
176
     1
 62
     7
176
     1
 40
1.0
176
     1
 90
        1
176
     1
 90
        6
176
     1
 90
        2
176
     1
 62
     7
176
     1
 90
        5
176
     1
 90
        0
176
     1
 90
        0
176
     1
290
     0
176
     1
 90
        1
176
     1
 40
0.0
176
     1
 90
        0
176
     1
290
     0
176
     1
290
     1
176
     1
290
     1
176
     1
290
     0
176
     1
290
     0
176
     1
290
     0
176
     1
290
     0
176
     1
290
     0
176
     1
290
     0
176
     1
 90
       50
176
     1
 40
0.0
176
     1
 40
1.0
176
     1
 90
        0
176
     1
 62
    18
420
        0
176
     1
 90
       50
176
     1
 90
        3
176
     1
 62
     5
420
      255
176
     1
290
     0
176
     1
 90
       50
176
     1
 90
       50
176
     1
 90
       50
176
     1
290
     0
176
     1
 90
       50
176
     1
 62
   256
176
     0
 40
1.0
176
     0
 90
        2
176
     1
  1
strokes_ogs.tif
176
     1
290
     0
176
     1
 40
1.0
176
     1
 40
1.0
176
     1
  0
VISUALSTYLE
  5
35
102
{ACAD_REACTORS
330
29
102
}
330
29
100
AcDbVisualStyle
  2
Brighten
 70
    12
177
     3
291
     1
 70
    58
 90
        2
176
     1
 90
        2
176
     1
 90
        0
176
     1
 90
        0
176
     1
 40
0.6
176
     1
 40
30.0
176
     1
 62
     7
420
 16777215
176
     1
 90
        1
176
     1
 90
        4
176
     1
 62
     7
176
     1
 62
   257
176
     1
 90
        1
176
     1
 90
        1
176
     1
 40
1.0
176
     1
 90
        8
176
     1
 62
     7
176
     1
 40
1.0
176
     1
 90
        1
176
     1
 90
        6
176
     1
 90
        2
176
     1
 62
     7
176
     1
 90
        5
176
     1
 90
        0
176
     1
 90
        0
176
     1
290
     0
176
     1
 90
        1
176
     1
 40
50.0
176
     1
 90
        0
176
     1
290
     0
176
     1
290
     1
176
     1
290
     1
176
     1
290
     0
176
     1
290
     0
176
     1
290
     0
176
     1
290
     0
176
     1
290
     0
176
     1
290
     0
176
     1
 90
       50
176
     1
 40
0.0
176
     1
 40
1.0
176
     1
 90
        0
176
     1
 62
    18
420
        0
176
     1
 90
       50
176
     1
 90
        3
176
     1
 62
     5
420
      255
176
     1
290
     0
176
     1
 90
       50
176
     1
 90
       50
176
     1
 90
       50
176
     1
290
     0
176
     1
 90
       50
176
     1
 62
   256
176
     0
 40
1.0
176
     0
 90
        2
176
     1
  1
strokes_ogs.tif
176
     1
290
     0
176
     1
 40
1.0
176
     1
 40
1.0
176
     1
  0
VISUALSTYLE
  5
39
102
{ACAD_REACTORS
330
29
102
}
330
29
100
AcDbVisualStyle
  2
ColorChange
 70
    16
177
     3
291
     1
 70
    58
 90
        2
176
     1
 90
        2
176
     1
 90
        3
176
     1
 90
        0
176
     1
 40
0.6
176
     1
 40
30.0
176
     1
 62
     8
420
  8421504
176
     1
 90
        1
176
     1
 90
        4
176
     1
 62
     7
176
     1
 62
   257
176
     1
 90
        1
176
     1
 90
        1
176
     1
 40
1.0
176
     1
 90
        8
176
     1
 62
     8
420
  8421504
176
     1
 40
1.0
176
     1
 90
        1
176
     1
 90
        6
176
     1
 90
        2
176
     1
 62
     7
176
     1
 90
        5
176
     1
 90
        0
176
     1
 90
        0
176
     1
290
     0
176
     1
 90
        1
176
     1
 40
0.0
176
     1
 90
        0
176
     1
290
     0
176
     1
290
     1
176
     1
290
     1
176
     1
290
     0
176
     1
290
     0
176
     1
290
     0
176
     1
290
     0
176
     1
290
     0
176
     1
290
     0
176
     1
 90
       50
176
     1
 40
0.0
176
     1
 40
1.0
176
     1
 90
        0
176
     1
 62
    18
420
        0
176
     1
 90
       50
176
     1
 90
        3
176
     1
 62
     5
420
      255
176
     1
290
     0
176
     1
 90
       50
176
     1
 90
       50
176
     1
 90
       50
176
     1
290
     0
176
     1
 90
       50
176
     1
 62
   256
176
     0
 40
1.0
176
     0
 90
        2
176
     1
  1
strokes_ogs.tif
176
     1
290
     0
176
     1
 40
1.0
176
     1
 40
1.0
176
     1
  0
VISUALSTYLE
  5
32
102
{ACAD_REACTORS
330
29
102
}
330
29
100
AcDbVisualStyle
  2
Conceptual
 70
     9
177
     3
291
     0
 70
    58
 90
        3
176
     1
 90
        2
176
     1
 90
        0
176
     1
 90
        0
176
     1
 40
0.6
176
     1
 40
30.0
176
     1
 62
     7
420
 16777215
176
     1
 90
        2
176
     1
 90
        2
176
     1
 62
     7
176
     1
 62
   257
176
     1
 90
        1
176
     1
 90
        1
176
     1
 40
179.0
176
     1
 90
        8
176
     1
 62
     7
176
     1
 40
1.0
176
     1
 90
        1
176
     1
 90
        6
176
     1
 90
        2
176
     1
 62
     7
176
     1
 90
        3
176
     1
 90
        0
176
     1
 90
        0
176
     1
290
     0
176
     1
 90
        1
176
     1
 40
0.0
176
     1
 90
        0
176
     1
290
     0
176
     1
290
     1
176
     1
290
     1
176
     1
290
     0
176
     1
290
     0
176
     1
290
     0
176
     1
290
     0
176
     1
290
     0
176
     1
290
     0
176
     1
 90
       50
176
     1
 40
0.0
176
     1
 40
1.0
176
     1
 90
        0
176
     1
 62
    18
420
        0
176
     1
 90
       50
176
     1
 90
        3
176
     1
 62
     5
420
      255
176
     1
290
     0
176
     1
 90
       50
176
     1
 90
       50
176
     1
 90
       50
176
     1
290
     0
176
     1
 90
       50
176
     1
 62
   256
176
     0
 40
1.0
176
     0
 90
        2
176
     1
  1
strokes_ogs.tif
176
     1
290
     0
176
     1
 40
1.0
176
     1
 40
1.0
176
     1
  0
VISUALSTYLE
  5
34
102
{ACAD_REACTORS
330
29
102
}
330
29
100
AcDbVisualStyle
  2
Dim
 70
    11
177
     3
291
     1
 70
    58
 90
        2
176
     1
 90
        2
176
     1
 90
        0
176
     1
 90
        0
176
     1
 40
0.6
176
     1
 40
30.0
176
     1
 62
     7
420
 16777215
176
     1
 90
        1
176
     1
 90
        4
176
     1
 62
     7
176
     1
 62
   257
176
     1
 90
        1
176
     1
 90
        1
176
     1
 40
1.0
176
     1
 90
        8
176
     1
 62
     7
176
     1
 40
1.0
176
     1
 90
        1
176
     1
 90
        6
176
     1
 90
        2
176
     1
 62
     7
176
     1
 90
        5
176
     1
 90
        0
176
     1
 90
        0
176
     1
290
     0
176
     1
 90
        1
176
     1
 40
-50.0
176
     1
 90
        0
176
     1
290
     0
176
     1
290
     1
176
     1
290
     1
176
     1
290
     0
176
     1
290
     0
176
     1
290
     0
176
     1
290
     0
176
     1
290
     0
176
     1
290
     0
176
     1
 90
       50
176
     1
 40
0.0
176
     1
 40
1.0
176
     1
 90
        0
176
     1
 62
    18
420
        0
176
     1
 90
       50
176
     1
 90
        3
176
     1
 62
     5
420
      255
176
     1
290
     0
176
     1
 90
       50
176
     1
 90
       50
176
     1
 90
       50
176
     1
290
     0
176
     1
 90
       50
176
     1
 62
   256
176
     0
 40
1.0
176
     0
 90
        2
176
     1
  1
strokes_ogs.tif
176
     1
290
     0
176
     1
 40
1.0
176
     1
 40
1.0
176
     1
  0
VISUALSTYLE
  5
41
102
{ACAD_REACTORS
330
29
102
}
330
29
100
AcDbVisualStyle
  2
EdgeColorOff
 70
    22
177
     3
291
     1
 70
    58
 90
        2
176
     0
 90
        2
176
     0
 90
        0
176
     0
 90
        0
176
     0
 40
0.6
176
     0
 40
30.0
176
     0
 62
     7
420
 16777215
176
     0
 90
        1
176
     0
 90
        4
176
     0
 62
     7
176
     0
 62
   257
176
     0
 90
        1
176
     0
 90
        1
176
     0
 40
1.0
176
     0
 90
        8
176
     2
 62
     7
176
     0
 40
1.0
176
     0
 90
        1
176
     0
 90
        6
176
     0
 90
        2
176
     0
 62
     7
176
     0
 90
        5
176
     0
 90
        0
176
     0
 90
        0
176
     0
290
     0
176
     0
 90
        1
176
     0
 40
0.0
176
     0
 90
        0
176
     0
290
     0
176
     0
290
     1
176
     0
290
     1
176
     0
290
     0
176
     0
290
     0
176
     0
290
     0
176
     0
290
     0
176
     0
290
     0
176
     0
290
     0
176
     0
 90
       50
176
     0
 40
0.0
176
     0
 40
1.0
176
     0
 90
        0
176
     0
 62
    18
420
        0
176
     0
 90
       50
176
     0
 90
        3
176
     0
 62
     5
420
      255
176
     0
290
     0
176
     0
 90
       50
176
     0
 90
       50
176
     0
 90
       50
176
     0
290
     0
176
     0
 90
       50
176
     0
 62
   256
176
     0
 40
1.0
176
     0
 90
        2
176
     0
  1
strokes_ogs.tif
176
     0
290
     0
176
     0
 40
1.0
176
     0
 40
1.0
176
     0
  0
VISUALSTYLE
  5
38
102
{ACAD_REACTORS
330
29
102
}
330
29
100
AcDbVisualStyle
  2
Facepattern
 70
    15
177
     3
291
     1
 70
    58
 90
        2
176
     1
 90
        2
176
     1
 90
        0
176
     1
 90
        0
176
     1
 40
0.6
176
     1
 40
30.0
176
     1
 62
     7
420
 16777215
176
     1
 90
        1
176
     1
 90
        4
176
     1
 62
     7
176
     1
 62
   257
176
     1
 90
        1
176
     1
 90
        1
176
     1
 40
1.0
176
     1
 90
        8
176
     1
 62
     7
176
     1
 40
1.0
176
     1
 90
        1
176
     1
 90
        6
176
     1
 90
        2
176
     1
 62
     7
176
     1
 90
        5
176
     1
 90
        0
176
     1
 90
        0
176
     1
290
     0
176
     1
 90
        1
176
     1
 40
0.0
176
     1
 90
        0
176
     1
290
     0
176
     1
290
     1
176
     1
290
     1
176
     1
290
     0
176
     1
290
     0
176
     1
290
     0
176
     1
290
     0
176
     1
290
     0
176
     1
290
     0
176
     1
 90
       50
176
     1
 40
0.0
176
     1
 40
1.0
176
     1
 90
        0
176
     1
 62
    18
420
        0
176
     1
 90
       50
176
     1
 90
        3
176
     1
 62
     5
420
      255
176
     1
290
     0
176
     1
 90
       50
176
     1
 90
       50
176
     1
 90
       50
176
     1
290
     0
176
     1
 90
       50
176
     1
 62
   256
176
     0
 40
1.0
176
     0
 90
        2
176
     1
  1
strokes_ogs.tif
176
     1
290
     0
176
     1
 40
1.0
176
     1
 40
1.0
176
     1
  0
VISUALSTYLE
  5
2A
102
{ACAD_REACTORS
330
29
102
}
330
29
100
AcDbVisualStyle
  2
Flat
 70
     0
177
     3
291
     1
 70
    58
 90
        2
176
     1
 90
        1
176
     1
 90
        1
176
     1
 90
        2
176
     1
 40
0.6
176
     1
 40
30.0
176
     1
 62
     7
420
 16777215
176
     1
 90
        0
176
     1
 90
        0
176
     1
 62
     7
176
     1
 62
   257
176
     1
 90
        1
176
     1
 90
        1
176
     1
 40
1.0
176
     1
 90
        8
176
     1
 62
     7
176
     1
 40
1.0
176
     1
 90
        1
176
     1
 90
        6
176
     1
 90
        2
176
     1
 62
     7
176
     1
 90
        5
176
     1
 90
        0
176
     1
 90
        0
176
     1
290
     0
176
     1
 90
       13
176
     1
 40
0.0
176
     1
 90
        0
176
     1
290
     0
176
     1
290
     1
176
     1
290
     1
176
     1
290
     0
176
     1
290
     0
176
     1
290
     0
176
     1
290
     0
176
     1
290
     0
176
     1
290
     0
176
     1
 90
       50
176
     1
 40
0.0
176
     1
 40
1.0
176
     1
 90
        0
176
     1
 62
    18
420
        0
176
     1
 90
       50
176
     1
 90
        3
176
     1
 62
     5
420
      255
176
     1
290
     0
176
     1
 90
       50
176
     1
 90
       50
176
     1
 90
       50
176
     1
290
     0
176
     1
 90
       50
176
     1
 62
   256
176
     0
 40
1.0
176
     0
 90
        2
176
     1
  1
strokes_ogs.tif
176
     1
290
     0
176
     1
 40
1.0
176
     1
 40
1.0
176
     1
  0
VISUALSTYLE
  5
2B
102
{ACAD_REACTORS
330
29
102
}
330
29
100
AcDbVisualStyle
  2
FlatWithEdges
 70
     1
177
     3
291
     1
 70
    58
 90
        2
176
     1
 90
        1
176
     1
 90
        1
176
     1
 90
        2
176
     1
 40
0.6
176
     1
 40
30.0
176
     1
 62
     7
420
 16777215
176
     1
 90
        1
176
     1
 90
        0
176
     1
 62
     7
176
     1
 62
   257
176
     1
 90
        1
176
     1
 90
        1
176
     1
 40
1.0
176
     1
 90
        0
176
     1
 62
   257
176
     1
 40
1.0
176
     1
 90
        1
176
     1
 90
        6
176
     1
 90
        2
176
     1
 62
     7
176
     1
 90
        5
176
     1
 90
        0
176
     1
 90
        0
176
     1
290
     0
176
     1
 90
       13
176
     1
 40
0.0
176
     1
 90
        0
176
     1
290
     0
176
     1
290
     1
176
     1
290
     1
176
     1
290
     0
176
     1
290
     0
176
     1
290
     0
176
     1
290
     0
176
     1
290
     0
176
     1
290
     0
176
     1
 90
       50
176
     1
 40
0.0
176
     1
 40
1.0
176
     1
 90
        0
176
     1
 62
    18
420
        0
176
     1
 90
       50
176
     1
 90
        3
176
     1
 62
     5
420
      255
176
     1
290
     0
176
     1
 90
       50
176
     1
 90
       50
176
     1
 90
       50
176
     1
290
     0
176
     1
 90
       50
176
     1
 62
   256
176
     0
 40
1.0
176
     0
 90
        2
176
     1
  1
strokes_ogs.tif
176
     1
290
     0
176
     1
 40
1.0
176
     1
 40
1.0
176
     1
  0
VISUALSTYLE
  5
2C
102
{ACAD_REACTORS
330
29
102
}
330
29
100
AcDbVisualStyle
  2
Gouraud
 70
     2
177
     3
291
     1
 70
    58
 90
        2
176
     1
 90
        2
176
     1
 90
        1
176
     1
 90
        2
176
     1
 40
0.6
176
     1
 40
30.0
176
     1
 62
     7
420
 16777215
176
     1
 90
        0
176
     1
 90
        0
176
     1
 62
     7
176
     1
 62
   257
176
     1
 90
        1
176
     1
 90
        1
176
     1
 40
1.0
176
     1
 90
        0
176
     1
 62
     7
176
     1
 40
1.0
176
     1
 90
        1
176
     1
 90
        6
176
     1
 90
        2
176
     1
 62
     7
176
     1
 90
        5
176
     1
 90
        0
176
     1
 90
        0
176
     1
290
     0
176
     1
 90
       13
176
     1
 40
0.0
176
     1
 90
        0
176
     1
290
     0
176
     1
290
     1
176
     1
290
     1
176
     1
290
     0
176
     1
290
     0
176
     1
290
     0
176
     1
290
     0
176
     1
290
     0
176
     1
290
     0
176
     1
 90
       50
176
     1
 40
0.0
176
     1
 40
1.0
176
     1
 90
        0
176
     1
 62
    18
420
        0
176
     1
 90
       50
176
     1
 90
        3
176
     1
 62
     5
420
      255
176
     1
290
     0
176
     1
 90
       50
176
     1
 90
       50
176
     1
 90
       50
176
     1
290
     0
176
     1
 90
       50
176
     1
 62
   256
176
     0
 40
1.0
176
     0
 90
        2
176
     1
  1
strokes_ogs.tif
176
     1
290
     0
176
     1
 40
1.0
176
     1
 40
1.0
176
     1
  0
VISUALSTYLE
  5
2D
102
{ACAD_REACTORS
330
29
102
}
330
29
100
AcDbVisualStyle
  2
GouraudWithEdges
 70
     3
177
     3
291
     1
 70
    58
 90
        2
176
     1
 90
        2
176
     1
 90
        1
176
     1
 90
        2
176
     1
 40
0.6
176
     1
 40
30.0
176
     1
 62
     7
420
 16777215
176
     1
 90
        1
176
     1
 90
        0
176
     1
 62
     7
176
     1
 62
   257
176
     1
 90
        1
176
     1
 90
        1
176
     1
 40
1.0
176
     1
 90
        0
176
     1
 62
   257
176
     1
 40
1.0
176
     1
 90
        1
176
     1
 90
        6
176
     1
 90
        2
176
     1
 62
     7
176
     1
 90
        5
176
     1
 90
        0
176
     1
 90
        0
176
     1
290
     0
176
     1
 90
       13
176
     1
 40
0.0
176
     1
 90
        0
176
     1
290
     0
176
     1
290
     1
176
     1
290
     1
176
     1
290
     0
176
     1
290
     0
176
     1
290
     0
176
     1
290
     0
176
     1
290
     0
176
     1
290
     0
176
     1
 90
       50
176
     1
 40
0.0
176
     1
 40
1.0
176
     1
 90
        0
176
     1
 62
    18
420
        0
176
     1
 90
       50
176
     1
 90
        3
176
     1
 62
     5
420
      255
176
     1
290
     0
176
     1
 90
       50
176
     1
 90
       50
176
     1
 90
       50
176
     1
290
     0
176
     1
 90
       50
176
     1
 62
   256
176
     0
 40
1.0
176
     0
 90
        2
176
     1
  1
strokes_ogs.tif
176
     1
290
     0
176
     1
 40
1.0
176
     1
 40
1.0
176
     1
  0
VISUALSTYLE
  5
31
102
{ACAD_REACTORS
330
29
102
}
330
29
100
AcDbVisualStyle
  2
Hidden
 70
     6
177
     3
291
     0
 70
    58
 90
        1
176
     1
 90
        2
176
     1
 90
        2
176
     1
 90
        0
176
     1
 40
0.6
176
     1
 40
30.0
176
     1
 62
     7
420
 16777215
176
     1
 90
        2
176
     1
 90
        2
176
     1
 62
     7
176
     1
 62
   257
176
     1
 90
        2
176
     1
 90
        1
176
     1
 40
40.0
176
     1
 90
        0
176
     1
 62
   257
176
     1
 40
1.0
176
     1
 90
        1
176
     1
 90
        6
176
     1
 90
        2
176
     1
 62
     7
176
     1
 90
        3
176
     1
 90
        0
176
     1
 90
        0
176
     1
290
     0
176
     1
 90
        1
176
     1
 40
0.0
176
     1
 90
        0
176
     1
290
     0
176
     1
290
     1
176
     1
290
     1
176
     1
290
     0
176
     1
290
     0
176
     1
290
     0
176
     1
290
     0
176
     1
290
     0
176
     1
290
     0
176
     1
 90
       50
176
     1
 40
0.0
176
     1
 40
1.0
176
     1
 90
        0
176
     1
 62
    18
420
        0
176
     1
 90
       50
176
     1
 90
        3
176
     1
 62
     5
420
      255
176
     1
290
     0
176
     1
 90
       50
176
     1
 90
       50
176
     1
 90
       50
176
     1
290
     0
176
     1
 90
       50
176
     1
 62
   256
176
     0
 40
1.0
176
     0
 90
        2
176
     1
  1
strokes_ogs.tif
176
     1
290
     0
176
     1
 40
1.0
176
     1
 40
1.0
176
     1
  0
VISUALSTYLE
  5
3F
102
{ACAD_REACTORS
330
29
102
}
330
29
100
AcDbVisualStyle
  2
JitterOff
 70
    20
177
     3
291
     1
 70
    58
 90
        2
176
     0
 90
        2
176
     0
 90
        0
176
     0
 90
        0
176
     0
 40
0.6
176
     0
 40
30.0
176
     0
 62
     7
420
 16777215
176
     0
 90
        1
176
     0
 90
        4
176
     0
 62
     7
176
     0
 62
   257
176
     0
 90
        1
176
     0
 90
        1
176
     0
 40
1.0
176
     0
 90
       10
176
     2
 62
     7
176
     0
 40
1.0
176
     0
 90
        1
176
     0
 90
        6
176
     0
 90
        2
176
     0
 62
     7
176
     0
 90
        5
176
     0
 90
        0
176
     0
 90
        0
176
     0
290
     0
176
     0
 90
        1
176
     0
 40
0.0
176
     0
 90
        0
176
     0
290
     0
176
     0
290
     1
176
     0
290
     1
176
     0
290
     0
176
     0
290
     0
176
     0
290
     0
176
     0
290
     0
176
     0
290
     0
176
     0
290
     0
176
     0
 90
       50
176
     0
 40
0.0
176
     0
 40
1.0
176
     0
 90
        0
176
     0
 62
    18
420
        0
176
     0
 90
       50
176
     0
 90
        3
176
     0
 62
     5
420
      255
176
     0
290
     0
176
     0
 90
       50
176
     0
 90
       50
176
     0
 90
       50
176
     0
290
     0
176
     0
 90
       50
176
     0
 62
   256
176
     0
 40
1.0
176
     0
 90
        2
176
     0
  1
strokes_ogs.tif
176
     0
290
     0
176
     0
 40
1.0
176
     0
 40
1.0
176
     0
  0
VISUALSTYLE
  5
37
102
{ACAD_REACTORS
330
29
102
}
330
29
100
AcDbVisualStyle
  2
Linepattern
 70
    14
177
     3
291
     1
 70
    58
 90
        2
176
     1
 90
        2
176
     1
 90
        0
176
     1
 90
        0
176
     1
 40
0.6
176
     1
 40
30.0
176
     1
 62
     7
420
 16777215
176
     1
 90
        1
176
     1
 90
        4
176
     1
 62
     7
176
     1
 62
   257
176
     1
 90
        7
176
     1
 90
        7
176
     1
 40
1.0
176
     1
 90
        8
176
     1
 62
     7
176
     1
 40
1.0
176
     1
 90
        1
176
     1
 90
        6
176
     1
 90
        2
176
     1
 62
     7
176
     1
 90
        5
176
     1
 90
        0
176
     1
 90
        0
176
     1
290
     0
176
     1
 90
        1
176
     1
 40
0.0
176
     1
 90
        0
176
     1
290
     0
176
     1
290
     1
176
     1
290
     1
176
     1
290
     0
176
     1
290
     0
176
     1
290
     0
176
     1
290
     0
176
     1
290
     0
176
     1
290
     0
176
     1
 90
       50
176
     1
 40
0.0
176
     1
 40
1.0
176
     1
 90
        0
176
     1
 62
    18
420
        0
176
     1
 90
       50
176
     1
 90
        3
176
     1
 62
     5
420
      255
176
     1
290
     0
176
     1
 90
       50
176
     1
 90
       50
176
     1
 90
       50
176
     1
290
     0
176
     1
 90
       50
176
     1
 62
   256
176
     0
 40
1.0
176
     0
 90
        2
176
     1
  1
strokes_ogs.tif
176
     1
290
     0
176
     1
 40
1.0
176
     1
 40
1.0
176
     1
  0
VISUALSTYLE
  5
40
102
{ACAD_REACTORS
330
29
102
}
330
29
100
AcDbVisualStyle
  2
OverhangOff
 70
    21
177
     3
291
     1
 70
    58
 90
        2
176
     0
 90
        2
176
     0
 90
        0
176
     0
 90
        0
176
     0
 40
0.6
176
     0
 40
30.0
176
     0
 62
     7
420
 16777215
176
     0
 90
        1
176
     0
 90
        4
176
     0
 62
     7
176
     0
 62
   257
176
     0
 90
        1
176
     0
 90
        1
176
     0
 40
1.0
176
     0
 90
        9
176
     2
 62
     7
176
     0
 40
1.0
176
     0
 90
        1
176
     0
 90
        6
176
     0
 90
        2
176
     0
 62
     7
176
     0
 90
        5
176
     0
 90
        0
176
     0
 90
        0
176
     0
290
     0
176
     0
 90
        1
176
     0
 40
0.0
176
     0
 90
        0
176
     0
290
     0
176
     0
290
     1
176
     0
290
     1
176
     0
290
     0
176
     0
290
     0
176
     0
290
     0
176
     0
290
     0
176
     0
290
     0
176
     0
290
     0
176
     0
 90
       50
176
     0
 40
0.0
176
     0
 40
1.0
176
     0
 90
        0
176
     0
 62
    18
420
        0
176
     0
 90
       50
176
     0
 90
        3
176
     0
 62
     5
420
      255
176
     0
290
     0
176
     0
 90
       50
176
     0
 90
       50
176
     0
 90
       50
176
     0
290
     0
176
     0
 90
       50
176
     0
 62
   256
176
     0
 40
1.0
176
     0
 90
        2
176
     0
  1
strokes_ogs.tif
176
     0
290
     0
176
     0
 40
1.0
176
     0
 40
1.0
176
     0
  0
VISUALSTYLE
  5
33
102
{ACAD_REACTORS
330
29
102
}
330
29
100
AcDbVisualStyle
  2
Realistic
 70
     8
177
     3
291
     0
 70
    58
 90
        2
176
     1
 90
        3
176
     1
 90
        0
176
     1
 90
        2
176
     1
 40
0.6
176
     1
 40
30.0
176
     1
 62
     7
420
 16777215
176
     1
 90
        0
176
     1
 90
        0
176
     1
 62
     7
176
     1
 62
   257
176
     1
 90
        1
176
     1
 90
        1
176
     1
 40
1.0
176
     1
 90
        8
176
     1
 62
   257
176
     1
 40
1.0
176
     1
 90
        1
176
     1
 90
        6
176
     1
 90
        2
176
     1
 62
     7
176
     1
 90
        3
176
     1
 90
        0
176
     1
 90
        0
176
     1
290
     0
176
     1
 90
       13
176
     1
 40
0.0
176
     1
 90
        0
176
     1
290
     0
176
     1
290
     1
176
     1
290
     1
176
     1
290
     0
176
     1
290
     0
176
     1
290
     0
176
     1
290
     0
176
     1
290
     0
176
     1
290
     0
176
     1
 90
       50
176
     1
 40
0.0
176
     1
 40
1.0
176
     1
 90
        0
176
     1
 62
    18
420
        0
176
     1
 90
       50
176
     1
 90
        3
176
     1
 62
     5
420
      255
176
     1
290
     0
176
     1
 90
       50
176
     1
 90
       50
176
     1
 90
       50
176
     1
290
     0
176
     1
 90
       50
176
     1
 62
   256
176
     0
 40
1.0
176
     0
 90
        2
176
     1
  1
strokes_ogs.tif
176
     1
290
     0
176
     1
 40
1.0
176
     1
 40
1.0
176
     1
  0
VISUALSTYLE
  5
3E
102
{ACAD_REACTORS
330
29
102
}
330
29
100
AcDbVisualStyle
  2
Shaded
 70
    27
177
     3
291
     0
 70
    58
 90
        2
176
     1
 90
        2
176
     1
 90
        1
176
     1
 90
        2
176
     1
 40
0.6
176
     1
 40
30.0
176
     1
 62
     7
420
 16777215
176
     1
 90
        0
176
     1
 90
        4
176
     1
 62
     7
176
     1
 62
   257
176
     1
 90
        1
176
     1
 90
        1
176
     1
 40
1.0
176
     1
 90
        8
176
     1
 62
   257
176
     1
 40
1.0
176
     1
 90
        1
176
     1
 90
        6
176
     1
 90
        2
176
     1
 62
     8
420
  7895160
176
     1
 90
        3
176
     1
 90
        0
176
     1
 90
        0
176
     1
290
     0
176
     1
 90
        5
176
     1
 40
0.0
176
     1
 90
        0
176
     1
290
     0
176
     1
290
     1
176
     1
290
     1
176
     1
290
     0
176
     1
290
     0
176
     1
290
     0
176
     1
290
     0
176
     1
290
     0
176
     1
290
     0
176
     1
 90
       50
176
     1
 40
0.0
176
     1
 40
1.0
176
     1
 90
        0
176
     1
 62
    18
420
        0
176
     1
 90
       50
176
     1
 90
        3
176
     1
 62
     5
420
      255
176
     1
290
     0
176
     1
 90
       50
176
     1
 90
       50
176
     1
 90
       50
176
     1
290
     0
176
     1
 90
       50
176
     1
 62
   256
176
     0
 40
1.0
176
     0
 90
        2
176
     1
  1
strokes_ogs.tif
176
     1
290
     0
176
     1
 40
1.0
176
     1
 40
1.0
176
     1
  0
VISUALSTYLE
  5
3D
102
{ACAD_REACTORS
330
29
102
}
330
29
100
AcDbVisualStyle
  2
Shaded with edges
 70
    26
177
     3
291
     0
 70
    58
 90
        2
176
     1
 90
        2
176
     1
 90
        1
176
     1
 90
        2
176
     1
 40
0.6
176
     1
 40
30.0
176
     1
 62
     7
420
 16777215
176
     1
 90
        1
176
     1
 90
        2
176
     1
 62
     7
176
     1
 62
   257
176
     1
 90
        2
176
     1
 90
        1
176
     1
 40
1.0
176
     1
 90
        8
176
     1
 62
   257
176
     1
 40
1.0
176
     1
 90
        1
176
     1
 90
        6
176
     1
 90
        2
176
     1
 62
     7
176
     1
 90
        3
176
     1
 90
        0
176
     1
 90
        0
176
     1
290
     0
176
     1
 90
        5
176
     1
 40
0.0
176
     1
 90
        0
176
     1
290
     0
176
     1
290
     1
176
     1
290
     1
176
     1
290
     0
176
     1
290
     0
176
     1
290
     0
176
     1
290
     0
176
     1
290
     0
176
     1
290
     0
176
     1
 90
       50
176
     1
 40
0.0
176
     1
 40
1.0
176
     1
 90
        0
176
     1
 62
    18
420
        0
176
     1
 90
       50
176
     1
 90
        3
176
     1
 62
     5
420
      255
176
     1
290
     0
176
     1
 90
       50
176
     1
 90
       50
176
     1
 90
       50
176
     1
290
     0
176
     1
 90
       50
176
     1
 62
   256
176
     0
 40
1.0
176
     0
 90
        2
176
     1
  1
strokes_ogs.tif
176
     1
290
     0
176
     1
 40
1.0
176
     1
 40
1.0
176
     1
  0
VISUALSTYLE
  5
3A
102
{ACAD_REACTORS
330
29
102
}
330
29
100
AcDbVisualStyle
  2
Shades of Gray
 70
    23
177
     3
291
     0
 70
    58
 90
        2
176
     1
 90
        2
176
     1
 90
        3
176
     1
 90
        0
176
     1
 40
0.6
176
     1
 40
30.0
176
     1
 62
     7
420
 16777215
176
     1
 90
        2
176
     1
 90
        2
176
     1
 62
     7
176
     1
 62
     7
176
     1
 90
        1
176
     1
 90
        1
176
     1
 40
40.0
176
     1
 90
        8
176
     1
 62
     7
176
     1
 40
1.0
176
     1
 90
        1
176
     1
 90
        6
176
     1
 90
        2
176
     1
 62
     7
176
     1
 90
        3
176
     1
 90
        0
176
     1
 90
        0
176
     1
290
     0
176
     1
 90
        1
176
     1
 40
0.0
176
     1
 90
        0
176
     1
290
     0
176
     1
290
     1
176
     1
290
     1
176
     1
290
     0
176
     1
290
     0
176
     1
290
     0
176
     1
290
     0
176
     1
290
     0
176
     1
290
     0
176
     1
 90
       50
176
     1
 40
0.0
176
     1
 40
1.0
176
     1
 90
        0
176
     1
 62
    18
420
        0
176
     1
 90
       50
176
     1
 90
        3
176
     1
 62
     5
420
      255
176
     1
290
     0
176
     1
 90
       50
176
     1
 90
       50
176
     1
 90
       50
176
     1
290
     0
176
     1
 90
       50
176
     1
 62
   256
176
     0
 40
1.0
176
     0
 90
        2
176
     1
  1
strokes_ogs.tif
176
     1
290
     0
176
     1
 40
1.0
176
     1
 40
1.0
176
     1
  0
VISUALSTYLE
  5
3B
102
{ACAD_REACTORS
330
29
102
}
330
29
100
AcDbVisualStyle
  2
Sketchy
 70
    24
177
     3
291
     0
 70
    58
 90
        1
176
     1
 90
        2
176
     1
 90
        2
176
     1
 90
        0
176
     1
 40
0.6
176
     1
 40
30.0
176
     1
 62
     7
420
 16777215
176
     1
 90
        2
176
     1
 90
        2
176
     1
 62
     7
176
     1
 62
     7
176
     1
 90
        1
176
     1
 90
        1
176
     1
 40
40.0
176
     1
 90
       11
176
     1
 62
     7
176
     1
 40
1.0
176
     1
 90
        1
176
     1
 90
        6
176
     1
 90
        2
176
     1
 62
     7
176
     1
 90
        6
176
     1
 90
        0
176
     1
 90
        0
176
     1
290
     0
176
     1
 90
        1
176
     1
 40
0.0
176
     1
 90
        0
176
     1
290
     0
176
     1
290
     1
176
     1
290
     1
176
     1
290
     0
176
     1
290
     0
176
     1
290
     0
176
     1
290
     0
176
     1
290
     0
176
     1
290
     0
176
     1
 90
       50
176
     1
 40
0.0
176
     1
 40
1.0
176
     1
 90
        0
176
     1
 62
    18
420
        0
176
     1
 90
       50
176
     1
 90
        3
176
     1
 62
     5
420
      255
176
     1
290
     0
176
     1
 90
       50
176
     1
 90
       50
176
     1
 90
       50
176
     1
290
     0
176
     1
 90
       50
176
     1
 62
   256
176
     0
 40
1.0
176
     0
 90
        2
176
     1
  1
strokes_ogs.tif
176
     1
290
     0
176
     1
 40
1.0
176
     1
 40
1.0
176
     1
  0
VISUALSTYLE
  5
36
102
{ACAD_REACTORS
330
29
102
}
330
29
100
AcDbVisualStyle
  2
Thicken
 70
    13
177
     3
291
     1
 70
    58
 90
        2
176
     1
 90
        2
176
     1
 90
        0
176
     1
 90
        0
176
     1
 40
0.6
176
     1
 40
30.0
176
     1
 62
     7
420
 16777215
176
     1
 90
        1
176
     1
 90
        4
176
     1
 62
     7
176
     1
 62
   257
176
     1
 90
        1
176
     1
 90
        1
176
     1
 40
1.0
176
     1
 90
       12
176
     1
 62
     7
176
     1
 40
1.0
176
     1
 90
        1
176
     1
 90
        6
176
     1
 90
        2
176
     1
 62
     7
176
     1
 90
        5
176
     1
 90
        0
176
     1
 90
        0
176
     1
290
     0
176
     1
 90
        1
176
     1
 40
0.0
176
     1
 90
        0
176
     1
290
     0
176
     1
290
     1
176
     1
290
     1
176
     1
290
     0
176
     1
290
     0
176
     1
290
     0
176
     1
290
     0
176
     1
290
     0
176
     1
290
     0
176
     1
 90
       50
176
     1
 40
0.0
176
     1
 40
1.0
176
     1
 90
        0
176
     1
 62
    18
420
        0
176
     1
 90
       50
176
     1
 90
        3
176
     1
 62
     5
420
      255
176
     1
290
     0
176
     1
 90
       50
176
     1
 90
       50
176
     1
 90
       50
176
     1
290
     0
176
     1
 90
       50
176
     1
 62
   256
176
     0
 40
1.0
176
     0
 90
        2
176
     1
  1
strokes_ogs.tif
176
     1
290
     0
176
     1
 40
1.0
176
     1
 40
1.0
176
     1
  0
VISUALSTYLE
  5
30
102
{ACAD_REACTORS
330
29
102
}
330
29
100
AcDbVisualStyle
  2
Wireframe
 70
     5
177
     3
291
     0
 70
    58
 90
        0
176
     1
 90
        2
176
     1
 90
        0
176
     1
 90
        0
176
     1
 40
0.6
176
     1
 40
30.0
176
     1
 62
     7
420
 16777215
176
     1
 90
        1
176
     1
 90
        4
176
     1
 62
     7
176
     1
 62
   257
176
     1
 90
        1
176
     1
 90
        1
176
     1
 40
1.0
176
     1
 90
        0
176
     1
 62
   257
176
     1
 40
1.0
176
     1
 90
        1
176
     1
 90
        6
176
     1
 90
        2
176
     1
 62
     7
176
     1
 90
        3
176
     1
 90
        0
176
     1
 90
        0
176
     1
290
     0
176
     1
 90
        1
176
     1
 40
0.0
176
     1
 90
        0
176
     1
290
     0
176
     1
290
     1
176
     1
290
     1
176
     1
290
     0
176
     1
290
     0
176
     1
290
     0
176
     1
290
     0
176
     1
290
     0
176
     1
290
     0
176
     1
 90
       50
176
     1
 40
0.0
176
     1
 40
1.0
176
     1
 90
        0
176
     1
 62
    18
420
        0
176
     1
 90
       50
176
     1
 90
        3
176
     1
 62
     5
420
      255
176
     1
290
     0
176
     1
 90
       50
176
     1
 90
       50
176
     1
 90
       50
176
     1
290
     0
176
     1
 90
       50
176
     1
 62
   256
176
     0
 40
1.0
176
     0
 90
        2
176
     1
  1
strokes_ogs.tif
176
     1
290
     0
176
     1
 40
1.0
176
     1
 40
1.0
176
     1
  0
VISUALSTYLE
  5
3C
102
{ACAD_REACTORS
330
29
102
}
330
29
100
AcDbVisualStyle
  2
X-Ray
 70
    25
177
     3
291
     0
 70
    58
 90
        2
176
     1
 90
        2
176
     1
 90
        1
176
     1
 90
        1
176
     1
 40
0.5
176
     1
 40
30.0
176
     1
 62
     7
420
 16777215
176
     1
 90
        1
176
     1
 90
        0
176
     1
 62
     7
176
     1
 62
   257
176
     1
 90
        1
176
     1
 90
        1
176
     1
 40
1.0
176
     1
 90
        8
176
     1
 62
     7
176
     1
 40
1.0
176
     1
 90
        1
176
     1
 90
        6
176
     1
 90
        2
176
     1
 62
     7
176
     1
 90
        3
176
     1
 90
        0
176
     1
 90
        0
176
     1
290
     0
176
     1
 90
       13
176
     1
 40
0.0
176
     1
 90
        0
176
     1
290
     0
176
     1
290
     1
176
     1
290
     1
176
     1
290
     0
176
     1
290
     0
176
     1
290
     0
176
     1
290
     0
176
     1
290
     0
176
     1
290
     0
176
     1
 90
       50
176
     1
 40
0.0
176
     1
 40
1.0
176
     1
 90
        0
176
     1
 62
    18
420
        0
176
     1
 90
       50
176
     1
 90
        3
176
     1
 62
     5
420
      255
176
     1
290
     0
176
     1
 90
       50
176
     1
 90
       50
176
     1
 90
       50
176
     1
290
     0
176
     1
 90
       50
176
     1
 62
   256
176
     0
 40
1.0
176
     0
 90
        2
176
     1
  1
strokes_ogs.tif
176
     1
290
     0
176
     1
 40
1.0
176
     1
 40
1.0
176
     1
  0
DICTIONARYVAR
  5
D8
102
{ACAD_REACTORS
330
D3
102
}
330
D3
100
DictionaryVariables
280
     0
  1
1:1
  0
DICTIONARYVAR
  5
D5
102
{ACAD_REACTORS
330
D3
102
}
330
D3
100
DictionaryVariables
280
     0
  1
STANDARD
  0
DICTIONARYVAR
  5
D4
102
{ACAD_REACTORS
330
D3
102
}
330
D3
100
DictionaryVariables
280
     0
  1
STANDARD
  0
DICTIONARYVAR
  5
D6
102
{ACAD_REACTORS
330
D3
102
}
330
D3
100
DictionaryVariables
280
     0
  1
Imperial24
  0
DICTIONARYVAR
  5
D7
102
{ACAD_REACTORS
330
D3
102
}
330
D3
100
DictionaryVariables
280
     0
  1
Imperial24
  0
DICTIONARY
  5
1A
330
19
100
AcDbDictionary
280
     1
281
     1
  3
BUMPTILE
360
1C
  3
DIFFUSETILE
360
1B
  3
OPACITYTILE
360
1F
  3
REFLECTIONTILE
360
1E
  3
REFRACTIONTILE
360
20
  3
SPECULARTILE
360
1D
  0
DICTIONARY
  5
12
330
11
100
AcDbDictionary
280
     1
281
     1
  3
BUMPTILE
360
14
  3
DIFFUSETILE
360
13
  3
OPACITYTILE
360
17
  3
REFLECTIONTILE
360
16
  3
REFRACTIONTILE
360
18
  3
SPECULARTILE
360
15
  0
DICTIONARY
  5
22
330
21
100
AcDbDictionary
280
     1
281
     1
  3
BUMPTILE
360
24
  3
DIFFUSETILE
360
23
  3
OPACITYTILE
360
27
  3
REFLECTIONTILE
360
26
  3
REFRACTIONTILE
360
28
  3
SPECULARTILE
360
25
  0
DICTIONARY
  5
D9
330
65
100
AcDbDictionary
280
     1
281
     1
  3
ACAD_ROUNDTRIP_2008_TABLESTYLE_CELLSTYLEMAP
360
DA
  0
XRECORD
  5
1C
102
{ACAD_REACTORS
330
1A
102
}
330
1A
100
AcDbXrecord
280
     1
270
     1
271
     1
  0
XRECORD
  5
1B
102
{ACAD_REACTORS
330
1A
102
}
330
1A
100
AcDbXrecord
280
     1
270
     1
271
     1
  0
XRECORD
  5
1F
102
{ACAD_REACTORS
330
1A
102
}
330
1A
100
AcDbXrecord
280
     1
270
     1
271
     1
  0
XRECORD
  5
1E
102
{ACAD_REACTORS
330
1A
102
}
330
1A
100
AcDbXrecord
280
     1
270
     1
271
     1
  0
XRECORD
  5
20
102
{ACAD_REACTORS
330
1A
102
}
330
1A
100
AcDbXrecord
280
     1
270
     1
271
     1
  0
XRECORD
  5
1D
102
{ACAD_REACTORS
330
1A
102
}
330
1A
100
AcDbXrecord
280
     1
270
     1
271
     1
  0
XRECORD
  5
14
102
{ACAD_REACTORS
330
12
102
}
330
12
100
AcDbXrecord
280
     1
270
     1
271
     1
  0
XRECORD
  5
13
102
{ACAD_REACTORS
330
12
102
}
330
12
100
AcDbXrecord
280
     1
270
     1
271
     1
  0
XRECORD
  5
17
102
{ACAD_REACTORS
330
12
102
}
330
12
100
AcDbXrecord
280
     1
270
     1
271
     1
  0
XRECORD
  5
16
102
{ACAD_REACTORS
330
12
102
}
330
12
100
AcDbXrecord
280
     1
270
     1
271
     1
  0
XRECORD
  5
18
102
{ACAD_REACTORS
330
12
102
}
330
12
100
AcDbXrecord
280
     1
270
     1
271
     1
  0
XRECORD
  5
15
102
{ACAD_REACTORS
330
12
102
}
330
12
100
AcDbXrecord
280
     1
270
     1
271
     1
  0
XRECORD
  5
24
102
{ACAD_REACTORS
330
22
102
}
330
22
100
AcDbXrecord
280
     1
270
     1
271
     1
  0
XRECORD
  5
23
102
{ACAD_REACTORS
330
22
102
}
330
22
100
AcDbXrecord
280
     1
270
     1
271
     1
  0
XRECORD
  5
27
102
{ACAD_REACTORS
330
22
102
}
330
22
100
AcDbXrecord
280
     1
270
     1
271
     1
  0
XRECORD
  5
26
102
{ACAD_REACTORS
330
22
102
}
330
22
100
AcDbXrecord
280
     1
270
     1
271
     1
  0
XRECORD
  5
28
102
{ACAD_REACTORS
330
22
102
}
330
22
100
AcDbXrecord
280
     1
270
     1
271
     1
  0
XRECORD
  5
25
102
{ACAD_REACTORS
330
22
102
}
330
22
100
AcDbXrecord
280
     1
270
     1
271
     1
  0
CELLSTYLEMAP
  5
DA
102
{ACAD_REACTORS
330
D9
102
}
330
D9
100
AcDbCellStyleMap
 90
        3
300
CELLSTYLE
  1
TABLEFORMAT_BEGIN
 90
        5
170
     1
 91
        0
 92
    32768
 62
   257
 93
        1
300
CONTENTFORMAT
  1
CONTENTFORMAT_BEGIN
 90
        0
 91
        0
 92
      512
 93
        0
300

 40
0.0
140
1.0
 94
        5
 62
     0
340
55
144
0.25
309
CONTENTFORMAT_END
171
     0
 94
        0
309
TABLEFORMAT_END
  1
CELLSTYLE_BEGIN
 90
        1
 91
        1
300
_TITLE
309
CELLSTYLE_END
300
CELLSTYLE
  1
TABLEFORMAT_BEGIN
 90
        5
170
     1
 91
        0
 92
        0
 62
   257
 93
        1
300
CONTENTFORMAT
  1
CONTENTFORMAT_BEGIN
 90
        0
 91
        0
 92
      512
 93
        0
300

 40
0.0
140
1.0
 94
        5
 62
     0
340
55
144
0.18
309
CONTENTFORMAT_END
171
     0
 94
        0
309
TABLEFORMAT_END
  1
CELLSTYLE_BEGIN
 90
        2
 91
        1
300
_HEADER
309
CELLSTYLE_END
300
CELLSTYLE
  1
TABLEFORMAT_BEGIN
 90
        5
170
     1
 91
        0
 92
        0
 62
   257
 93
        1
300
CONTENTFORMAT
  1
CONTENTFORMAT_BEGIN
 90
        0
 91
        0
 92
      512
 93
        0
300

 40
0.0
140
1.0
 94
        2
 62
     0
340
55
144
0.18
309
CONTENTFORMAT_END
171
     0
 94
        0
309
TABLEFORMAT_END
  1
CELLSTYLE_BEGIN
 90
        3
 91
        2
300
_DATA
309
CELLSTYLE_END
  0
ENDSEC
  0
EOF
