<?xml version="1.0" encoding="UTF-8"?>
<svg id="Layer_1" data-name="Layer 1" xmlns="http://www.w3.org/2000/svg" viewBox="0 0 1751.73 1516.68">
  <defs>
    <style>
      .cls-1 {
        stroke-miterlimit: 11.34;
      }

      .cls-1, .cls-2, .cls-3 {
        fill: none;
        stroke: red;
      }

      .cls-2 {
        stroke-miterlimit: 11.34;
      }

      .cls-3 {
        stroke-linecap: round;
        stroke-linejoin: round;
      }
    </style>
  </defs>
  <g>
    <circle class="cls-3" cx="932.81" cy="1480.18" r="5.94"/>
    <circle class="cls-3" cx="932.81" cy="34.71" r="5.94"/>
    <circle class="cls-3" cx="1324.17" cy="22.82" r="5.94"/>
    <circle class="cls-3" cx="1129.12" cy="22.82" r="5.94"/>
    <circle class="cls-3" cx="1324.17" cy="1492.07" r="5.94"/>
    <circle class="cls-3" cx="1129.12" cy="1492.07" r="5.94"/>
    <circle class="cls-3" cx="920.92" cy="448.25" r="5.94"/>
    <circle class="cls-3" cx="920.92" cy="654.38" r="5.94"/>
    <circle class="cls-3" cx="920.92" cy="448.25" r="5.94"/>
    <circle class="cls-3" cx="911.91" cy="242.11" r="5.94"/>
    <circle class="cls-3" cx="920.92" cy="654.38" r="5.94"/>
    <circle class="cls-3" cx="911.92" cy="242.11" r="5.94"/>
    <circle class="cls-3" cx="920.92" cy="860.51" r="5.94"/>
    <circle class="cls-3" cx="911.91" cy="1272.78" r="5.94"/>
    <circle class="cls-3" cx="920.92" cy="1066.64" r="5.94"/>
    <circle class="cls-3" cx="1715.52" cy="1480.18" r="5.94"/>
    <circle class="cls-3" cx="1715.52" cy="34.71" r="5.94"/>
    <circle class="cls-3" cx="1519.21" cy="22.82" r="5.94"/>
    <circle class="cls-3" cx="1519.21" cy="1492.07" r="5.94"/>
    <circle class="cls-3" cx="1727.41" cy="860.51" r="5.94"/>
    <circle class="cls-3" cx="1736.42" cy="1272.78" r="5.94"/>
    <circle class="cls-3" cx="1727.41" cy="1066.64" r="5.94"/>
    <circle class="cls-3" cx="1727.41" cy="654.38" r="5.94"/>
    <circle class="cls-3" cx="1727.41" cy="448.25" r="5.94"/>
    <circle class="cls-3" cx="1736.42" cy="242.11" r="5.94"/>
    <path class="cls-3" d="M897.1,76.17s0,.04,0,.06"/>
    <line class="cls-3" x1="972.83" y1="1516.18" x2="1675.51" y2="1516.18"/>
    <line class="cls-3" x1="1751.23" y1="1440.45" x2="1751.23" y2="76.23"/>
    <line class="cls-3" x1="897.1" y1="1440.45" x2="897.1" y2="76.23"/>
    <path class="cls-3" d="M897.1,1440.51c.13,3.35.27,6.7.68,10.03.41,3.31,1.09,6.6,1.98,9.83,1.13,4.09,2.58,8.09,4.36,11.94,1.78,3.85,3.88,7.55,6.28,11.04,2.4,3.5,5.11,6.8,8.06,9.85s6.17,5.85,9.59,8.36,7.12,4.76,10.95,6.67,7.82,3.49,11.91,4.74c3.53,1.08,7.15,1.91,10.8,2.41,3.66.5,7.36.66,11.06.82"/>
    <path class="cls-3" d="M1675.56,1516.18c3.35-.13,6.7-.27,10.03-.68,3.31-.41,6.6-1.09,9.83-1.98,4.09-1.13,8.09-2.58,11.94-4.36,3.85-1.78,7.55-3.88,11.04-6.28,3.5-2.4,6.8-5.11,9.85-8.06,3.05-2.96,5.85-6.17,8.36-9.59,2.53-3.45,4.76-7.12,6.67-10.95,1.91-3.83,3.49-7.82,4.74-11.91,1.08-3.53,1.91-7.15,2.41-10.8.5-3.66.66-7.36.82-11.06"/>
    <line class="cls-3" x1="972.83" y1=".5" x2="1675.51" y2=".5"/>
    <path class="cls-3" d="M897.1,76.17c.13-3.35.27-6.7.68-10.03.41-3.31,1.09-6.6,1.98-9.83,1.13-4.09,2.58-8.09,4.36-11.94s3.88-7.55,6.28-11.04c2.4-3.5,5.11-6.8,8.06-9.85,2.96-3.05,6.17-5.85,9.59-8.36,3.45-2.53,7.12-4.76,10.95-6.67,3.83-1.91,7.82-3.49,11.91-4.74,3.53-1.08,7.15-1.91,10.8-2.41s7.36-.66,11.06-.82"/>
    <path class="cls-3" d="M1675.56.5c3.35.13,6.7.27,10.03.68,3.31.41,6.6,1.09,9.83,1.98,4.09,1.13,8.09,2.58,11.94,4.36s7.55,3.88,11.04,6.28c3.5,2.4,6.8,5.11,9.85,8.06s5.85,6.17,8.36,9.59c2.53,3.45,4.76,7.12,6.67,10.95,1.91,3.83,3.49,7.82,4.74,11.91,1.08,3.53,1.91,7.15,2.41,10.8.5,3.66.66,7.36.82,11.06"/>
    <line class="cls-3" x1="1741.28" y1="1272.78" x2="1742.36" y2="1272.78"/>
    <path class="cls-3" d="M1675.56.5s-.04,0-.06,0"/>
    <path class="cls-3" d="M1675.51,1516.18s.04,0,.06,0"/>
    <path class="cls-3" d="M1751.23,1440.51s0-.04,0-.06"/>
    <path class="cls-3" d="M1751.23,76.23s0-.04,0-.06"/>
    <polyline class="cls-3" points="1072.33 1370.34 1000.17 1370.34 1000.17 758.34"/>
    <polyline class="cls-3" points="1648.17 758.34 1648.17 1370.34 1072.33 1370.34"/>
    <polyline class="cls-3" points="1000.17 146.25 1648.17 146.25 1648.17 758.25"/>
    <line class="cls-3" x1="1000.17" y1="758.25" x2="1000.17" y2="146.25"/>
  </g>
  <circle class="cls-2" cx="1182.43" cy="59.79" r="7.09"/>
  <circle class="cls-2" cx="1465.9" cy="59.79" r="7.09"/>
  <circle class="cls-2" cx="1182.44" cy="99.47" r="7.09"/>
  <circle class="cls-2" cx="1465.9" cy="99.47" r="7.09"/>
  <g>
    <circle class="cls-2" cx="1182.43" cy="1417.11" r="7.09"/>
    <circle class="cls-2" cx="1465.9" cy="1417.11" r="7.09"/>
    <circle class="cls-2" cx="1182.43" cy="1456.79" r="7.09"/>
    <circle class="cls-2" cx="1465.9" cy="1456.79" r="7.09"/>
  </g>
  <rect class="cls-2" x="96.28" y="331.34" width="208.8" height="144" rx="17.86" ry="17.86" transform="translate(-202.66 604.01) rotate(-90)"/>
  <circle class="cls-2" cx="299.68" cy="556.34" r="4.5"/>
  <circle class="cls-2" cx="299.68" cy="250.34" r="4.5"/>
  <circle class="cls-2" cx="101.68" cy="556.34" r="4.5"/>
  <circle class="cls-2" cx="101.68" cy="250.34" r="4.5"/>
  <circle class="cls-2" cx="207.76" cy="814.86" r="7.09"/>
  <circle class="cls-2" cx="207.76" cy="1240.06" r="7.09"/>
  <circle class="cls-2" cx="689.65" cy="814.86" r="7.09"/>
  <circle class="cls-2" cx="689.65" cy="1240.06" r="7.09"/>
  <path class="cls-1" d="M9.59,472.78s.05,0,.07,0"/>
  <path class="cls-1" d="M.58,302.7c0,5.94,0,11.66,0,16.96.02.13.18.89.2,1.01.47.61.97,1.56,1.58,2.05.22-.08,1.6.57,1.83.54.53,0,1.27,0,1.8,0,2.32.24,3.12,1.5,3.6,3.6,0,1.37,0,2.79,0,4.19.03,0,.05,0,.08,0"/>
  <path class="cls-1" d="M790.46,507.74c-11.74,0-21.26-9.52-21.26-21.26,0-11.74,9.52-21.26,21.26-21.26"/>
  <polyline class="cls-2" points="790.46 352.94 760.18 352.94 760.18 453.74 790.46 453.74"/>
  <circle class="cls-2" cx="746.37" cy="403.34" r="7.09"/>
  <circle class="cls-2" cx="695.34" cy="403.34" r="7.09"/>
  <path class="cls-1" d="M790.46,565.41c-11.74,0-21.26-9.52-21.26-21.26,0-11.74,9.52-21.26,21.26-21.26"/>
  <path class="cls-1" d="M799.48,332.77c-11.74,0-21.26-9.52-21.26-21.26,0-11.74,9.52-21.26,21.26-21.26"/>
  <path class="cls-1" d="M790.45,507.74c0,5.05,0,10.1,0,15.16"/>
  <path class="cls-1" d="M790.45,453.74c0,3.83,0,7.65,0,11.48"/>
  <path class="cls-1" d="M799.42,332.77c-.02,3.2-.04,6.25-.07,9.1-.18.32-.15.87-.39,1.13-.68.94-1.97,1.76-3.11,1.94-1.13-.05-2.49,0-3.54.5-.3.28-.98.86-1.27,1.15-.48,1.04-.71,3.05-.6,4.19,0,.71,0,1.43,0,2.15"/>
  <path class="cls-1" d="M.66,302.7c-.02-49.04-.09-156.87-.08-206.02-.31-10.15.18-21.58,2.81-31.45,1.96-4.23,5.32-11.78,7.26-15.99,2.31-2.95,5.86-7.17,8.22-10.08,1.62-1.01,7.43-5.99,8.97-6.99,0,0,.37-.21.37-.21l7.41-4.14c.91-.07,3.71-1.33,4.6-1.46,5.75-2.49,13.86-3.65,20.08-4.04,13.36.43,38.02-.87,51.35.52,5.16,2.83,12.45,6.19,17.94,8.27.86.21,1.84.25,2.72.22,28.24,0,58.86,0,87.13,0h0c.55,0,2.92,0,3.42,0l.05.1,2.87,1.71c4.17,5.12,11.84,15.58,15.83,20.71,0,0,10.11,7.5,10.11,7.5,0,0,2.52,1.87,2.52,1.87,1.46.38,3.86,1.19,5.18,1.54,0,0,20.78,6.58,20.78,6.58-.02.03,1.28,0,1.3,0,19.06,0,50.06,0,69.17,0,4.4,0,8.87,0,13.35,0,0,.27-.02.54-.02.81,0,19.88,16.12,36,36,36,19.88,0,36-16.12,36-36,0-.27-.01-.53-.02-.8,13.64,0,33.63-.01,46.78,0,.02,0,37.05.01,37.07,0,1.35-.48,18.67-4.9,19.9-5.32,0,0,4.76-2.02,4.76-2.02.93-1.03,4.34-3.33,5.34-4.33,3.05-2.56,14.06-11.03,16.3-14.44.88-1.64,7.52-10.48,8.46-12.1,0,0,2.35-1.4,2.35-1.4.01-.03.4-.37.41-.4.46,0,2.75,0,3.26,0h0c26.68-.02,61.74.02,88.62,0,5.13-1.43,14.29-6.58,19.2-8.5.54-.02,1.33-.45,1.83-.5,0-.01,31.95,0,31.95,0,5.11.03,12.42-.02,17.52,0,5.31.05,17.5,2.96,22.62,4.55,2.33,1.52,7.95,3.58,9.94,5.49,1.59,1.39,5.99,4.39,7.6,5.68,1.3.96,4.44,4.69,5.67,5.81,1.9,3.09,5.38,8.06,6.96,11.31,2.6,5.9,5.57,13.36,6.23,19.83.41,3.5.85,8.39.7,11.93-.03,46.08,0,100.96.03,148.65-11.74,0-21.25,9.52-21.25,21.26,0,11.72,9.49,21.23,21.2,21.26,0,3.99.01,8.06.02,12.17"/>
  <path class="cls-1" d="M790.44,565.41c-.02,106.48-.03,213.65-.02,320.33-15.31.39-27.61,12.92-27.61,28.33,0,15.41,12.3,27.94,27.62,28.33.01,43.97.03,87.82.05,131.46-.01,0-.04.03-.05.04,0,16.28.01,44.87.02,61.38,0,5.6,0,16.87,0,22.44.04.07.62,1.99.64,2.01,1.38,1.86,3.42,1.53,5.43,1.71,1.57.27,2.65,2.02,2.93,3.47,0,68.43,0,141.86-.02,210.37,0,4.26,0,9.25.02,13.52v1.11s-.06.1-.07.13l-.14.39c-.05.12-1.57,4.47-1.88,4.49-6.4-.4-16.19-.26-22.66.43-16.74-1.4-35.68-.17-52.49-.45-2.56.04-11.45-.28-13.85-.01-4.18,1.65-15.38,6.74-19.64,8.59-3.08,2.86-10.3,13.56-12.01,17.46-1.79,5.36-3.8,13.73-4.43,19.39-.95,7.52-.82,25.01-1.03,32.65-.04.16-.72.89-.8,1.09-.41.26-1.84.63-2.3.78,0,.24-32.68-.03-32.8.05-55.45.06-135.62.02-191.8.03-2.51,0-5.04,0-7.56,0,0-19.87-16.12-35.98-36-35.98s-35.98,16.1-36,35.96c-77.43-.02-157.14-.03-232.15.02,0,0,0-.08,0-.09-.06-.04-.13-.22-.16-.28-.75-.24-1.61-.52-2.39-.63-.43-.53-.57-1.2-.51-1.86-.22-1.22-.21-22.4-.4-24.33-.68-4.48-1.92-14.24-2.64-18.61-.75-3.77-4.9-12.77-6.52-16.35-2.11-2.87-5.98-8.38-8.83-10.56,0,0-6.77-2.85-6.77-2.85-1.27-.53-8.59-4.61-9.95-4.19-5.62-.6-16.05-.61-21.65-.31-21.71-.13-47.67.02-69.33.29-.41-.65-.89-1.65-1.48-2.17-.13-.45-.19-1.1-.6-1.39.1-50.01-.11-103.8-.02-153.78,0-14.83,0-35.26,0-50.14-.16-.83.38-2.14.55-2.92.54-.62,1.45-1.18,2.15-1.57.77-.19,1.9-.2,2.7-.17.47.09,1.3-.45,1.74-.5,0,0,.78-.7.78-.7l.38-.34.11-.11c.48-1.07.71-3.05.6-4.2,0-5,0-10.02,0-15.06.03,0,.06,0,.09,0,15.66,0,28.35-12.69,28.35-28.35s-12.69-28.35-28.35-28.35c-.03,0-.06,0-.1,0,0-4.72,0-9.45,0-14.18.03,0,.06,0,.1,0,15.66,0,28.35-12.69,28.35-28.35s-12.69-28.35-28.35-28.35c-.03,0-.07,0-.1,0,0-4.73,0-9.46,0-14.18.03,0,.06,0,.1,0,15.66,0,28.35-12.69,28.35-28.35,0-15.66-12.69-28.35-28.35-28.35-.03,0-.05,0-.08,0,0-4.72,0-9.45,0-14.18.02,0,.05,0,.07,0,15.66,0,28.35-12.69,28.35-28.35s-12.69-28.35-28.35-28.35c-.02,0-.03,0-.05,0,.02-81.8,0-425.15-.02-561.77"/>
</svg>