  0
SECTION
  2
HEADER
  9
$ACADVER
  1
AC1032
  9
$ACADMAINTVER
 90
      251
  9
$DWGCODEPAGE
  3
ANSI_1252
  9
$REQUIREDVERSIONS
160
                 0
  9
$INSBASE
 10
0.0
 20
0.0
 30
0.0
  9
$EXTMIN
 10
1.000000000000000E+20
 20
1.000000000000000E+20
 30
1.000000000000000E+20
  9
$EXTMAX
 10
-1.000000000000000E+20
 20
-1.000000000000000E+20
 30
-1.000000000000000E+20
  9
$LIMMIN
 10
0.0
 20
0.0
  9
$LIMMAX
 10
12.0
 20
9.0
  9
$ORTHOMODE
 70
     0
  9
$REGENMODE
 70
     1
  9
$FILLMODE
 70
     1
  9
$QTEXTMODE
 70
     0
  9
$MIRRTEXT
 70
     0
  9
$LTSCALE
 40
1.0
  9
$ATTMODE
 70
     1
  9
$TEXTSIZE
 40
0.2
  9
$TRACEWID
 40
0.05
  9
$TEXTSTYLE
  7
Standard
  9
$CLAYER
  8
0
  9
$CELTYPE
  6
ByLayer
  9
$CECOLOR
 62
   256
  9
$CELTSCALE
 40
1.0
  9
$DISPSILH
 70
     0
  9
$DIMSCALE
 40
1.0
  9
$DIMASZ
 40
0.18
  9
$DIMEXO
 40
0.0625
  9
$DIMDLI
 40
0.38
  9
$DIMRND
 40
0.0
  9
$DIMDLE
 40
0.0
  9
$DIMEXE
 40
0.18
  9
$DIMTP
 40
0.0
  9
$DIMTM
 40
0.0
  9
$DIMTXT
 40
0.18
  9
$DIMCEN
 40
0.09
  9
$DIMTSZ
 40
0.0
  9
$DIMTOL
 70
     0
  9
$DIMLIM
 70
     0
  9
$DIMTIH
 70
     1
  9
$DIMTOH
 70
     1
  9
$DIMSE1
 70
     0
  9
$DIMSE2
 70
     0
  9
$DIMTAD
 70
     0
  9
$DIMZIN
 70
     0
  9
$DIMBLK
  1

  9
$DIMASO
 70
     1
  9
$DIMSHO
 70
     1
  9
$DIMPOST
  1

  9
$DIMAPOST
  1

  9
$DIMALT
 70
     0
  9
$DIMALTD
 70
     2
  9
$DIMALTF
 40
25.4
  9
$DIMLFAC
 40
1.0
  9
$DIMTOFL
 70
     0
  9
$DIMTVP
 40
0.0
  9
$DIMTIX
 70
     0
  9
$DIMSOXD
 70
     0
  9
$DIMSAH
 70
     0
  9
$DIMBLK1
  1

  9
$DIMBLK2
  1

  9
$DIMSTYLE
  2
Standard
  9
$DIMCLRD
 70
     0
  9
$DIMCLRE
 70
     0
  9
$DIMCLRT
 70
     0
  9
$DIMTFAC
 40
1.0
  9
$DIMGAP
 40
0.09
  9
$DIMJUST
 70
     0
  9
$DIMSD1
 70
     0
  9
$DIMSD2
 70
     0
  9
$DIMTOLJ
 70
     1
  9
$DIMTZIN
 70
     0
  9
$DIMALTZ
 70
     0
  9
$DIMALTTZ
 70
     0
  9
$DIMUPT
 70
     0
  9
$DIMDEC
 70
     4
  9
$DIMTDEC
 70
     4
  9
$DIMALTU
 70
     2
  9
$DIMALTTD
 70
     2
  9
$DIMTXSTY
  7
Standard
  9
$DIMAUNIT
 70
     0
  9
$DIMADEC
 70
     0
  9
$DIMALTRND
 40
0.0
  9
$DIMAZIN
 70
     0
  9
$DIMDSEP
 70
    46
  9
$DIMATFIT
 70
     3
  9
$DIMFRAC
 70
     0
  9
$DIMLDRBLK
  1

  9
$DIMLUNIT
 70
     2
  9
$DIMLWD
 70
    -2
  9
$DIMLWE
 70
    -2
  9
$DIMTMOVE
 70
     0
  9
$DIMFXL
 40
1.0
  9
$DIMFXLON
 70
     0
  9
$DIMJOGANG
 40
0.7853981633974483
  9
$DIMTFILL
 70
     0
  9
$DIMTFILLCLR
 70
     0
  9
$DIMARCSYM
 70
     0
  9
$DIMLTYPE
  6

  9
$DIMLTEX1
  6

  9
$DIMLTEX2
  6

  9
$DIMTXTDIRECTION
 70
     0
  9
$LUNITS
 70
     2
  9
$LUPREC
 70
     4
  9
$SKETCHINC
 40
0.1
  9
$FILLETRAD
 40
0.0
  9
$AUNITS
 70
     0
  9
$AUPREC
 70
     0
  9
$MENU
  1
.
  9
$ELEVATION
 40
0.0
  9
$PELEVATION
 40
0.0
  9
$THICKNESS
 40
0.0
  9
$LIMCHECK
 70
     0
  9
$CHAMFERA
 40
0.0
  9
$CHAMFERB
 40
0.0
  9
$CHAMFERC
 40
0.0
  9
$CHAMFERD
 40
0.0
  9
$SKPOLY
 70
     0
  9
$TDCREATE
 40
2460641.831932870
  9
$TDUCREATE
 40
2460642.040266204
  9
$TDUPDATE
 40
2460641.831932870
  9
$TDUUPDATE
 40
2460642.040266204
  9
$TDINDWG
 40
0.0000000000
  9
$TDUSRTIMER
 40
0.0000000000
  9
$USRTIMER
 70
     1
  9
$ANGBASE
 50
0.0
  9
$ANGDIR
 70
     0
  9
$PDMODE
 70
     0
  9
$PDSIZE
 40
0.0
  9
$PLINEWID
 40
0.0
  9
$SPLFRAME
 70
     0
  9
$SPLINETYPE
 70
     6
  9
$SPLINESEGS
 70
     8
  9
$HANDSEED
  5
D4
  9
$SURFTAB1
 70
     6
  9
$SURFTAB2
 70
     6
  9
$SURFTYPE
 70
     6
  9
$SURFU
 70
     6
  9
$SURFV
 70
     6
  9
$UCSBASE
  2

  9
$UCSNAME
  2

  9
$UCSORG
 10
0.0
 20
0.0
 30
0.0
  9
$UCSXDIR
 10
1.0
 20
0.0
 30
0.0
  9
$UCSYDIR
 10
0.0
 20
1.0
 30
0.0
  9
$UCSORTHOREF
  2

  9
$UCSORTHOVIEW
 70
     0
  9
$UCSORGTOP
 10
0.0
 20
0.0
 30
0.0
  9
$UCSORGBOTTOM
 10
0.0
 20
0.0
 30
0.0
  9
$UCSORGLEFT
 10
0.0
 20
0.0
 30
0.0
  9
$UCSORGRIGHT
 10
0.0
 20
0.0
 30
0.0
  9
$UCSORGFRONT
 10
0.0
 20
0.0
 30
0.0
  9
$UCSORGBACK
 10
0.0
 20
0.0
 30
0.0
  9
$PUCSBASE
  2

  9
$PUCSNAME
  2

  9
$PUCSORG
 10
0.0
 20
0.0
 30
0.0
  9
$PUCSXDIR
 10
1.0
 20
0.0
 30
0.0
  9
$PUCSYDIR
 10
0.0
 20
1.0
 30
0.0
  9
$PUCSORTHOREF
  2

  9
$PUCSORTHOVIEW
 70
     0
  9
$PUCSORGTOP
 10
0.0
 20
0.0
 30
0.0
  9
$PUCSORGBOTTOM
 10
0.0
 20
0.0
 30
0.0
  9
$PUCSORGLEFT
 10
0.0
 20
0.0
 30
0.0
  9
$PUCSORGRIGHT
 10
0.0
 20
0.0
 30
0.0
  9
$PUCSORGFRONT
 10
0.0
 20
0.0
 30
0.0
  9
$PUCSORGBACK
 10
0.0
 20
0.0
 30
0.0
  9
$USERI1
 70
     0
  9
$USERI2
 70
     0
  9
$USERI3
 70
     0
  9
$USERI4
 70
     0
  9
$USERI5
 70
     0
  9
$USERR1
 40
0.0
  9
$USERR2
 40
0.0
  9
$USERR3
 40
0.0
  9
$USERR4
 40
0.0
  9
$USERR5
 40
0.0
  9
$WORLDVIEW
 70
     1
  9
$SHADEDGE
 70
     3
  9
$SHADEDIF
 70
    70
  9
$TILEMODE
 70
     1
  9
$MAXACTVP
 70
    64
  9
$PINSBASE
 10
0.0
 20
0.0
 30
0.0
  9
$PLIMCHECK
 70
     0
  9
$PEXTMIN
 10
1.000000000000000E+20
 20
1.000000000000000E+20
 30
1.000000000000000E+20
  9
$PEXTMAX
 10
-1.000000000000000E+20
 20
-1.000000000000000E+20
 30
-1.000000000000000E+20
  9
$PLIMMIN
 10
0.0
 20
0.0
  9
$PLIMMAX
 10
12.0
 20
9.0
  9
$UNITMODE
 70
     0
  9
$VISRETAIN
 70
     1
  9
$PLINEGEN
 70
     0
  9
$PSLTSCALE
 70
     1
  9
$TREEDEPTH
 70
  3020
  9
$CMLSTYLE
  2
Standard
  9
$CMLJUST
 70
     0
  9
$CMLSCALE
 40
1.0
  9
$PROXYGRAPHICS
 70
     1
  9
$MEASUREMENT
 70
     0
  9
$CELWEIGHT
370
    -1
  9
$ENDCAPS
280
     0
  9
$JOINSTYLE
280
     0
  9
$LWDISPLAY
290
     1
  9
$INSUNITS
 70
     1
  9
$HYPERLINKBASE
  1

  9
$STYLESHEET
  1

  9
$XEDIT
290
     1
  9
$CEPSNTYPE
380
     0
  9
$PSTYLEMODE
290
     1
  9
$FINGERPRINTGUID
  2
{EDE681B2-842F-D141-A281-4866405AC715}
  9
$VERSIONGUID
  2
{5B946C8A-6911-D846-9855-768948ABFAD7}
  9
$EXTNAMES
290
     1
  9
$PSVPSCALE
 40
0.0
  9
$OLESTARTUP
290
     0
  9
$SORTENTS
280
   127
  9
$INDEXCTL
280
     0
  9
$HIDETEXT
280
     1
  9
$XCLIPFRAME
280
     2
  9
$HALOGAP
280
     0
  9
$OBSCOLOR
 70
   257
  9
$OBSLTYPE
280
     0
  9
$INTERSECTIONDISPLAY
280
     0
  9
$INTERSECTIONCOLOR
 70
   257
  9
$DIMASSOC
280
     2
  9
$PROJECTNAME
  1

  9
$CAMERADISPLAY
290
     0
  9
$LENSLENGTH
 40
50.0
  9
$CAMERAHEIGHT
 40
0.0
  9
$STEPSPERSEC
 40
2.0
  9
$STEPSIZE
 40
6.0
  9
$3DDWFPREC
 40
2.0
  9
$PSOLWIDTH
 40
0.25
  9
$PSOLHEIGHT
 40
4.0
  9
$LOFTANG1
 40
1.570796326794896
  9
$LOFTANG2
 40
1.570796326794896
  9
$LOFTMAG1
 40
0.0
  9
$LOFTMAG2
 40
0.0
  9
$LOFTPARAM
 70
     7
  9
$LOFTNORMALS
280
     1
  9
$LATITUDE
 40
37.795
  9
$LONGITUDE
 40
-122.394
  9
$NORTHDIRECTION
 40
0.0
  9
$TIMEZONE
 70
 -8000
  9
$LIGHTGLYPHDISPLAY
280
     1
  9
$TILEMODELIGHTSYNCH
280
     1
  9
$CMATERIAL
347
11
  9
$SOLIDHIST
280
     0
  9
$SHOWHIST
280
     1
  9
$DWFFRAME
280
     2
  9
$DGNFRAME
280
     0
  9
$REALWORLDSCALE
290
     1
  9
$INTERFERECOLOR
 62
     1
  9
$INTERFEREOBJVS
345
33
  9
$INTERFEREVPVS
346
30
  9
$CSHADOW
280
     0
  9
$SHADOWPLANELOCATION
 40
0.0
  0
ENDSEC
  0
SECTION
  2
CLASSES
  0
CLASS
  1
ACDBDICTIONARYWDFLT
  2
AcDbDictionaryWithDefault
  3
ObjectDBX Classes
 90
        0
 91
        1
280
     0
281
     0
  0
CLASS
  1
MATERIAL
  2
AcDbMaterial
  3
ObjectDBX Classes
 90
     1153
 91
        3
280
     0
281
     0
  0
CLASS
  1
VISUALSTYLE
  2
AcDbVisualStyle
  3
ObjectDBX Classes
 90
     4095
 91
       24
280
     0
281
     0
  0
CLASS
  1
SCALE
  2
AcDbScale
  3
ObjectDBX Classes
 90
     1153
 91
       17
280
     0
281
     0
  0
CLASS
  1
TABLESTYLE
  2
AcDbTableStyle
  3
ObjectDBX Classes
 90
     4095
 91
        1
280
     0
281
     0
  0
CLASS
  1
MLEADERSTYLE
  2
AcDbMLeaderStyle
  3
ACDB_MLEADERSTYLE_CLASS
 90
     4095
 91
        1
280
     0
281
     0
  0
CLASS
  1
ACDBSECTIONVIEWSTYLE
  2
AcDbSectionViewStyle
  3
ObjectDBX Classes
 90
     1025
 91
        1
280
     0
281
     0
  0
CLASS
  1
ACDBDETAILVIEWSTYLE
  2
AcDbDetailViewStyle
  3
ObjectDBX Classes
 90
     1025
 91
        1
280
     0
281
     0
  0
CLASS
  1
DICTIONARYVAR
  2
AcDbDictionaryVar
  3
ObjectDBX Classes
 90
        0
 91
        5
280
     0
281
     0
  0
CLASS
  1
CELLSTYLEMAP
  2
AcDbCellStyleMap
  3
ObjectDBX Classes
 90
     1152
 91
        1
280
     0
281
     0
  0
ENDSEC
  0
SECTION
  2
TABLES
  0
TABLE
  2
VPORT
  5
8
330
0
100
AcDbSymbolTable
 70
     1
  0
VPORT
  5
57
330
8
100
AcDbSymbolTableRecord
100
AcDbViewportTableRecord
  2
*Active
 70
     0
 10
0.0
 20
0.0
 11
1.0
 21
1.0
 12
0.0
 22
0.0
 13
0.0
 23
0.0
 14
1.0
 24
1.0
 15
0.0
 25
0.0
 16
0.0
 26
0.0
 36
1.0
 17
5.5
 27
-12.0
 37
0.0
 40
24.48
 41
2.0
 42
50.0
 43
0.0
 44
0.0
 50
0.0
 51
0.0
 71
     0
 72
   100
 73
     1
 74
     1
 75
     0
 76
     0
 77
     0
 78
     0
281
     0
 65
     1
110
0.0
120
0.0
130
0.0
111
1.0
121
0.0
131
0.0
112
0.0
122
1.0
132
0.0
 79
     0
146
0.0
 60
     3
 61
     5
292
     1
282
     1
141
0.0
142
0.0
 63
   250
421
  3355443
  0
ENDTAB
  0
TABLE
  2
LTYPE
  5
5
330
0
100
AcDbSymbolTable
 70
     1
  0
LTYPE
  5
5B
330
5
100
AcDbSymbolTableRecord
100
AcDbLinetypeTableRecord
  2
ByBlock
 70
     0
  3

 72
    65
 73
     0
 40
0.0
  0
LTYPE
  5
5C
330
5
100
AcDbSymbolTableRecord
100
AcDbLinetypeTableRecord
  2
ByLayer
 70
     0
  3

 72
    65
 73
     0
 40
0.0
  0
LTYPE
  5
5D
330
5
100
AcDbSymbolTableRecord
100
AcDbLinetypeTableRecord
  2
Continuous
 70
     0
  3
Solid line
 72
    65
 73
     0
 40
0.0
  0
ENDTAB
  0
TABLE
  2
LAYER
  5
2
330
0
100
AcDbSymbolTable
 70
     2
  0
LAYER
  5
54
330
2
100
AcDbSymbolTableRecord
100
AcDbLayerTableRecord
  2
0
 70
     0
 62
     7
  6
Continuous
370
    -3
390
F
347
21
348
0
  0
LAYER
  5
78
330
2
100
AcDbSymbolTableRecord
100
AcDbLayerTableRecord
  2
Layer 1
 70
     0
 62
     7
  6
Continuous
370
     0
390
F
347
21
348
0
  0
ENDTAB
  0
TABLE
  2
STYLE
  5
3
330
0
100
AcDbSymbolTable
 70
     2
  0
STYLE
  5
55
330
3
100
AcDbSymbolTableRecord
100
AcDbTextStyleTableRecord
  2
Standard
 70
     0
 40
0.0
 41
1.0
 50
0.0
 71
     0
 42
0.2
  3
txt
  4

  0
STYLE
  5
5A
330
3
100
AcDbSymbolTableRecord
100
AcDbTextStyleTableRecord
  2
Annotative
 70
     0
 40
0.0
 41
1.0
 50
0.0
 71
     0
 42
0.2
  3
txt
  4

1001
AcadAnnotative
1000
AnnotativeData
1002
{
1070
     1
1070
     1
1002
}
  0
ENDTAB
  0
TABLE
  2
VIEW
  5
6
330
0
100
AcDbSymbolTable
 70
     0
  0
ENDTAB
  0
TABLE
  2
UCS
  5
7
330
0
100
AcDbSymbolTable
 70
     0
  0
ENDTAB
  0
TABLE
  2
APPID
  5
9
330
0
100
AcDbSymbolTable
 70
     2
  0
APPID
  5
56
330
9
100
AcDbSymbolTableRecord
100
AcDbRegAppTableRecord
  2
ACAD
 70
     0
  0
APPID
  5
5E
330
9
100
AcDbSymbolTableRecord
100
AcDbRegAppTableRecord
  2
AcadAnnotative
 70
     0
  0
ENDTAB
  0
TABLE
  2
DIMSTYLE
  5
A
330
0
100
AcDbSymbolTable
 70
     2
100
AcDbDimStyleTable
 71
     0
  0
DIMSTYLE
105
58
330
A
100
AcDbSymbolTableRecord
100
AcDbDimStyleTableRecord
  2
Standard
 70
     0
340
55
  0
DIMSTYLE
105
59
330
A
100
AcDbSymbolTableRecord
100
AcDbDimStyleTableRecord
  2
Annotative
 70
     0
340
55
1001
AcadAnnotative
1000
AnnotativeData
1002
{
1070
     1
1070
     1
1002
}
  0
ENDTAB
  0
TABLE
  2
BLOCK_RECORD
  5
1
330
0
100
AcDbSymbolTable
 70
     3
  0
BLOCK_RECORD
  5
70
330
1
100
AcDbSymbolTableRecord
100
AcDbBlockTableRecord
  2
*Model_Space
340
73
 70
     0
280
     1
281
     0
  0
BLOCK_RECORD
  5
6C
330
1
100
AcDbSymbolTableRecord
100
AcDbBlockTableRecord
  2
*Paper_Space
340
6F
 70
     0
280
     1
281
     0
  0
BLOCK_RECORD
  5
74
330
1
100
AcDbSymbolTableRecord
100
AcDbBlockTableRecord
  2
*Paper_Space0
340
77
 70
     0
280
     1
281
     0
  0
BLOCK_RECORD
  5
79
330
1
100
AcDbSymbolTableRecord
100
AcDbBlockTableRecord
  2
Block_0
340
0
102
{BLKREFS
331
7A
102
}
 70
     0
280
     1
281
     0
  0
BLOCK_RECORD
  5
AC
330
1
100
AcDbSymbolTableRecord
100
AcDbBlockTableRecord
  2
Block_1
340
0
102
{BLKREFS
331
AD
102
}
 70
     0
280
     1
281
     0
  0
ENDTAB
  0
ENDSEC
  0
SECTION
  2
BLOCKS
  0
BLOCK
  5
71
330
70
100
AcDbEntity
  8
0
100
AcDbBlockBegin
  2
*Model_Space
 70
     0
 10
0.0
 20
0.0
 30
0.0
  3
*Model_Space
  1

  0
ENDBLK
  5
72
330
70
100
AcDbEntity
  8
0
100
AcDbBlockEnd
  0
BLOCK
  5
6D
330
6C
100
AcDbEntity
 67
     1
  8
0
100
AcDbBlockBegin
  2
*Paper_Space
 70
     0
 10
0.0
 20
0.0
 30
0.0
  3
*Paper_Space
  1

  0
ENDBLK
  5
6E
330
6C
100
AcDbEntity
 67
     1
  8
0
100
AcDbBlockEnd
  0
BLOCK
  5
75
330
74
100
AcDbEntity
 67
     1
  8
0
100
AcDbBlockBegin
  2
*Paper_Space0
 70
     0
 10
0.0
 20
0.0
 30
0.0
  3
*Paper_Space0
  1

  0
ENDBLK
  5
76
330
74
100
AcDbEntity
 67
     1
  8
0
100
AcDbBlockEnd
  0
BLOCK
  5
7B
330
79
100
AcDbEntity
  8
0
100
AcDbBlockBegin
  2
Block_0
 70
     0
 10
0.0
 20
0.0
 30
0.0
  3
Block_0
  1

  0
CIRCLE
  5
7D
330
79
100
AcDbEntity
  8
Layer 1
 62
     1
420
 16711680
370
    35
100
AcDbCircle
 10
-3.496259650717705
 20
-21.76594071413024
 30
0.0
 40
0.0825000000000544
  0
CIRCLE
  5
7E
330
79
100
AcDbEntity
  8
Layer 1
 62
     1
420
 16711680
370
    35
100
AcDbCircle
 10
-3.496259650717705
 20
-1.689924387430197
 30
0.0
 40
0.0825000000000039
  0
CIRCLE
  5
7F
330
79
100
AcDbEntity
  8
Layer 1
 62
     1
420
 16711680
370
    35
100
AcDbCircle
 10
1.93924851258229
 20
-1.524786220330188
 30
0.0
 40
0.0825000000000103
  0
CIRCLE
  5
80
330
79
100
AcDbEntity
  8
Layer 1
 62
     1
420
 16711680
370
    35
100
AcDbCircle
 10
-0.7696667343177208
 20
-1.524786220330188
 30
0.0
 40
0.0824999999999945
  0
CIRCLE
  5
81
330
79
100
AcDbEntity
  8
Layer 1
 62
     1
420
 16711680
370
    35
100
AcDbCircle
 10
1.93924851258229
 20
-21.93107888133026
 30
0.0
 40
0.0824999999999692
  0
CIRCLE
  5
82
330
79
100
AcDbEntity
  8
Layer 1
 62
     1
420
 16711680
370
    35
100
AcDbCircle
 10
-0.7696667343177208
 20
-21.93107888133026
 30
0.0
 40
0.0824999999999534
  0
CIRCLE
  5
83
330
79
100
AcDbEntity
  8
Layer 1
 62
     1
420
 16711680
370
    35
100
AcDbCircle
 10
-3.661397817917708
 20
-7.433505196330195
 30
0.0
 40
0.0824999999999976
  0
CIRCLE
  5
84
330
79
100
AcDbEntity
  8
Layer 1
 62
     1
420
 16711680
370
    35
100
AcDbCircle
 10
-3.661397817917708
 20
-10.29645676603019
 30
0.0
 40
0.0824999999999976
  0
CIRCLE
  5
85
330
79
100
AcDbEntity
  8
Layer 1
 62
     1
420
 16711680
370
    35
100
AcDbCircle
 10
-3.661397817917708
 20
-7.433505196330195
 30
0.0
 40
0.0824999999999976
  0
CIRCLE
  5
86
330
79
100
AcDbEntity
  8
Layer 1
 62
     1
420
 16711680
370
    35
100
AcDbCircle
 10
-3.786474011017711
 20
-4.570553626730202
 30
0.0
 40
0.0824999999999976
  0
CIRCLE
  5
87
330
79
100
AcDbEntity
  8
Layer 1
 62
     1
420
 16711680
370
    35
100
AcDbCircle
 10
-3.661397817917708
 20
-10.29645676603019
 30
0.0
 40
0.0824999999999976
  0
CIRCLE
  5
88
330
79
100
AcDbEntity
  8
Layer 1
 62
     1
420
 16711680
370
    35
100
AcDbCircle
 10
-3.786437615603542
 20
-4.570553626730202
 30
0.0
 40
0.0825000000000071
  0
CIRCLE
  5
89
330
79
100
AcDbEntity
  8
Layer 1
 62
     1
420
 16711680
370
    35
100
AcDbCircle
 10
-3.661397817917708
 20
-13.1594083356302
 30
0.0
 40
0.0824999999999945
  0
CIRCLE
  5
8A
330
79
100
AcDbEntity
  8
Layer 1
 62
     1
420
 16711680
370
    35
100
AcDbCircle
 10
-3.786474011017711
 20
-18.88531147493022
 30
0.0
 40
0.0824999999999723
  0
CIRCLE
  5
8B
330
79
100
AcDbEntity
  8
Layer 1
 62
     1
420
 16711680
370
    35
100
AcDbCircle
 10
-3.661397817917708
 20
-16.02235990533023
 30
0.0
 40
0.0824999999999945
  0
CIRCLE
  5
8C
330
79
100
AcDbEntity
  8
Layer 1
 62
     1
420
 16711680
370
    35
100
AcDbCircle
 10
7.374756675882356
 20
-21.76594071413024
 30
0.0
 40
0.0825000000000955
  0
CIRCLE
  5
8D
330
79
100
AcDbEntity
  8
Layer 1
 62
     1
420
 16711680
370
    35
100
AcDbCircle
 10
7.374756675882356
 20
-1.689924387430197
 30
0.0
 40
0.082500000000045
  0
CIRCLE
  5
8E
330
79
100
AcDbEntity
  8
Layer 1
 62
     1
420
 16711680
370
    35
100
AcDbCircle
 10
4.648163759482321
 20
-1.524786220330188
 30
0.0
 40
0.0825000000000103
  0
CIRCLE
  5
8F
330
79
100
AcDbEntity
  8
Layer 1
 62
     1
420
 16711680
370
    35
100
AcDbCircle
 10
4.648163759482321
 20
-21.93107888133026
 30
0.0
 40
0.0824999999999692
  0
CIRCLE
  5
90
330
79
100
AcDbEntity
  8
Layer 1
 62
     1
420
 16711680
370
    35
100
AcDbCircle
 10
7.539894843082322
 20
-13.1594083356302
 30
0.0
 40
0.0824999999999344
  0
CIRCLE
  5
91
330
79
100
AcDbEntity
  8
Layer 1
 62
     1
420
 16711680
370
    35
100
AcDbCircle
 10
7.664971036082318
 20
-18.88531147493022
 30
0.0
 40
0.0824999999999882
  0
CIRCLE
  5
92
330
79
100
AcDbEntity
  8
Layer 1
 62
     1
420
 16711680
370
    35
100
AcDbCircle
 10
7.539894843082322
 20
-16.02235990533023
 30
0.0
 40
0.0824999999999344
  0
CIRCLE
  5
93
330
79
100
AcDbEntity
  8
Layer 1
 62
     1
420
 16711680
370
    35
100
AcDbCircle
 10
7.539894843082322
 20
-10.29645676603019
 30
0.0
 40
0.0824999999999376
  0
CIRCLE
  5
94
330
79
100
AcDbEntity
  8
Layer 1
 62
     1
420
 16711680
370
    35
100
AcDbCircle
 10
7.539894843082322
 20
-7.433505196330195
 30
0.0
 40
0.0824999999999376
  0
CIRCLE
  5
95
330
79
100
AcDbEntity
  8
Layer 1
 62
     1
420
 16711680
370
    35
100
AcDbCircle
 10
7.664971036082318
 20
-4.570553626730202
 30
0.0
 40
0.0825000000000134
  0
SPLINE
  5
96
330
79
100
AcDbEntity
  8
Layer 1
 62
     1
420
 16711680
370
    35
100
AcDbSpline
210
0.0
220
0.0
230
1.0
 70
     8
 71
     3
 72
     8
 73
     4
 74
     0
 42
0.0000000001
 43
0.0000000001
 40
0.0
 40
0.0
 40
0.0
 40
0.0
 40
1.0
 40
1.0
 40
1.0
 40
1.0
 10
-3.992245267763539
 20
-2.265813560752715
 30
0.0
 10
-3.992255445828125
 20
-2.266073886706837
 30
0.0
 10
-3.992260536317719
 20
-2.266334386684206
 30
0.0
 10
-3.992260536317719
 20
-2.266594911530205
 30
0.0
  0
LINE
  5
97
330
79
100
AcDbEntity
  8
Layer 1
 62
     1
420
 16711680
370
    35
100
AcDbLine
 10
-2.94041230331772
 20
-22.26594096453032
 30
0.0
 11
6.818986354282413
 21
-22.26594096453032
 31
0.0
  0
LINE
  5
98
330
79
100
AcDbEntity
  8
Layer 1
 62
     1
420
 16711680
370
    35
100
AcDbLine
 10
7.870757561382434
 20
-21.21409296763032
 30
0.0
 11
7.870757561382434
 21
-2.266672133830209
 31
0.0
  0
LINE
  5
99
330
79
100
AcDbEntity
  8
Layer 1
 62
     1
420
 16711680
370
    35
100
AcDbLine
 10
-3.992260536317719
 20
-21.21417019003032
 30
0.0
 11
-3.992260536317719
 21
-2.266594911530205
 31
0.0
  0
SPLINE
  5
9A
330
79
100
AcDbEntity
  8
Layer 1
 62
     1
420
 16711680
370
    35
100
AcDbSpline
210
0.0
220
0.0
230
1.0
 70
     8
 71
     3
 72
    35
 73
    31
 74
     0
 42
0.0000000001
 43
0.0000000001
 40
0.0
 40
0.0
 40
0.0
 40
0.0
 40
1.0
 40
1.0
 40
1.0
 40
2.0
 40
2.0
 40
2.0
 40
3.0
 40
3.0
 40
3.0
 40
4.0
 40
4.0
 40
4.0
 40
5.0
 40
5.0
 40
5.0
 40
6.0
 40
6.0
 40
6.0
 40
7.0
 40
7.0
 40
7.0
 40
8.0
 40
8.0
 40
8.0
 40
9.0
 40
9.0
 40
9.0
 40
10.0
 40
10.0
 40
10.0
 40
10.0
 10
-3.992245267778546
 20
-21.21495154076769
 30
0.0
 10
-3.990396517776035
 20
-21.26149984240909
 30
0.0
 10
-3.988547046750075
 20
-21.30804809508795
 30
0.0
 10
-3.982851915352991
 20
-21.35418832418766
 30
0.0
 10
-3.977170393421046
 20
-21.40021829352296
 30
0.0
 10
-3.967661568849381
 20
-21.44584218702949
 30
0.0
 10
-3.955329677841872
 20
-21.49066057964365
 30
0.0
 10
-3.939697884757429
 20
-21.54747196723171
 30
0.0
 10
-3.919530025946894
 20
-21.60298908666381
 30
0.0
 10
-3.894832904893822
 20
-21.65644092304784
 30
0.0
 10
-3.870144337436865
 20
-21.7098742469334
 30
0.0
 10
-3.840929644521868
 20
-21.76124371810268
 30
0.0
 10
-3.807599582084801
 20
-21.80977637496674
 30
0.0
 10
-3.774208794637994
 20
-21.8583974548892
 30
0.0
 10
-3.736687628185765
 20
-21.90417137414089
 30
0.0
 10
-3.69562930413647
 20
-21.94651545350851
 30
0.0
 10
-3.654573612284239
 20
-21.9888568182509
 30
0.0
 10
-3.609981216345911
 20
-22.02776878286062
 30
0.0
 10
-3.562409897028828
 20
-22.06263394290838
 30
0.0
 10
-3.514492352068979
 20
-22.09775285274949
 30
0.0
 10
-3.463552364530768
 20
-22.1287658381141
 30
0.0
 10
-3.41038804006007
 20
-22.15524345952892
 30
0.0
 10
-3.357210063635218
 20
-22.18172788007602
 30
0.0
 10
-3.301806607765784
 20
-22.20367460712118
 30
0.0
 10
-3.244933194806738
 20
-22.22103204210867
 30
0.0
 10
-3.195839074218282
 20
-22.23601528229144
 30
0.0
 10
-3.145649623471753
 20
-22.2475788376209
 30
0.0
 10
-3.094919153056202
 20
-22.25448989132979
 30
0.0
 10
-3.044066625246462
 20
-22.26141757301796
 30
0.0
 10
-2.992670471251585
 20
-22.26367033833685
 30
0.0
 10
-2.941274263239392
 20
-22.26592238148659
 30
0.0
  0
SPLINE
  5
9B
330
79
100
AcDbEntity
  8
Layer 1
 62
     1
420
 16711680
370
    35
100
AcDbSpline
210
0.0
220
0.0
230
1.0
 70
     8
 71
     3
 72
    35
 73
    31
 74
     0
 42
0.0000000001
 43
0.0000000001
 40
0.0
 40
0.0
 40
0.0
 40
0.0
 40
1.0
 40
1.0
 40
1.0
 40
2.0
 40
2.0
 40
2.0
 40
3.0
 40
3.0
 40
3.0
 40
4.0
 40
4.0
 40
4.0
 40
5.0
 40
5.0
 40
5.0
 40
6.0
 40
6.0
 40
6.0
 40
7.0
 40
7.0
 40
7.0
 40
8.0
 40
8.0
 40
8.0
 40
9.0
 40
9.0
 40
9.0
 40
10.0
 40
10.0
 40
10.0
 40
10.0
 10
6.819767854841453
 20
-22.26592569008072
 30
0.0
 10
6.866317006177849
 20
-22.26407655591144
 30
0.0
 10
6.912866108546444
 20
-22.26222670072032
 30
0.0
 10
6.959007164688247
 20
-22.25653118288644
 30
0.0
 10
7.00503853975422
 20
-22.25084920376558
 30
0.0
 10
7.0506638062059
 20
-22.2413398231834
 30
0.0
 10
7.09548350556785
 20
-22.22900720694507
 30
0.0
 10
7.15229514059936
 20
-22.21337488226007
 30
0.0
 10
7.207812465310072
 20
-22.19320644494989
 30
0.0
 10
7.261264425469915
 20
-22.16850870190309
 30
0.0
 10
7.314698204714507
 20
-22.14381935943811
 30
0.0
 10
7.366068024177011
 20
-22.11460379186878
 30
0.0
 10
7.414601104118244
 20
-22.08127302598228
 30
0.0
 10
7.463223230552986
 20
-22.04788110618089
 30
0.0
 10
7.508998198451459
 20
-22.01035887341671
 30
0.0
 10
7.551343124742288
 20
-21.96929924246615
 30
0.0
 10
7.593685429467136
 20
-21.92824215350907
 30
0.0
 10
7.632598117277565
 20
-21.88364810435142
 30
0.0
 10
7.66746323794617
 20
-21.83607476972753
 30
0.0
 10
7.702579399654091
 20
-21.78815889048757
 30
0.0
 10
7.733589496581442
 20
-21.73722066752963
 30
0.0
 10
7.760065255327971
 20
-21.68405865777226
 30
0.0
 10
7.786547972211463
 20
-21.63088267642155
 30
0.0
 10
7.808493967247411
 20
-21.57548173924382
 30
0.0
 10
7.82585037652297
 20
-21.51861076326243
 30
0.0
 10
7.840833121446999
 20
-21.46951746791784
 30
0.0
 10
7.852395784549773
 20
-21.41932872447604
 30
0.0
 10
7.859306477401736
 20
-21.36859907447377
 30
0.0
 10
7.866233881975353
 20
-21.31774674794491
 30
0.0
 10
7.868486789922017
 20
-21.2663508956074
 30
0.0
 10
7.870738975698814
 20
-21.21495498925211
 30
0.0
  0
LINE
  5
9C
330
79
100
AcDbEntity
  8
Layer 1
 62
     1
420
 16711680
370
    35
100
AcDbLine
 10
-2.94041230331772
 20
-1.214824137130196
 30
0.0
 11
6.818986354282413
 21
-1.214824137130196
 31
0.0
  0
SPLINE
  5
9D
330
79
100
AcDbEntity
  8
Layer 1
 62
     1
420
 16711680
370
    35
100
AcDbSpline
210
0.0
220
0.0
230
1.0
 70
     8
 71
     3
 72
    35
 73
    31
 74
     0
 42
0.0000000001
 43
0.0000000001
 40
0.0
 40
0.0
 40
0.0
 40
0.0
 40
1.0
 40
1.0
 40
1.0
 40
2.0
 40
2.0
 40
2.0
 40
3.0
 40
3.0
 40
3.0
 40
4.0
 40
4.0
 40
4.0
 40
5.0
 40
5.0
 40
5.0
 40
6.0
 40
6.0
 40
6.0
 40
7.0
 40
7.0
 40
7.0
 40
8.0
 40
8.0
 40
8.0
 40
9.0
 40
9.0
 40
9.0
 40
10.0
 40
10.0
 40
10.0
 40
10.0
 10
-3.992245267778546
 20
-2.265813560716537
 30
0.0
 10
-3.990396517774367
 20
-2.219265259103053
 30
0.0
 10
-3.988547046746892
 20
-2.172717006451989
 30
0.0
 10
-3.982851915352991
 20
-2.126576777379808
 30
0.0
 10
-3.977170393420894
 20
-2.080546808044535
 30
0.0
 10
-3.967661568849255
 20
-2.03492291453804
 30
0.0
 10
-3.955329677841872
 20
-1.990104521923828
 30
0.0
 10
-3.939697884757581
 20
-1.933293134335788
 30
0.0
 10
-3.919530025946894
 20
-1.877776014903714
 30
0.0
 10
-3.894832904893822
 20
-1.824324178519595
 30
0.0
 10
-3.870144337436865
 20
-1.770890854634115
 30
0.0
 10
-3.840929644521868
 20
-1.719521383464817
 30
0.0
 10
-3.807599582084801
 20
-1.670988726600764
 30
0.0
 10
-3.77420879463812
 20
-1.622367646678324
 30
0.0
 10
-3.736687628185765
 20
-1.57659372742661
 30
0.0
 10
-3.69562930413647
 20
-1.534249648058941
 30
0.0
 10
-3.654573612284366
 20
-1.491908283316522
 30
0.0
 10
-3.609981216345911
 20
-1.452996318706899
 30
0.0
 10
-3.56240989702898
 20
-1.418131158659169
 30
0.0
 10
-3.514492352068979
 20
-1.383012248817938
 30
0.0
 10
-3.463552364530768
 20
-1.351999263453093
 30
0.0
 10
-3.41038804006007
 20
-1.325521642038526
 30
0.0
 10
-3.357210063635344
 20
-1.299037221491706
 30
0.0
 10
-3.301806607765911
 20
-1.277090494447204
 30
0.0
 10
-3.244933194807016
 20
-1.259733059458906
 30
0.0
 10
-3.195839074218131
 20
-1.244749819275221
 30
0.0
 10
-3.145649623471449
 20
-1.233186263943821
 30
0.0
 10
-3.094919153055216
 20
-1.226275210237506
 30
0.0
 10
-3.044066625245906
 20
-1.219347528552147
 30
0.0
 10
-2.992670471251181
 20
-1.217094763240424
 30
0.0
 10
-2.941274263239241
 20
-1.214842720097787
 30
0.0
  0
SPLINE
  5
9E
330
79
100
AcDbEntity
  8
Layer 1
 62
     1
420
 16711680
370
    35
100
AcDbSpline
210
0.0
220
0.0
230
1.0
 70
     8
 71
     3
 72
    35
 73
    31
 74
     0
 42
0.0000000001
 43
0.0000000001
 40
0.0
 40
0.0
 40
0.0
 40
0.0
 40
1.0
 40
1.0
 40
1.0
 40
2.0
 40
2.0
 40
2.0
 40
3.0
 40
3.0
 40
3.0
 40
4.0
 40
4.0
 40
4.0
 40
5.0
 40
5.0
 40
5.0
 40
6.0
 40
6.0
 40
6.0
 40
7.0
 40
7.0
 40
7.0
 40
8.0
 40
8.0
 40
8.0
 40
9.0
 40
9.0
 40
9.0
 40
10.0
 40
10.0
 40
10.0
 40
10.0
 10
6.819767854841453
 20
-1.214839411503602
 30
0.0
 10
6.866317006177419
 20
-1.216688545665761
 30
0.0
 10
6.912866108545888
 20
-1.218538400849853
 30
0.0
 10
6.959007164687136
 20
-1.224233918680953
 30
0.0
 10
7.005038539753664
 20
-1.22991589779911
 30
0.0
 10
7.050663806205748
 20
-1.239425278383287
 30
0.0
 10
7.095483505568128
 20
-1.251757894622452
 30
0.0
 10
7.15229514059936
 20
-1.267390219308418
 30
0.0
 10
7.207812465310072
 20
-1.287558656617812
 30
0.0
 10
7.261264425469637
 20
-1.312256399664306
 30
0.0
 10
7.314698204714507
 20
-1.336945742129058
 30
0.0
 10
7.366068024177011
 20
-1.366161309698617
 30
0.0
 10
7.414601104118244
 20
-1.399492075585271
 30
0.0
 10
7.463223230552986
 20
-1.432883995386734
 30
0.0
 10
7.508998198451459
 20
-1.470406228150763
 30
0.0
 10
7.551343124742288
 20
-1.511465859101324
 30
0.0
 10
7.593685429467136
 20
-1.552522948058304
 30
0.0
 10
7.632598117277565
 20
-1.5971169972161
 30
0.0
 10
7.667463237946043
 20
-1.644690331839986
 30
0.0
 10
7.702579399654091
 20
-1.692606211079944
 30
0.0
 10
7.733589496581316
 20
-1.743544434037845
 30
0.0
 10
7.760065255327971
 20
-1.796706443795212
 30
0.0
 10
7.786547972211463
 20
-1.849882425145943
 30
0.0
 10
7.808493967247411
 20
-1.905283362323757
 30
0.0
 10
7.82585037652297
 20
-1.96215433830519
 30
0.0
 10
7.840833121446873
 20
-2.011247633649645
 30
0.0
 10
7.852395784549773
 20
-2.061436377091354
 30
0.0
 10
7.859306477401736
 20
-2.112166027093571
 30
0.0
 10
7.866233881971866
 20
-2.163018353595197
 30
0.0
 10
7.868486789920198
 20
-2.214414205904909
 30
0.0
 10
7.870738975698814
 20
-2.265810112232315
 30
0.0
  0
LINE
  5
9F
330
79
100
AcDbEntity
  8
Layer 1
 62
     1
420
 16711680
370
    35
100
AcDbLine
 10
7.732471036082288
 20
-18.8853114749302
 30
0.0
 11
7.747471036082414
 21
-18.8853114749302
 31
0.0
  0
SPLINE
  5
A0
330
79
100
AcDbEntity
  8
Layer 1
 62
     1
420
 16711680
370
    35
100
AcDbSpline
210
0.0
220
0.0
230
1.0
 70
     8
 71
     3
 72
     8
 73
     4
 74
     0
 42
0.0000000001
 43
0.0000000001
 40
0.0
 40
0.0
 40
0.0
 40
0.0
 40
1.0
 40
1.0
 40
1.0
 40
1.0
 10
6.819767854856864
 20
-1.214839411541599
 30
0.0
 10
6.81950747904188
 20
-1.214829229572981
 30
0.0
 10
6.819246929103528
 20
-1.214824137130196
 30
0.0
 10
6.818986354282413
 20
-1.214824137130196
 30
0.0
  0
SPLINE
  5
A1
330
79
100
AcDbEntity
  8
Layer 1
 62
     1
420
 16711680
370
    35
100
AcDbSpline
210
0.0
220
0.0
230
1.0
 70
     8
 71
     3
 72
     8
 73
     4
 74
     0
 42
0.0000000001
 43
0.0000000001
 40
0.0
 40
0.0
 40
0.0
 40
0.0
 40
1.0
 40
1.0
 40
1.0
 40
1.0
 10
6.818986354282413
 20
-22.26594096453017
 30
0.0
 10
6.81924692910464
 20
-22.26594096453017
 30
0.0
 10
6.819507479043951
 20
-22.26593587208739
 30
0.0
 10
6.819767854860073
 20
-22.26592569011882
 30
0.0
  0
SPLINE
  5
A2
330
79
100
AcDbEntity
  8
Layer 1
 62
     1
420
 16711680
370
    35
100
AcDbSpline
210
0.0
220
0.0
230
1.0
 70
     8
 71
     3
 72
     8
 73
     4
 74
     0
 42
0.0000000001
 43
0.0000000001
 40
0.0
 40
0.0
 40
0.0
 40
0.0
 40
1.0
 40
1.0
 40
1.0
 40
1.0
 10
7.87073897571367
 20
-21.21495498927505
 30
0.0
 10
7.870751364719782
 20
-21.21466781566909
 30
0.0
 10
7.870757561382434
 20
-21.21438040835003
 30
0.0
 10
7.870757561382434
 20
-21.21409296763032
 30
0.0
  0
SPLINE
  5
A3
330
79
100
AcDbEntity
  8
Layer 1
 62
     1
420
 16711680
370
    35
100
AcDbSpline
210
0.0
220
0.0
230
1.0
 70
     8
 71
     3
 72
     8
 73
     4
 74
     0
 42
0.0000000001
 43
0.0000000001
 40
0.0
 40
0.0
 40
0.0
 40
0.0
 40
1.0
 40
1.0
 40
1.0
 40
1.0
 10
7.870757561382434
 20
-2.266672133830209
 30
0.0
 10
7.870757561382434
 20
-2.266384693109974
 30
0.0
 10
7.870751364719782
 20
-2.266097285790604
 30
0.0
 10
7.87073897571367
 20
-2.265810112184264
 30
0.0
  0
LWPOLYLINE
  5
A4
330
79
100
AcDbEntity
  8
Layer 1
 62
     1
420
 16711680
370
    35
100
AcDbPolyline
 90
        3
 70
     0
 43
0.0
 10
-1.55851218057771
 20
-20.24038255083016
 10
-2.560751487467718
 20
-20.24038255083016
 10
-2.560751487467718
 20
-11.7403825508302
  0
LWPOLYLINE
  5
A5
330
79
100
AcDbEntity
  8
Layer 1
 62
     1
420
 16711680
370
    35
100
AcDbPolyline
 90
        3
 70
     0
 43
0.0
 10
6.43924851253228
 20
-11.7403825508302
 10
6.43924851253228
 20
-20.24038255083016
 10
-1.55851218057771
 20
-20.24038255083016
  0
LWPOLYLINE
  5
A6
330
79
100
AcDbEntity
  8
Layer 1
 62
     1
420
 16711680
370
    35
100
AcDbPolyline
 90
        3
 70
     0
 43
0.0
 10
-2.560751487467718
 20
-3.239060751885732
 10
6.43924851253228
 20
-3.239060751885732
 10
6.43924851253228
 20
-11.73906075188573
  0
LINE
  5
A7
330
79
100
AcDbEntity
  8
Layer 1
 62
     1
420
 16711680
370
    35
100
AcDbLine
 10
-2.560751487467718
 20
-11.73906075188573
 30
0.0
 11
-2.560751487467718
 21
-3.239060751885732
 31
0.0
  0
ENDBLK
  5
7C
330
79
100
AcDbEntity
  8
0
100
AcDbBlockEnd
  0
BLOCK
  5
AE
330
AC
100
AcDbEntity
  8
0
100
AcDbBlockBegin
  2
Block_1
 70
     0
 10
0.0
 20
0.0
 30
0.0
  3
Block_1
  1

  0
CIRCLE
  5
B0
330
AC
100
AcDbEntity
  8
Layer 1
 62
     1
420
 16711680
370
    35
100
AcDbCircle
 10
-0.0292585118713949
 20
-20.88995379488173
 30
0.0
 40
0.0984251968504503
  0
CIRCLE
  5
B1
330
AC
100
AcDbEntity
  8
Layer 1
 62
     1
420
 16711680
370
    35
100
AcDbCircle
 10
3.907749362144348
 20
-20.88995379488173
 30
0.0
 40
0.0984251968504661
  0
CIRCLE
  5
B2
330
AC
100
AcDbEntity
  8
Layer 1
 62
     1
420
 16711680
370
    35
100
AcDbCircle
 10
-0.0292585118713949
 20
-21.44113489724396
 30
0.0
 40
0.0984251968504503
  0
CIRCLE
  5
B3
330
AC
100
AcDbEntity
  8
Layer 1
 62
     1
420
 16711680
370
    35
100
AcDbCircle
 10
3.907749362144348
 20
-21.44113489724396
 30
0.0
 40
0.0984251968504661
  0
ENDBLK
  5
AF
330
AC
100
AcDbEntity
  8
0
100
AcDbBlockEnd
  0
ENDSEC
  0
SECTION
  2
ENTITIES
  0
INSERT
  5
7A
330
70
100
AcDbEntity
  8
Layer 1
100
AcDbBlockReference
  2
Block_0
 10
0.0
 20
0.0
 30
0.0
  0
CIRCLE
  5
A8
330
70
100
AcDbEntity
  8
Layer 1
 62
     1
420
 16711680
370
    35
100
AcDbCircle
 10
-0.0292585118713949
 20
-2.038291590157351
 30
0.0
 40
0.0984251968504503
  0
CIRCLE
  5
A9
330
70
100
AcDbEntity
  8
Layer 1
 62
     1
420
 16711680
370
    35
100
AcDbCircle
 10
3.907749362144348
 20
-2.038291590157351
 30
0.0
 40
0.0984251968504661
  0
CIRCLE
  5
AA
330
70
100
AcDbEntity
  8
Layer 1
 62
     1
420
 16711680
370
    35
100
AcDbCircle
 10
-0.0292144577386087
 20
-2.589472692519557
 30
0.0
 40
0.0984500000000234
  0
CIRCLE
  5
AB
330
70
100
AcDbEntity
  8
Layer 1
 62
     1
420
 16711680
370
    35
100
AcDbCircle
 10
3.907749362144348
 20
-2.589472692519557
 30
0.0
 40
0.0984251968504661
  0
INSERT
  5
AD
330
70
100
AcDbEntity
  8
Layer 1
100
AcDbBlockReference
  2
Block_1
 10
0.0
 20
0.0
 30
0.0
  0
SPLINE
  5
B4
330
70
100
AcDbEntity
  8
Layer 1
 62
     1
420
 16711680
370
    35
100
AcDbSpline
210
0.0
220
0.0
230
1.0
 70
     9
 71
     3
 72
    29
 73
    25
 74
     0
 42
0.0000000001
 43
0.0000000001
 40
0.0
 40
0.0
 40
0.0
 40
0.0
 40
1.0
 40
1.0
 40
1.0
 40
2.0
 40
2.0
 40
2.0
 40
3.0
 40
3.0
 40
3.0
 40
4.0
 40
4.0
 40
4.0
 40
5.0
 40
5.0
 40
5.0
 40
6.0
 40
6.0
 40
6.0
 40
7.0
 40
7.0
 40
7.0
 40
8.0
 40
8.0
 40
8.0
 40
8.0
 10
-14.66478096191273
 20
-5.607894708347266
 30
0.0
 10
-14.66478096191273
 20
-5.607894708347266
 30
0.0
 10
-14.66478096202065
 20
-8.01170323737473
 30
0.0
 10
-14.66478096202065
 20
-8.01170323737473
 30
0.0
 10
-14.6647809620268
 20
-8.14872272858185
 30
0.0
 10
-14.55370471775264
 20
-8.259798972865988
 30
0.0
 10
-14.41668522654552
 20
-8.25979897287214
 30
0.0
 10
-14.41668522654552
 20
-8.25979897287214
 30
0.0
 10
-12.91287669751806
 20
-8.259798972939645
 30
0.0
 10
-12.91287669751806
 20
-8.259798972939645
 30
0.0
 10
-12.77585720631094
 20
-8.259798972945796
 30
0.0
 10
-12.6647809620268
 20
-8.148722728671637
 30
0.0
 10
-12.66478096202065
 20
-8.011703237464518
 30
0.0
 10
-12.66478096202065
 20
-8.011703237464518
 30
0.0
 10
-12.66478096191273
 20
-5.60789470843704
 30
0.0
 10
-12.66478096191273
 20
-5.60789470843704
 30
0.0
 10
-12.66478096190658
 20
-5.470875217229907
 30
0.0
 10
-12.77585720618074
 20
-5.359798972945768
 30
0.0
 10
-12.91287669738787
 20
-5.359798972939617
 30
0.0
 10
-12.91287669738787
 20
-5.359798972939617
 30
0.0
 10
-14.4166852264153
 20
-5.359798972872113
 30
0.0
 10
-14.4166852264153
 20
-5.359798972872113
 30
0.0
 10
-14.55370471762243
 20
-5.35979897286596
 30
0.0
 10
-14.66478096190658
 20
-5.470875217140132
 30
0.0
 10
-14.66478096191273
 20
-5.607894708347266
 30
0.0
  0
CIRCLE
  5
B5
330
70
100
AcDbEntity
  8
Layer 1
 62
     1
420
 16711680
370
    35
100
AcDbCircle
 10
-12.28976006578266
 20
-8.934798972967616
 30
0.0
 40
0.0624999992105586
  0
CIRCLE
  5
B6
330
70
100
AcDbEntity
  8
Layer 1
 62
     1
420
 16711680
370
    35
100
AcDbCircle
 10
-12.28978096187128
 20
-4.684798972967617
 30
0.0
 40
0.0624999999999984
  0
CIRCLE
  5
B7
330
70
100
AcDbEntity
  8
Layer 1
 62
     1
420
 16711680
370
    35
100
AcDbCircle
 10
-15.03978096206209
 20
-8.934798972844152
 30
0.0
 40
0.0625
  0
CIRCLE
  5
B8
330
70
100
AcDbEntity
  8
Layer 1
 62
     1
420
 16711680
370
    35
100
AcDbCircle
 10
-15.03978096187128
 20
-4.684798972844153
 30
0.0
 40
0.0624999999999984
  0
CIRCLE
  5
B9
330
70
100
AcDbEntity
  8
Layer 1
 62
     1
420
 16711680
370
    35
100
AcDbCircle
 10
-13.56633096222338
 20
-12.5254460524678
 30
0.0
 40
0.0984499999999671
  0
CIRCLE
  5
BA
330
70
100
AcDbEntity
  8
Layer 1
 62
     1
420
 16711680
370
    35
100
AcDbCircle
 10
-13.56633096248851
 20
-18.43095786349106
 30
0.0
 40
0.0984500000000065
  0
CIRCLE
  5
BB
330
70
100
AcDbEntity
  8
Layer 1
 62
     1
420
 16711680
370
    35
100
AcDbCircle
 10
-6.873430962223377
 20
-12.52544386556273
 30
0.0
 40
0.0984500000000018
  0
CIRCLE
  5
BC
330
70
100
AcDbEntity
  8
Layer 1
 62
     1
420
 16711680
370
    35
100
AcDbCircle
 10
-6.873430962488511
 20
-18.43095567658599
 30
0.0
 40
0.0984500000000413
  0
LWPOLYLINE
  5
BD
330
70
100
AcDbEntity
  8
Layer 1
 62
     1
420
 16711680
370
    35
100
AcDbPolyline
 90
        1
 70
     0
 43
0.0
 10
-16.44273096190409
 20
-5.412009390734775
  0
SPLINE
  5
BE
330
70
100
AcDbEntity
  8
Layer 1
 62
     1
420
 16711680
370
    35
100
AcDbSpline
210
0.0
220
0.0
230
1.0
 70
     8
 71
     3
 72
     8
 73
     4
 74
     0
 42
0.0000000001
 43
0.0000000001
 40
0.0
 40
0.0
 40
0.0
 40
0.0
 40
1.0
 40
1.0
 40
1.0
 40
1.0
 10
-16.31871311126139
 20
-7.774262680395495
 30
0.0
 10
-16.31838165645459
 20
-7.77426183268508
 30
0.0
 10
-16.31806206959472
 20
-7.774213513186357
 30
0.0
 10
-16.31773061478792
 20
-7.77421351318637
 30
0.0
  0
SPLINE
  5
BF
330
70
100
AcDbEntity
  8
Layer 1
 62
     1
420
 16711680
370
    35
100
AcDbSpline
210
0.0
220
0.0
230
1.0
 70
     8
 71
     3
 72
    29
 73
    25
 74
     0
 42
0.0000000001
 43
0.0000000001
 40
0.0
 40
0.0
 40
0.0
 40
0.0
 40
1.0
 40
1.0
 40
1.0
 40
2.0
 40
2.0
 40
2.0
 40
3.0
 40
3.0
 40
3.0
 40
4.0
 40
4.0
 40
4.0
 40
5.0
 40
5.0
 40
5.0
 40
6.0
 40
6.0
 40
6.0
 40
7.0
 40
7.0
 40
7.0
 40
8.0
 40
8.0
 40
8.0
 40
8.0
 10
-16.44381518618159
 20
-5.412009042567496
 30
0.0
 10
-16.44383666697557
 20
-5.494449446973336
 30
0.0
 10
-16.44385751550997
 20
-5.573936500295417
 30
0.0
 10
-16.44387671929313
 20
-5.647558782277934
 30
0.0
 10
-16.44358171603794
 20
-5.649403400333501
 30
0.0
 10
-16.44139462293952
 20
-5.659928573944701
 30
0.0
 10
-16.4411674365246
 20
-5.661562959795408
 30
0.0
 10
-16.43459598470206
 20
-5.670033283146405
 30
0.0
 10
-16.42772952962459
 20
-5.683230440264765
 30
0.0
 10
-16.41926937880018
 20
-5.690052814397088
 30
0.0
 10
-16.41619049425153
 20
-5.688994871688893
 30
0.0
 10
-16.39707970866166
 20
-5.697980603026558
 30
0.0
 10
-16.3938719721165
 20
-5.697553356932947
 30
0.0
 10
-16.38645959147413
 20
-5.697533011881205
 30
0.0
 10
-16.37621924859219
 20
-5.697573701985826
 30
0.0
 10
-16.36881364963385
 20
-5.697539793566016
 30
0.0
 10
-16.33659386881803
 20
-5.700930635581357
 30
0.0
 10
-16.32542443522507
 20
-5.718305310061029
 30
0.0
 10
-16.31879872993124
 20
-5.747527586537014
 30
0.0
 10
-16.31880551161612
 20
-5.766587509497147
 30
0.0
 10
-16.31881314101158
 20
-5.786208616810464
 30
0.0
 10
-16.3188199226965
 20
-5.805765298125619
 30
0.0
 10
-16.31845201633789
 20
-5.805763602704524
 30
0.0
 10
-16.31809852105803
 20
-5.805710196942881
 30
0.0
 10
-16.31773061469953
 20
-5.805710196942893
 30
0.0
  0
SPLINE
  5
C0
330
70
100
AcDbEntity
  8
Layer 1
 62
     1
420
 16711680
370
    35
100
AcDbSpline
210
0.0
220
0.0
230
1.0
 70
     8
 71
     3
 72
    11
 73
     7
 74
     0
 42
0.0000000001
 43
0.0000000001
 40
0.0
 40
0.0
 40
0.0
 40
0.0
 40
1.0
 40
1.0
 40
1.0
 40
2.0
 40
2.0
 40
2.0
 40
2.0
 10
-5.473350690845273
 20
-8.259798973273657
 30
0.0
 10
-5.636426455819231
 20
-8.259798973266343
 30
0.0
 10
-5.768626061119284
 20
-8.127600215664983
 30
0.0
 10
-5.768626061111957
 20
-7.964523602980521
 30
0.0
 10
-5.768626061104643
 20
-7.801446990296085
 30
0.0
 10
-5.636426455792716
 20
-7.669248232706459
 30
0.0
 10
-5.473350690818758
 20
-7.669248232713774
 30
0.0
  0
LWPOLYLINE
  5
C1
330
70
100
AcDbEntity
  8
Layer 1
 62
     1
420
 16711680
370
    35
100
AcDbPolyline
 90
        4
 70
     0
 43
0.0
 10
-5.473350690748739
 20
-6.109798973273629
 10
-5.893850756964196
 20
-6.109798973254757
 10
-5.893850757027053
 20
-7.509798973254898
 10
-5.473350690811596
 20
-7.50979897327377
  0
CIRCLE
  5
C2
330
70
100
AcDbEntity
  8
Layer 1
 62
     1
420
 16711680
370
    35
100
AcDbCircle
 10
-6.08570912804435
 20
-6.809798973246225
 30
0.0
 40
0.0984499999999308
  0
CIRCLE
  5
C3
330
70
100
AcDbEntity
  8
Layer 1
 62
     1
420
 16711680
370
    35
100
AcDbCircle
 10
-6.794370545367187
 20
-6.809798973214405
 30
0.0
 40
0.0984499999999308
  0
SPLINE
  5
C4
330
70
100
AcDbEntity
  8
Layer 1
 62
     1
420
 16711680
370
    35
100
AcDbSpline
210
0.0
220
0.0
230
1.0
 70
     8
 71
     3
 72
    11
 73
     7
 74
     0
 42
0.0000000001
 43
0.0000000001
 40
0.0
 40
0.0
 40
0.0
 40
0.0
 40
1.0
 40
1.0
 40
1.0
 40
2.0
 40
2.0
 40
2.0
 40
2.0
 10
-5.473350690881235
 20
-9.06083863263489
 30
0.0
 10
-5.636426455855194
 20
-9.060838632627577
 30
0.0
 10
-5.768626061155246
 20
-8.928639875026078
 30
0.0
 10
-5.76862606114792
 20
-8.765563262341641
 30
0.0
 10
-5.768626061140606
 20
-8.60248664965718
 30
0.0
 10
-5.636426455828679
 20
-8.470287892067705
 30
0.0
 10
-5.473350690854721
 20
-8.47028789207502
 30
0.0
  0
SPLINE
  5
C5
330
70
100
AcDbEntity
  8
Layer 1
 62
     1
420
 16711680
370
    35
100
AcDbSpline
210
0.0
220
0.0
230
1.0
 70
     8
 71
     3
 72
    11
 73
     7
 74
     0
 42
0.0000000001
 43
0.0000000001
 40
0.0
 40
0.0
 40
0.0
 40
0.0
 40
1.0
 40
1.0
 40
1.0
 40
2.0
 40
2.0
 40
2.0
 40
2.0
 10
-5.348037960620684
 20
-5.82971027137205
 30
0.0
 10
-5.511113725594642
 20
-5.829710271364723
 30
0.0
 10
-5.643313330894695
 20
-5.697511513763225
 30
0.0
 10
-5.643313330887369
 20
-5.534434901078788
 30
0.0
 10
-5.643313330880055
 20
-5.371358288394351
 30
0.0
 10
-5.511113725568129
 20
-5.239159530804878
 30
0.0
 10
-5.34803796059417
 20
-5.239159530812204
 30
0.0
  0
SPLINE
  5
C6
330
70
100
AcDbEntity
  8
Layer 1
 62
     1
420
 16711680
370
    35
100
AcDbSpline
210
0.0
220
0.0
230
1.0
 70
     8
 71
     3
 72
     8
 73
     4
 74
     0
 42
0.0000000001
 43
0.0000000001
 40
0.0
 40
0.0
 40
0.0
 40
0.0
 40
1.0
 40
1.0
 40
1.0
 40
1.0
 10
-5.473530834876795
 20
-8.259798848217389
 30
0.0
 10
-5.473542455129404
 20
-8.329933942568231
 30
0.0
 10
-5.473554179177691
 20
-8.400097536440032
 30
0.0
 10
-5.473565965376956
 20
-8.470287859433231
 30
0.0
  0
SPLINE
  5
C7
330
70
100
AcDbEntity
  8
Layer 1
 62
     1
420
 16711680
370
    35
100
AcDbSpline
210
0.0
220
0.0
230
1.0
 70
     8
 71
     3
 72
     8
 73
     4
 74
     0
 42
0.0000000001
 43
0.0000000001
 40
0.0
 40
0.0
 40
0.0
 40
0.0
 40
1.0
 40
1.0
 40
1.0
 40
1.0
 10
-5.473412241935622
 20
-7.509798953795021
 30
0.0
 10
-5.473420106527618
 20
-7.56292885030032
 30
0.0
 10
-5.473428116942222
 20
-7.616078858127391
 30
0.0
 10
-5.473436254899411
 20
-7.669248200155859
 30
0.0
  0
SPLINE
  5
C8
330
70
100
AcDbEntity
  8
Layer 1
 62
     1
420
 16711680
370
    35
100
AcDbSpline
210
0.0
220
0.0
230
1.0
 70
     8
 71
     3
 72
    26
 73
    22
 74
     0
 42
0.0000000001
 43
0.0000000001
 40
0.0
 40
0.0
 40
0.0
 40
0.0
 40
1.0
 40
1.0
 40
1.0
 40
2.0
 40
2.0
 40
2.0
 40
3.0
 40
3.0
 40
3.0
 40
4.0
 40
4.0
 40
4.0
 40
5.0
 40
5.0
 40
5.0
 40
6.0
 40
6.0
 40
6.0
 40
7.0
 40
7.0
 40
7.0
 40
7.0
 10
-5.348855146710471
 20
-5.829705772244917
 30
0.0
 10
-5.349096554166686
 20
-5.874182806091438
 30
0.0
 10
-5.349415973566237
 20
-5.916538596439358
 30
0.0
 10
-5.34983164506597
 20
-5.956151615619609
 30
0.0
 10
-5.352273051316172
 20
-5.960593618657703
 30
0.0
 10
-5.351872931958874
 20
-5.968168759716743
 30
0.0
 10
-5.355311245761122
 20
-5.971891904247841
 30
0.0
 10
-5.364700487298174
 20
-5.984960209368952
 30
0.0
 10
-5.382644823236179
 20
-5.996373783586894
 30
0.0
 10
-5.398571608175529
 20
-5.998849098256313
 30
0.0
 10
-5.414325460172019
 20
-5.998096331328522
 30
0.0
 10
-5.433188714295321
 20
-5.998964386883231
 30
0.0
 10
-5.447745599061262
 20
-6.00581388775063
 30
0.0
 10
-5.451970588210744
 20
-6.009754046170579
 30
0.0
 10
-5.461342875537487
 20
-6.017742869954885
 30
0.0
 10
-5.465344069114053
 20
-6.021784753635263
 30
0.0
 10
-5.472078281354293
 20
-6.036277212402321
 30
0.0
 10
-5.47521481021839
 20
-6.064109243652183
 30
0.0
 10
-5.473614332788542
 20
-6.079924130805036
 30
0.0
 10
-5.473618768500942
 20
-6.089830868795021
 30
0.0
 10
-5.473622655216735
 20
-6.099790095066964
 30
0.0
 10
-5.473626017647284
 20
-6.10979885755474
 30
0.0
  0
SPLINE
  5
C9
330
70
100
AcDbEntity
  8
Layer 1
 62
     1
420
 16711680
370
    35
100
AcDbSpline
210
0.0
220
0.0
230
1.0
 70
     8
 71
     3
 72
   173
 73
   169
 74
     0
 42
0.0000000001
 43
0.0000000001
 40
0.0
 40
0.0
 40
0.0
 40
0.0
 40
1.0
 40
1.0
 40
1.0
 40
2.0
 40
2.0
 40
2.0
 40
3.0
 40
3.0
 40
3.0
 40
4.0
 40
4.0
 40
4.0
 40
5.0
 40
5.0
 40
5.0
 40
6.0
 40
6.0
 40
6.0
 40
7.0
 40
7.0
 40
7.0
 40
8.0
 40
8.0
 40
8.0
 40
9.0
 40
9.0
 40
9.0
 40
10.0
 40
10.0
 40
10.0
 40
11.0
 40
11.0
 40
11.0
 40
12.0
 40
12.0
 40
12.0
 40
13.0
 40
13.0
 40
13.0
 40
14.0
 40
14.0
 40
14.0
 40
15.0
 40
15.0
 40
15.0
 40
16.0
 40
16.0
 40
16.0
 40
17.0
 40
17.0
 40
17.0
 40
18.0
 40
18.0
 40
18.0
 40
19.0
 40
19.0
 40
19.0
 40
20.0
 40
20.0
 40
20.0
 40
21.0
 40
21.0
 40
21.0
 40
22.0
 40
22.0
 40
22.0
 40
23.0
 40
23.0
 40
23.0
 40
24.0
 40
24.0
 40
24.0
 40
25.0
 40
25.0
 40
25.0
 40
26.0
 40
26.0
 40
26.0
 40
27.0
 40
27.0
 40
27.0
 40
28.0
 40
28.0
 40
28.0
 40
29.0
 40
29.0
 40
29.0
 40
30.0
 40
30.0
 40
30.0
 40
31.0
 40
31.0
 40
31.0
 40
32.0
 40
32.0
 40
32.0
 40
33.0
 40
33.0
 40
33.0
 40
34.0
 40
34.0
 40
34.0
 40
35.0
 40
35.0
 40
35.0
 40
36.0
 40
36.0
 40
36.0
 40
37.0
 40
37.0
 40
37.0
 40
38.0
 40
38.0
 40
38.0
 40
39.0
 40
39.0
 40
39.0
 40
40.0
 40
40.0
 40
40.0
 40
41.0
 40
41.0
 40
41.0
 40
42.0
 40
42.0
 40
42.0
 40
43.0
 40
43.0
 40
43.0
 40
44.0
 40
44.0
 40
44.0
 40
45.0
 40
45.0
 40
45.0
 40
46.0
 40
46.0
 40
46.0
 40
47.0
 40
47.0
 40
47.0
 40
48.0
 40
48.0
 40
48.0
 40
49.0
 40
49.0
 40
49.0
 40
50.0
 40
50.0
 40
50.0
 40
51.0
 40
51.0
 40
51.0
 40
52.0
 40
52.0
 40
52.0
 40
53.0
 40
53.0
 40
53.0
 40
54.0
 40
54.0
 40
54.0
 40
55.0
 40
55.0
 40
55.0
 40
56.0
 40
56.0
 40
56.0
 40
56.0
 10
-16.44273096190409
 20
-5.412009390734775
 30
0.0
 10
-16.44296153913045
 20
-4.73086382866879
 30
0.0
 10
-16.4439198814346
 20
-3.233217316076383
 30
0.0
 10
-16.44387240961576
 20
-2.550566220156257
 30
0.0
 10
-16.44812113465291
 20
-2.40959535427065
 30
0.0
 10
-16.44132927809189
 20
-2.250829349496648
 30
0.0
 10
-16.40482008212227
 20
-2.113812205401055
 30
0.0
 10
-16.3775339764338
 20
-2.055028568249503
 30
0.0
 10
-16.3309302437902
 20
-1.9501701698141
 30
0.0
 10
-16.3039900039873
 20
-1.89179682454614
 30
0.0
 10
-16.27184143085171
 20
-1.850859188913975
 30
0.0
 10
-16.22258266891338
 20
-1.79219084039188
 30
0.0
 10
-16.1898000083213
 20
-1.751799130323913
 30
0.0
 10
-16.16728142650635
 20
-1.737740699335341
 30
0.0
 10
-16.08661329499283
 20
-1.668543786361447
 30
0.0
 10
-16.06525099030471
 20
-1.65464811578949
 30
0.0
 10
-16.06524759946277
 20
-1.654637943263525
 30
0.0
 10
-16.06015116391568
 20
-1.651691301553606
 30
0.0
 10
-16.06015116391568
 20
-1.651691301553606
 30
0.0
 10
-16.06015116391568
 20
-1.651691301553606
 30
0.0
 10
-15.95721961145005
 20
-1.59419957521282
 30
0.0
 10
-15.95721961145005
 20
-1.59419957521282
 30
0.0
 10
-15.94463958757847
 20
-1.593270484501582
 30
0.0
 10
-15.90568220368006
 20
-1.57568557781931
 30
0.0
 10
-15.89331241201331
 20
-1.573976593444854
 30
0.0
 10
-15.81338687490245
 20
-1.539393395748725
 30
0.0
 10
-15.70076344825242
 20
-1.523314022923917
 30
0.0
 10
-15.61438513879032
 20
-1.517892066547662
 30
0.0
 10
-15.42880096452844
 20
-1.523880293552514
 30
0.0
 10
-15.08627505849464
 20
-1.505817278159838
 30
0.0
 10
-14.90123341895557
 20
-1.525084042491067
 30
0.0
 10
-14.82962561730803
 20
-1.564383901435247
 30
0.0
 10
-14.72837168393339
 20
-1.611119876917301
 30
0.0
 10
-14.65200653093989
 20
-1.639908125618641
 30
0.0
 10
-14.64001990442093
 20
-1.642878503223351
 30
0.0
 10
-14.6264565363654
 20
-1.643400692894096
 30
0.0
 10
-14.61416812490704
 20
-1.64298022848493
 30
0.0
 10
-14.22192908410843
 20
-1.642970055976421
 30
0.0
 10
-13.79662255199038
 20
-1.642980228521638
 30
0.0
 10
-13.40399017351815
 20
-1.642980228539259
 30
0.0
 10
-13.40399017351815
 20
-1.642980228539259
 30
0.0
 10
-13.40400373688621
 20
-1.64288528496287
 30
0.0
 10
-13.40400373688621
 20
-1.64288528496287
 30
0.0
 10
-13.39637773319698
 20
-1.642905630015295
 30
0.0
 10
-13.36348995650427
 20
-1.642990401067044
 30
0.0
 10
-13.35656246626989
 20
-1.643007355277505
 30
0.0
 10
-13.35656246626989
 20
-1.643007355277505
 30
0.0
 10
-13.35592498797134
 20
-1.644356910399058
 30
0.0
 10
-13.35592498797134
 20
-1.644356910399058
 30
0.0
 10
-13.35592498797134
 20
-1.644356910399058
 30
0.0
 10
-13.31609954851928
 20
-1.668038551025839
 30
0.0
 10
-13.31609954851928
 20
-1.668038551025839
 30
0.0
 10
-13.25812971345303
 20
-1.739191979847898
 30
0.0
 10
-13.15171152769566
 20
-1.884408179939479
 30
0.0
 10
-13.0962034439315
 20
-1.955622643917662
 30
0.0
 10
-13.09621022561552
 20
-1.955622643917662
 30
0.0
 10
-12.95584292961325
 20
-2.059745229644375
 30
0.0
 10
-12.95584292961325
 20
-2.059745229644375
 30
0.0
 10
-12.95583275708721
 20
-2.059755402170493
 30
0.0
 10
-12.92080874992693
 20
-2.085769942102615
 30
0.0
 10
-12.92078162319082
 20
-2.085752987892482
 30
0.0
 10
-12.90055864142022
 20
-2.091022356382962
 30
0.0
 10
-12.86717241095198
 20
-2.102307078606688
 30
0.0
 10
-12.84889238165532
 20
-2.107210236159592
 30
0.0
 10
-12.84889577249733
 20
-2.107210236159592
 30
0.0
 10
-12.56030799038338
 20
-2.198603600972976
 30
0.0
 10
-12.56030799038338
 20
-2.198603600972976
 30
0.0
 10
-12.56064368374277
 20
-2.198996938646574
 30
0.0
 10
-12.54249250644241
 20
-2.198569692553633
 30
0.0
 10
-12.54228905592158
 20
-2.198725671286284
 30
0.0
 10
-12.27761349168548
 20
-2.198813833190532
 30
0.0
 10
-11.84706132697192
 20
-2.19871549879138
 30
0.0
 10
-11.58166351338685
 20
-2.198759579749548
 30
0.0
 10
-11.5204927234563
 20
-2.198752798068261
 30
0.0
 10
-11.45850474060039
 20
-2.198752798071053
 30
0.0
 10
-11.39623192701533
 20
-2.198752798073845
 30
0.0
 10
-11.39631330722383
 20
-2.202486115131061
 30
0.0
 10
-11.39651336690282
 20
-2.206192305452304
 30
0.0
 10
-11.39651336690298
 20
-2.209942576719666
 30
0.0
 10
-11.39651336691539
 20
-2.486085968646749
 30
0.0
 10
-11.17265675885251
 20
-2.70994257672972
 30
0.0
 10
-10.89651336692543
 20
-2.709942576742112
 30
0.0
 10
-10.62037336584036
 20
-2.709942576754517
 30
0.0
 10
-10.39651336691539
 20
-2.486085968691643
 30
0.0
 10
-10.39651336690298
 20
-2.209942576764559
 30
0.0
 10
-10.39651336690282
 20
-2.206205868865254
 30
0.0
 10
-10.39671342658147
 20
-2.202516632754143
 30
0.0
 10
-10.39679480678964
 20
-2.19879348822288
 30
0.0
 10
-10.20730099168548
 20
-2.19892573106986
 30
0.0
 10
-9.929753791164632
 20
-2.198610382775099
 30
0.0
 10
-9.74708235019241
 20
-2.198742625621775
 30
0.0
 10
-9.74675004767505
 20
-2.198651072887489
 30
0.0
 10
-9.232437303534437
 20
-2.19889182269349
 30
0.0
 10
-9.232152472805257
 20
-2.198634118700447
 30
0.0
 10
-9.213373989732037
 20
-2.191906688145738
 30
0.0
 10
-8.972864956526159
 20
-2.130549401915282
 30
0.0
 10
-8.955761549407839
 20
-2.124744280388275
 30
0.0
 10
-8.95575476772381
 20
-2.124747671230213
 30
0.0
 10
-8.889653693503809
 20
-2.09664776346416
 30
0.0
 10
-8.889653693503809
 20
-2.09664776346416
 30
0.0
 10
-8.876724412904207
 20
-2.082406227006408
 30
0.0
 10
-8.829330614074642
 20
-2.050437368501598
 30
0.0
 10
-8.8154824152893
 20
-2.036490835299016
 30
0.0
 10
-8.77308332674603
 20
-2.000931075101334
 30
0.0
 10
-8.620210605386583
 20
-1.883316329014456
 30
0.0
 10
-8.589028422224739
 20
-1.835990347027935
 30
0.0
 10
-8.576865471919896
 20
-1.813149635222922
 30
0.0
 10
-8.484526062192166
 20
-1.6904587986386
 30
0.0
 10
-8.471562873172059
 20
-1.66797073440307
 30
0.0
 10
-8.471556091488031
 20
-1.66797073440307
 30
0.0
 10
-8.438875156157298
 20
-1.648554773033007
 30
0.0
 10
-8.438875156157298
 20
-1.648554773033007
 30
0.0
 10
-8.438736131634716
 20
-1.648195343779548
 30
0.0
 10
-8.433388773778586
 20
-1.643346439699927
 30
0.0
 10
-8.433212449993851
 20
-1.643007355498538
 30
0.0
 10
-8.426841057849754
 20
-1.642990401288683
 30
0.0
 10
-8.39502139639142
 20
-1.642905630239839
 30
0.0
 10
-8.387995571738644
 20
-1.642885285188071
 30
0.0
 10
-8.387995571738644
 20
-1.642885285188071
 30
0.0
 10
-8.388083733631004
 20
-1.642983619606398
 30
0.0
 10
-8.388083733631004
 20
-1.642983619606398
 30
0.0
 10
-8.017525736669186
 20
-1.642647926263735
 30
0.0
 10
-7.530624559368864
 20
-1.643217587743922
 30
0.0
 10
-7.157269117745587
 20
-1.642959883767629
 30
0.0
 10
-7.086051262926995
 20
-1.623120067147498
 30
0.0
 10
-6.958759053722385
 20
-1.551522438030019
 30
0.0
 10
-6.890609910926046
 20
-1.524877201487937
 30
0.0
 10
-6.883102586707283
 20
-1.524531335602862
 30
0.0
 10
-6.872116258582018
 20
-1.518638052183215
 30
0.0
 10
-6.865134514875395
 20
-1.517905630308531
 30
0.0
 10
-6.865107388139271
 20
-1.51775643325992
 30
0.0
 10
-6.42143944651602
 20
-1.51800057390484
 30
0.0
 10
-6.421347893781645
 20
-1.517892066960396
 30
0.0
 10
-6.350377570430964
 20
-1.518261668743017
 30
0.0
 10
-6.248798116220869
 20
-1.517627581291056
 30
0.0
 10
-6.17803124339102
 20
-1.517892066971322
 30
0.0
 10
-6.104277038746949
 20
-1.518583798745465
 30
0.0
 10
-5.934972296995296
 20
-1.559009417242653
 30
0.0
 10
-5.863862949123017
 20
-1.581032936125969
 30
0.0
 10
-5.83146684452327
 20
-1.602171445242017
 30
0.0
 10
-5.753436788100935
 20
-1.630698599108439
 30
0.0
 10
-5.725781080636857
 20
-1.657269237130511
 30
0.0
 10
-5.703727044179395
 20
-1.676624163346787
 30
0.0
 10
-5.642637634459043
 20
-1.718297611700222
 30
0.0
 10
-5.620173306117824
 20
-1.736204648376504
 30
0.0
 10
-5.602066209764264
 20
-1.749527266649958
 30
0.0
 10
-5.558521016624227
 20
-1.801386804412332
 30
0.0
 10
-5.541356574350616
 20
-1.816882952416575
 30
0.0
 10
-5.515013122746646
 20
-1.859817793997611
 30
0.0
 10
-5.466700405735852
 20
-1.928780738878256
 30
0.0
 10
-5.444737922013914
 20
-1.973939972820213
 30
0.0
 10
-5.408649190463784
 20
-2.055950877769747
 30
0.0
 10
-5.367365688949335
 20
-2.159480066139659
 30
0.0
 10
-5.358207024673851
 20
-2.249327206982014
 30
0.0
 10
-5.352530755144786
 20
-2.297904409673239
 30
0.0
 10
-5.346464538784983
 20
-2.365880619526011
 30
0.0
 10
-5.348546515783722
 20
-2.415007138623145
 30
0.0
 10
-5.348983086721747
 20
-3.055035350428675
 30
0.0
 10
-5.348445638296778
 20
-3.817283071782867
 30
0.0
 10
-5.348131985440216
 20
-4.479636587407879
 30
0.0
 10
-5.511164517178498
 20
-4.479687450030698
 30
0.0
 10
-5.643313259860229
 20
-4.61186247172615
 30
0.0
 10
-5.643313259867555
 20
-4.774907719121983
 30
0.0
 10
-5.643313259874856
 20
-4.937715607576844
 30
0.0
 10
-5.511532423563506
 20
-5.069710914657497
 30
0.0
 10
-5.348822869527061
 20
-5.070141551600486
 30
0.0
 10
-5.348733555720652
 20
-5.125497570459793
 30
0.0
 10
-5.34862644064137
 20
-5.182118268360909
 30
0.0
 10
-5.348526271384242
 20
-5.239160395740352
 30
0.0
  0
SPLINE
  5
CA
330
70
100
AcDbEntity
  8
Layer 1
 62
     1
420
 16711680
370
    35
100
AcDbSpline
210
0.0
220
0.0
230
1.0
 70
     8
 71
     3
 72
   233
 73
   229
 74
     0
 42
0.0000000001
 43
0.0000000001
 40
0.0
 40
0.0
 40
0.0
 40
0.0
 40
1.0
 40
1.0
 40
1.0
 40
2.0
 40
2.0
 40
2.0
 40
3.0
 40
3.0
 40
3.0
 40
4.0
 40
4.0
 40
4.0
 40
5.0
 40
5.0
 40
5.0
 40
6.0
 40
6.0
 40
6.0
 40
7.0
 40
7.0
 40
7.0
 40
8.0
 40
8.0
 40
8.0
 40
9.0
 40
9.0
 40
9.0
 40
10.0
 40
10.0
 40
10.0
 40
11.0
 40
11.0
 40
11.0
 40
12.0
 40
12.0
 40
12.0
 40
13.0
 40
13.0
 40
13.0
 40
14.0
 40
14.0
 40
14.0
 40
15.0
 40
15.0
 40
15.0
 40
16.0
 40
16.0
 40
16.0
 40
17.0
 40
17.0
 40
17.0
 40
18.0
 40
18.0
 40
18.0
 40
19.0
 40
19.0
 40
19.0
 40
20.0
 40
20.0
 40
20.0
 40
21.0
 40
21.0
 40
21.0
 40
22.0
 40
22.0
 40
22.0
 40
23.0
 40
23.0
 40
23.0
 40
24.0
 40
24.0
 40
24.0
 40
25.0
 40
25.0
 40
25.0
 40
26.0
 40
26.0
 40
26.0
 40
27.0
 40
27.0
 40
27.0
 40
28.0
 40
28.0
 40
28.0
 40
29.0
 40
29.0
 40
29.0
 40
30.0
 40
30.0
 40
30.0
 40
31.0
 40
31.0
 40
31.0
 40
32.0
 40
32.0
 40
32.0
 40
33.0
 40
33.0
 40
33.0
 40
34.0
 40
34.0
 40
34.0
 40
35.0
 40
35.0
 40
35.0
 40
36.0
 40
36.0
 40
36.0
 40
37.0
 40
37.0
 40
37.0
 40
38.0
 40
38.0
 40
38.0
 40
39.0
 40
39.0
 40
39.0
 40
40.0
 40
40.0
 40
40.0
 40
41.0
 40
41.0
 40
41.0
 40
42.0
 40
42.0
 40
42.0
 40
43.0
 40
43.0
 40
43.0
 40
44.0
 40
44.0
 40
44.0
 40
45.0
 40
45.0
 40
45.0
 40
46.0
 40
46.0
 40
46.0
 40
47.0
 40
47.0
 40
47.0
 40
48.0
 40
48.0
 40
48.0
 40
49.0
 40
49.0
 40
49.0
 40
50.0
 40
50.0
 40
50.0
 40
51.0
 40
51.0
 40
51.0
 40
52.0
 40
52.0
 40
52.0
 40
53.0
 40
53.0
 40
53.0
 40
54.0
 40
54.0
 40
54.0
 40
55.0
 40
55.0
 40
55.0
 40
56.0
 40
56.0
 40
56.0
 40
57.0
 40
57.0
 40
57.0
 40
58.0
 40
58.0
 40
58.0
 40
59.0
 40
59.0
 40
59.0
 40
60.0
 40
60.0
 40
60.0
 40
61.0
 40
61.0
 40
61.0
 40
62.0
 40
62.0
 40
62.0
 40
63.0
 40
63.0
 40
63.0
 40
64.0
 40
64.0
 40
64.0
 40
65.0
 40
65.0
 40
65.0
 40
66.0
 40
66.0
 40
66.0
 40
67.0
 40
67.0
 40
67.0
 40
68.0
 40
68.0
 40
68.0
 40
69.0
 40
69.0
 40
69.0
 40
70.0
 40
70.0
 40
70.0
 40
71.0
 40
71.0
 40
71.0
 40
72.0
 40
72.0
 40
72.0
 40
73.0
 40
73.0
 40
73.0
 40
74.0
 40
74.0
 40
74.0
 40
75.0
 40
75.0
 40
75.0
 40
76.0
 40
76.0
 40
76.0
 40
76.0
 10
-5.473665577874258
 20
-9.060838618726682
 30
0.0
 10
-5.473913878137295
 20
-10.53972255163028
 30
0.0
 10
-5.474138066183083
 20
-12.02823305546692
 30
0.0
 10
-5.473950874192015
 20
-13.50990663406014
 30
0.0
 10
-5.686641439513437
 20
-13.5153523263249
 30
0.0
 10
-5.857417806708755
 20
-13.689346602576
 30
0.0
 10
-5.857417806718355
 20
-13.90334942375655
 30
0.0
 10
-5.857417806727968
 20
-14.1173997167253
 30
0.0
 10
-5.686565993313466
 20
-14.29142451056974
 30
0.0
 10
-5.473810154283758
 20
-14.29679560432929
 30
0.0
 10
-5.473667738946586
 20
-14.90744556092656
 30
0.0
 10
-5.473447334243031
 20
-15.51651877598728
 30
0.0
 10
-5.473112488621368
 20
-16.12266230354809
 30
0.0
 10
-5.473278639880062
 20
-16.12277759217656
 30
0.0
 10
-5.473705885973824
 20
-16.12307598627378
 30
0.0
 10
-5.473865255548477
 20
-16.12318449321818
 30
0.0
 10
-5.473885600610716
 20
-16.34929940207235
 30
0.0
 10
-5.473665195897638
 20
-16.7463941286349
 30
0.0
 10
-5.47361094243571
 20
-16.97568964729809
 30
0.0
 10
-5.473580424861071
 20
-17.05343487299253
 30
0.0
 10
-5.473638069182343
 20
-17.2099697037217
 30
0.0
 10
-5.473617724133734
 20
-17.28740297195087
 30
0.0
 10
-5.473000590887244
 20
-17.28837275276684
 30
0.0
 10
-5.465032112155805
 20
-17.3150586794165
 30
0.0
 10
-5.464672682902346
 20
-17.31533672846169
 30
0.0
 10
-5.445480517104897
 20
-17.34120207134449
 30
0.0
 10
-5.417234803129
 20
-17.33665156136312
 30
0.0
 10
-5.389219666410363
 20
-17.33914043940258
 30
0.0
 10
-5.367470805733445
 20
-17.34285002056673
 30
0.0
 10
-5.352449375613016
 20
-17.36718948454308
 30
0.0
 10
-5.348539734771899
 20
-17.38737177620995
 30
0.0
 10
-5.348475308816305
 20
-18.33777053923078
 30
0.0
 10
-5.348627896752721
 20
-19.35762052838009
 30
0.0
 10
-5.348834738158289
 20
-20.30921286778976
 30
0.0
 10
-5.348831347318928
 20
-20.36834237082801
 30
0.0
 10
-5.348773703007812
 20
-20.43771221674814
 30
0.0
 10
-5.348604160909783
 20
-20.49697057178287
 30
0.0
 10
-5.348604160909783
 20
-20.49697057178287
 30
0.0
 10
-5.348570252490326
 20
-20.51233108610578
 30
0.0
 10
-5.348570252490326
 20
-20.51233108610578
 30
0.0
 10
-5.348722840380976
 20
-20.5127990223037
 30
0.0
 10
-5.349394227099764
 20
-20.51370776796337
 30
0.0
 10
-5.349553596674442
 20
-20.51414179574115
 30
0.0
 10
-5.349553596674442
 20
-20.51414179574115
 30
0.0
 10
-5.351476204096557
 20
-20.51959426969938
 30
0.0
 10
-5.351476204096557
 20
-20.51959426969938
 30
0.0
 10
-5.352150981657397
 20
-20.52119474712994
 30
0.0
 10
-5.373252191512543
 20
-20.5816738052887
 30
0.0
 10
-5.377622986868459
 20
-20.58201967117391
 30
0.0
 10
-5.466486783526192
 20
-20.57641121847895
 30
0.0
 10
-5.602476502493295
 20
-20.57844572368117
 30
0.0
 10
-5.692286344073585
 20
-20.58798755310421
 30
0.0
 10
-5.924820116859172
 20
-20.568503774882
 30
0.0
 10
-6.187905376191539
 20
-20.58562074535629
 30
0.0
 10
-6.421347894637543
 20
-20.58172127702985
 30
0.0
 10
-6.45688052810111
 20
-20.58223668501435
 30
0.0
 10
-6.580347867510631
 20
-20.57787606217893
 30
0.0
 10
-6.613744270505586
 20
-20.58155173492052
 30
0.0
 10
-6.671802267468414
 20
-20.60439922840747
 30
0.0
 10
-6.827343581490695
 20
-20.67514575617828
 30
0.0
 10
-6.886479866214067
 20
-20.70086868369296
 30
0.0
 10
-6.929204475590848
 20
-20.74054153525354
 30
0.0
 10
-7.029468283106211
 20
-20.88926386597821
 30
0.0
 10
-7.053241476468011
 20
-20.94332066936257
 30
0.0
 10
-7.078096348433164
 20
-21.01781746840659
 30
0.0
 10
-7.105996196528659
 20
-21.13407587769353
 30
0.0
 10
-7.114714051349892
 20
-21.21266881389104
 30
0.0
 10
-7.127968852786882
 20
-21.31713387465437
 30
0.0
 10
-7.126158143162367
 20
-21.56009448663359
 30
0.0
 10
-7.129050531404977
 20
-21.66612611640779
 30
0.0
 10
-7.129603238653341
 20
-21.66839798055705
 30
0.0
 10
-7.139019606926366
 20
-21.67848234470595
 30
0.0
 10
-7.14023013752545
 20
-21.68120858168506
 30
0.0
 10
-7.145906407056864
 20
-21.68483678263967
 30
0.0
 10
-7.165776741258481
 20
-21.68995017239571
 30
0.0
 10
-7.172165087612736
 20
-21.69209996623221
 30
0.0
 10
-7.172226122769138
 20
-21.69539586466971
 30
0.0
 10
-7.625988601067584
 20
-21.6916727201181
 30
0.0
 10
-7.627745057230829
 20
-21.69280526135069
 30
0.0
 10
-8.397896831319409
 20
-21.69358515497927
 30
0.0
 10
-9.511418831102369
 20
-21.69315112715152
 30
0.0
 10
-10.29158376165794
 20
-21.69328676079706
 30
0.0
 10
-10.32638736408849
 20
-21.69327997911147
 30
0.0
 10
-10.3615741316666
 20
-21.69326641574179
 30
0.0
 10
-10.39652014946174
 20
-21.6932596340562
 30
0.0
 10
-10.39664900144588
 20
-21.41722474907356
 30
0.0
 10
-10.62045135603653
 20
-21.19349699298712
 30
0.0
 10
-10.89651336775528
 20
-21.19349699297474
 30
0.0
 10
-11.17249060842368
 20
-21.19349699296236
 30
0.0
 10
-11.39623192787817
 20
-21.41708911534814
 30
0.0
 10
-11.39650319525167
 20
-21.69300193001828
 30
0.0
 10
-12.47191213079854
 20
-21.69274422597692
 30
0.0
 10
-13.57903222085929
 20
-21.69260181056261
 30
0.0
 10
-14.6208718204687
 20
-21.69327997891866
 30
0.0
 10
-14.62087860215271
 20
-21.69316469029018
 30
0.0
 10
-14.62096337320301
 20
-21.69212709263393
 30
0.0
 10
-14.62097693657107
 20
-21.69198467726935
 30
0.0
 10
-14.62175683023423
 20
-21.69146248759916
 30
0.0
 10
-14.62284189967857
 20
-21.68889901103661
 30
0.0
 10
-14.62322167398409
 20
-21.68807164558522
 30
0.0
 10
-14.63362138644053
 20
-21.68472149367499
 30
0.0
 10
-14.64563513969557
 20
-21.68091018725088
 30
0.0
 10
-14.65640445393161
 20
-21.67936396329204
 30
0.0
 10
-14.66233503661357
 20
-21.6720193994897
 30
0.0
 10
-14.6643220700333
 20
-21.66264033047918
 30
0.0
 10
-14.66355234889572
 20
-21.65349183872576
 30
0.0
 10
-14.66667192354775
 20
-21.63651728360408
 30
0.0
 10
-14.66649220890779
 20
-21.34241599237144
 30
0.0
 10
-14.66914384736146
 20
-21.31556730530537
 30
0.0
 10
-14.67858395152533
 20
-21.25329110087783
 30
0.0
 10
-14.69585350989598
 20
-21.11781339905416
 30
0.0
 10
-14.70587344804429
 20
-21.05702916511273
 30
0.0
 10
-14.7163375864968
 20
-21.00459996589353
 30
0.0
 10
-14.7739310380971
 20
-20.87965421936317
 30
0.0
 10
-14.79643266569903
 20
-20.82996482049063
 30
0.0
 10
-14.82578379416947
 20
-20.79016311693029
 30
0.0
 10
-14.87955237598026
 20
-20.71352330572995
 30
0.0
 10
-14.9190760304928
 20
-20.68335837517262
 30
0.0
 10
-14.91907263965078
 20
-20.6833515934886
 30
0.0
 10
-15.01305999858997
 20
-20.64377368549824
 30
0.0
 10
-15.01305999858997
 20
-20.64377368549824
 30
0.0
 10
-15.03063812358965
 20
-20.63643590337943
 30
0.0
 10
-15.13236338400377
 20
-20.57970711648247
 30
0.0
 10
-15.15125376486341
 20
-20.5855868365337
 30
0.0
 10
-15.22933468391685
 20
-20.57727249191215
 30
0.0
 10
-15.37411346538386
 20
-20.57710294980494
 30
0.0
 10
-15.45189599034064
 20
-20.58132115726673
 30
0.0
 10
-15.75336897211145
 20
-20.57954435603791
 30
0.0
 10
-16.11392991910584
 20
-20.5816331147023
 30
0.0
 10
-16.41481628520851
 20
-20.58528844237978
 30
0.0
 10
-16.42057054410561
 20
-20.5762009857823
 30
0.0
 10
-16.42716573182208
 20
-20.56239347710144
 30
0.0
 10
-16.43531731602314
 20
-20.55513707519137
 30
0.0
 10
-16.43711785313216
 20
-20.54892505262182
 30
0.0
 10
-16.43793165521509
 20
-20.5398986311808
 30
0.0
 10
-16.44364861485033
 20
-20.53582962076388
 30
0.0
 10
-16.44222785201539
 20
-19.84125632432296
 30
0.0
 10
-16.44512363106171
 20
-19.09410463161453
 30
0.0
 10
-16.44386562864331
 20
-18.39999248968749
 30
0.0
 10
-16.44385884695005
 20
-18.19406665418402
 30
0.0
 10
-16.44386901946343
 20
-17.91025317762152
 30
0.0
 10
-16.44387241029608
 20
-17.70357457519097
 30
0.0
 10
-16.44612392939278
 20
-17.69208640244781
 30
0.0
 10
-16.43861660517323
 20
-17.67389792588566
 30
0.0
 10
-16.43623284323704
 20
-17.66295906954896
 30
0.0
 10
-16.42868482891374
 20
-17.65438023925412
 30
0.0
 10
-16.41607428746365
 20
-17.64652704915056
 30
0.0
 10
-16.40631883498953
 20
-17.64110848361277
 30
0.0
 10
-16.39557664748942
 20
-17.63848397189453
 30
0.0
 10
-16.37990417570121
 20
-17.63834833821468
 30
0.0
 10
-16.36882290399985
 20
-17.6386942041006
 30
0.0
 10
-16.36224806133489
 20
-17.63996916069807
 30
0.0
 10
-16.35078023364359
 20
-17.63248218153196
 30
0.0
 10
-16.34466993633452
 20
-17.63174975965721
 30
0.0
 10
-16.34466993633452
 20
-17.63174297797319
 30
0.0
 10
-16.33387688620395
 20
-17.62204516981397
 30
0.0
 10
-16.33387688620395
 20
-17.62204516981397
 30
0.0
 10
-16.33387688620395
 20
-17.62204516981397
 30
0.0
 10
-16.32860073603013
 20
-17.61729799099473
 30
0.0
 10
-16.32860073603013
 20
-17.61729799099473
 30
0.0
 10
-16.32860073603013
 20
-17.61729799099473
 30
0.0
 10
-16.32706807543978
 20
-17.61574498535247
 30
0.0
 10
-16.32706807543978
 20
-17.61574498535247
 30
0.0
 10
-16.32036438077758
 20
-17.60094056912013
 30
0.0
 10
-16.31717359844136
 20
-17.57343405870357
 30
0.0
 10
-16.31880120260731
 20
-17.55736824924171
 30
0.0
 10
-16.31880289802516
 20
-17.48795093153338
 30
0.0
 10
-16.31880459344299
 20
-17.41817757541354
 30
0.0
 10
-16.31880798428194
 20
-17.34824824056116
 30
0.0
 10
-16.31838073818819
 20
-17.34824824056116
 30
0.0
 10
-16.3179636646204
 20
-17.34827875813928
 30
0.0
 10
-16.31753641852665
 20
-17.34827875813928
 30
0.0
 10
-16.10010036980707
 20
-17.34827875814903
 30
0.0
 10
-15.92383507710166
 20
-17.17201261774903
 30
0.0
 10
-15.92383507709189
 20
-16.95457826445042
 30
0.0
 10
-15.92383507708213
 20
-16.73714391115181
 30
0.0
 10
-16.10010036977173
 20
-16.56087777073584
 30
0.0
 10
-16.31753641849131
 20
-16.56087777072609
 30
0.0
 10
-16.31798400963714
 20
-16.56087777072609
 30
0.0
 10
-16.31842481909895
 20
-16.56091167914618
 30
0.0
 10
-16.31887241024478
 20
-16.56091167914618
 30
0.0
 10
-16.31887919192586
 20
-16.49532262207157
 30
0.0
 10
-16.31888597360694
 20
-16.42968609320868
 30
0.0
 10
-16.31888936444608
 20
-16.36399531087366
 30
0.0
 10
-16.31843499161622
 20
-16.36399531087366
 30
0.0
 10
-16.31799079131233
 20
-16.36402921929384
 30
0.0
 10
-16.31753641848247
 20
-16.36402921929384
 30
0.0
 10
-16.10010036976289
 20
-16.3640292193036
 30
0.0
 10
-15.92383507705747
 20
-16.18776307890349
 30
0.0
 10
-15.9238350770477
 20
-15.97032533476292
 30
0.0
 10
-15.92383507703794
 20
-15.75289098146431
 30
0.0
 10
-16.10010036972754
 20
-15.57662484104834
 30
0.0
 10
-16.31753641844712
 20
-15.57662484103859
 30
0.0
 10
-16.31799418211907
 20
-15.57662484103859
 30
0.0
 10
-16.31844516410684
 20
-15.57665874945868
 30
0.0
 10
-16.31890631862073
 20
-15.57666214030074
 30
0.0
 10
-16.31890123235472
 20
-15.51090354112534
 30
0.0
 10
-16.31889275524678
 20
-15.44526701226255
 30
0.0
 10
-16.31888597355981
 20
-15.37974238118616
 30
0.0
 10
-16.31843329615092
 20
-15.37974238118616
 30
0.0
 10
-16.3179874004262
 20
-15.37977628960635
 30
0.0
 10
-16.31753641843828
 20
-15.37977628960635
 30
0.0
 10
-16.1001003697187
 20
-15.3797762896161
 30
0.0
 10
-15.92383507701327
 20
-15.20351014921599
 30
0.0
 10
-15.92383507700352
 20
-14.98607579591738
 30
0.0
 10
-15.92383507699375
 20
-14.76864144261877
 30
0.0
 10
-16.10010036968334
 20
-14.5923753022029
 30
0.0
 10
-16.31753641840292
 20
-14.59237530219315
 30
0.0
 10
-16.31790262934042
 20
-14.59237530219315
 30
0.0
 10
-16.31826544943599
 20
-14.59240242892926
 30
0.0
 10
-16.31863166037349
 20
-14.59240242892921
 30
0.0
 10
-16.31859097026637
 20
-14.5267862451184
 30
0.0
 10
-16.31855028015926
 20
-14.46117006130768
 30
0.0
 10
-16.31851637173618
 20
-14.39549962402465
 30
0.0
 10
-16.31818746006076
 20
-14.3954996240247
 30
0.0
 10
-16.31786533006951
 20
-14.39552335991885
 30
0.0
 10
-16.31753641839409
 20
-14.39552335991885
 30
0.0
 10
-16.10010036967451
 20
-14.3955233599286
 30
0.0
 10
-15.92383507696908
 20
-14.21925721952849
 30
0.0
 10
-15.92383507695932
 20
-14.00182286622988
 30
0.0
 10
-15.92383507694956
 20
-13.78438851293127
 30
0.0
 10
-16.10010036963916
 20
-13.6081223725154
 30
0.0
 10
-16.31753641835874
 20
-13.60812237250565
 30
0.0
 10
-16.31776360477374
 20
-13.60812237250565
 30
0.0
 10
-16.31798740034666
 20
-13.60813932671567
 30
0.0
 10
-16.31821458676151
 20
-13.60813932671567
 30
0.0
 10
-16.31794162392842
 20
-12.47209535427648
 30
0.0
 10
-16.31829596670474
 20
-7.703270316571761
 30
0.0
 10
-16.3185570614547
 20
-5.805765298125631
 30
0.0
  0
ENDSEC
  0
SECTION
  2
OBJECTS
  0
DICTIONARY
  5
C
330
0
100
AcDbDictionary
281
     1
  3
ACAD_COLOR
350
63
  3
ACAD_DETAILVIEWSTYLE
350
6A
  3
ACAD_GROUP
350
D
  3
ACAD_LAYOUT
350
62
  3
ACAD_MATERIAL
350
10
  3
ACAD_MLEADERSTYLE
350
66
  3
ACAD_MLINESTYLE
350
5F
  3
ACAD_PLOTSETTINGS
350
61
  3
ACAD_PLOTSTYLENAME
350
E
  3
ACAD_SCALELIST
350
42
  3
ACAD_SECTIONVIEWSTYLE
350
68
  3
ACAD_TABLESTYLE
350
64
  3
ACAD_VISUALSTYLE
350
29
  3
ACDB_RECOMPOSE_DATA
350
D3
  3
AcDbVariableDictionary
350
CB
  0
DICTIONARY
  5
63
102
{ACAD_REACTORS
330
C
102
}
330
C
100
AcDbDictionary
281
     1
  0
DICTIONARY
  5
6A
102
{ACAD_REACTORS
330
C
102
}
330
C
100
AcDbDictionary
281
     1
  3
Imperial24
350
6B
  0
DICTIONARY
  5
D
102
{ACAD_REACTORS
330
C
102
}
330
C
100
AcDbDictionary
281
     1
  0
DICTIONARY
  5
62
102
{ACAD_REACTORS
330
C
102
}
330
C
100
AcDbDictionary
281
     1
  3
Layout1
350
6F
  3
Layout2
350
77
  3
Model
350
73
  0
DICTIONARY
  5
10
102
{ACAD_REACTORS
330
C
102
}
330
C
100
AcDbDictionary
281
     1
  3
ByBlock
350
19
  3
ByLayer
350
11
  3
Global
350
21
  0
DICTIONARY
  5
66
102
{ACAD_REACTORS
330
C
102
}
330
C
100
AcDbDictionary
281
     1
  3
Standard
350
67
  0
DICTIONARY
  5
5F
102
{ACAD_REACTORS
330
C
102
}
330
C
100
AcDbDictionary
281
     1
  3
Standard
350
60
  0
DICTIONARY
  5
61
102
{ACAD_REACTORS
330
C
102
}
330
C
100
AcDbDictionary
281
     1
  0
ACDBDICTIONARYWDFLT
  5
E
102
{ACAD_REACTORS
330
C
102
}
330
C
100
AcDbDictionary
281
     1
  3
Normal
350
F
100
AcDbDictionaryWithDefault
340
F
  0
DICTIONARY
  5
42
102
{ACAD_REACTORS
330
C
102
}
330
C
100
AcDbDictionary
281
     1
  3
A0
350
43
  3
A1
350
44
  3
A2
350
45
  3
A3
350
46
  3
A4
350
47
  3
A5
350
48
  3
A6
350
49
  3
A7
350
4A
  3
A8
350
4B
  3
A9
350
4C
  3
B0
350
4D
  3
B1
350
4E
  3
B2
350
4F
  3
B3
350
50
  3
B4
350
51
  3
B5
350
52
  3
B6
350
53
  0
DICTIONARY
  5
68
102
{ACAD_REACTORS
330
C
102
}
330
C
100
AcDbDictionary
281
     1
  3
Imperial24
350
69
  0
DICTIONARY
  5
64
102
{ACAD_REACTORS
330
C
102
}
330
C
100
AcDbDictionary
281
     1
  3
Standard
350
65
  0
DICTIONARY
  5
29
102
{ACAD_REACTORS
330
C
102
}
330
C
100
AcDbDictionary
281
     1
  3
2dWireframe
350
2F
  3
Basic
350
2E
  3
Brighten
350
35
  3
ColorChange
350
39
  3
Conceptual
350
32
  3
Dim
350
34
  3
EdgeColorOff
350
41
  3
Facepattern
350
38
  3
Flat
350
2A
  3
FlatWithEdges
350
2B
  3
Gouraud
350
2C
  3
GouraudWithEdges
350
2D
  3
Hidden
350
31
  3
JitterOff
350
3F
  3
Linepattern
350
37
  3
OverhangOff
350
40
  3
Realistic
350
33
  3
Shaded
350
3E
  3
Shaded with edges
350
3D
  3
Shades of Gray
350
3A
  3
Sketchy
350
3B
  3
Thicken
350
36
  3
Wireframe
350
30
  3
X-Ray
350
3C
  0
XRECORD
  5
D3
102
{ACAD_REACTORS
330
C
102
}
330
C
100
AcDbXrecord
280
     1
 90
        1
330
65
  0
DICTIONARY
  5
CB
102
{ACAD_REACTORS
330
C
102
}
330
C
100
AcDbDictionary
281
     1
  3
CANNOSCALE
350
D0
  3
CMLEADERSTYLE
350
CD
  3
CTABLESTYLE
350
CC
  3
CVIEWDETAILSTYLE
350
CE
  3
CVIEWSECTIONSTYLE
350
CF
  0
ACDBDETAILVIEWSTYLE
  5
6B
102
{ACAD_REACTORS
330
6A
102
}
330
6A
100
AcDbModelDocViewStyle
 70
     0
  3
Imperial24
290
     1
300
Imperial24
 90
        0
100
AcDbDetailViewStyle
 70
     0
 71
     0
 90
        3
 71
     1
340
55
 62
   256
 40
0.24
340
0
 62
   256
 40
0.24
300

 40
0.36
280
     3
 71
     2
340
5D
 90
       25
 62
   256
 71
     3
340
55
 62
   256
 40
0.24
 90
        1
 40
0.75
 90
        1
300
%<\AcVar ViewType \f "%tc1">% %<\AcVar ViewDetailId>%\PSCALE %<\AcVar ViewScale \f "%sn">%
 71
     4
340
5D
 90
       25
 62
   256
340
5D
 90
       25
 62
   256
280
     0
  0
LAYOUT
  5
6F
102
{ACAD_REACTORS
330
62
102
}
330
62
100
AcDbPlotSettings
  1

  2

  4

  6

 40
0.0
 41
0.0
 42
0.0
 43
0.0
 44
0.0
 45
0.0
 46
0.0
 47
0.0
 48
0.0
 49
0.0
140
0.0
141
0.0
142
1.0
143
1.0
 70
   688
 72
     0
 73
     0
 74
     5
  7

 75
    16
147
1.0
 76
     0
 77
     2
 78
   300
148
0.0
149
0.0
100
AcDbLayout
  1
Layout1
 70
     1
 71
     1
 10
0.0
 20
0.0
 11
12.0
 21
9.0
 12
0.0
 22
0.0
 32
0.0
 14
0.0
 24
0.0
 34
0.0
 15
0.0
 25
0.0
 35
0.0
146
0.0
 13
0.0
 23
0.0
 33
0.0
 16
1.0
 26
0.0
 36
0.0
 17
0.0
 27
1.0
 37
0.0
 76
     0
330
6C
  0
LAYOUT
  5
77
102
{ACAD_REACTORS
330
62
102
}
330
62
100
AcDbPlotSettings
  1

  2

  4

  6

 40
0.0
 41
0.0
 42
0.0
 43
0.0
 44
0.0
 45
0.0
 46
0.0
 47
0.0
 48
0.0
 49
0.0
140
0.0
141
0.0
142
1.0
143
1.0
 70
   688
 72
     0
 73
     0
 74
     5
  7

 75
    16
147
1.0
 76
     0
 77
     2
 78
   300
148
0.0
149
0.0
100
AcDbLayout
  1
Layout2
 70
     1
 71
     2
 10
0.0
 20
0.0
 11
12.0
 21
9.0
 12
0.0
 22
0.0
 32
0.0
 14
0.0
 24
0.0
 34
0.0
 15
0.0
 25
0.0
 35
0.0
146
0.0
 13
0.0
 23
0.0
 33
0.0
 16
1.0
 26
0.0
 36
0.0
 17
0.0
 27
1.0
 37
0.0
 76
     0
330
74
  0
LAYOUT
  5
73
102
{ACAD_REACTORS
330
62
102
}
330
62
100
AcDbPlotSettings
  1

  2

  4

  6

 40
0.0
 41
0.0
 42
0.0
 43
0.0
 44
0.0
 45
0.0
 46
0.0
 47
0.0
 48
0.0
 49
0.0
140
0.0
141
0.0
142
1.0
143
1.0
 70
  1712
 72
     0
 73
     0
 74
     0
  7

 75
     0
147
1.0
 76
     0
 77
     2
 78
   300
148
0.0
149
0.0
100
AcDbLayout
  1
Model
 70
     1
 71
     0
 10
0.0
 20
0.0
 11
12.0
 21
9.0
 12
0.0
 22
0.0
 32
0.0
 14
0.0
 24
0.0
 34
0.0
 15
0.0
 25
0.0
 35
0.0
146
0.0
 13
0.0
 23
0.0
 33
0.0
 16
1.0
 26
0.0
 36
0.0
 17
0.0
 27
1.0
 37
0.0
 76
     0
330
70
  0
MATERIAL
  5
19
102
{ACAD_XDICTIONARY
360
1A
102
}
102
{ACAD_REACTORS
330
10
102
}
330
10
100
AcDbMaterial
  1
ByBlock
 72
     0
 43
0.0208333333333333
 43
0.0
 43
0.0
 43
0.0
 43
0.0
 43
0.0208333333333333
 43
0.0
 43
0.0
 43
0.0
 43
0.0
 43
1.0
 43
0.0
 43
0.0
 43
0.0
 43
0.0
 43
1.0
 77
     0
 47
0.0208333333333333
 47
0.0
 47
0.0
 47
0.0
 47
0.0
 47
0.0208333333333333
 47
0.0
 47
0.0
 47
0.0
 47
0.0
 47
1.0
 47
0.0
 47
0.0
 47
0.0
 47
0.0
 47
1.0
171
     0
 49
0.0208333333333333
 49
0.0
 49
0.0
 49
0.0
 49
0.0
 49
0.0208333333333333
 49
0.0
 49
0.0
 49
0.0
 49
0.0
 49
1.0
 49
0.0
 49
0.0
 49
0.0
 49
0.0
 49
1.0
175
     0
142
0.0208333333333333
142
0.0
142
0.0
142
0.0
142
0.0
142
0.0208333333333333
142
0.0
142
0.0
142
0.0
142
0.0
142
1.0
142
0.0
142
0.0
142
0.0
142
0.0
142
1.0
179
     0
144
0.0208333333333333
144
0.0
144
0.0
144
0.0
144
0.0
144
0.0208333333333333
144
0.0
144
0.0
144
0.0
144
0.0
144
1.0
144
0.0
144
0.0
144
0.0
144
0.0
144
1.0
147
0.0208333333333333
147
0.0
147
0.0
147
0.0
147
0.0
147
0.0208333333333333
147
0.0
147
0.0
147
0.0
147
0.0
147
1.0
147
0.0
147
0.0
147
0.0
147
0.0
147
1.0
  0
MATERIAL
  5
11
102
{ACAD_XDICTIONARY
360
12
102
}
102
{ACAD_REACTORS
330
10
102
}
330
10
100
AcDbMaterial
  1
ByLayer
 72
     0
 43
0.0208333333333333
 43
0.0
 43
0.0
 43
0.0
 43
0.0
 43
0.0208333333333333
 43
0.0
 43
0.0
 43
0.0
 43
0.0
 43
1.0
 43
0.0
 43
0.0
 43
0.0
 43
0.0
 43
1.0
 77
     0
 47
0.0208333333333333
 47
0.0
 47
0.0
 47
0.0
 47
0.0
 47
0.0208333333333333
 47
0.0
 47
0.0
 47
0.0
 47
0.0
 47
1.0
 47
0.0
 47
0.0
 47
0.0
 47
0.0
 47
1.0
171
     0
 49
0.0208333333333333
 49
0.0
 49
0.0
 49
0.0
 49
0.0
 49
0.0208333333333333
 49
0.0
 49
0.0
 49
0.0
 49
0.0
 49
1.0
 49
0.0
 49
0.0
 49
0.0
 49
0.0
 49
1.0
175
     0
142
0.0208333333333333
142
0.0
142
0.0
142
0.0
142
0.0
142
0.0208333333333333
142
0.0
142
0.0
142
0.0
142
0.0
142
1.0
142
0.0
142
0.0
142
0.0
142
0.0
142
1.0
179
     0
144
0.0208333333333333
144
0.0
144
0.0
144
0.0
144
0.0
144
0.0208333333333333
144
0.0
144
0.0
144
0.0
144
0.0
144
1.0
144
0.0
144
0.0
144
0.0
144
0.0
144
1.0
147
0.0208333333333333
147
0.0
147
0.0
147
0.0
147
0.0
147
0.0208333333333333
147
0.0
147
0.0
147
0.0
147
0.0
147
1.0
147
0.0
147
0.0
147
0.0
147
0.0
147
1.0
  0
MATERIAL
  5
21
102
{ACAD_XDICTIONARY
360
22
102
}
102
{ACAD_REACTORS
330
10
102
}
330
10
100
AcDbMaterial
  1
Global
 72
     0
 43
0.0208333333333333
 43
0.0
 43
0.0
 43
0.0
 43
0.0
 43
0.0208333333333333
 43
0.0
 43
0.0
 43
0.0
 43
0.0
 43
1.0
 43
0.0
 43
0.0
 43
0.0
 43
0.0
 43
1.0
 77
     0
 47
0.0208333333333333
 47
0.0
 47
0.0
 47
0.0
 47
0.0
 47
0.0208333333333333
 47
0.0
 47
0.0
 47
0.0
 47
0.0
 47
1.0
 47
0.0
 47
0.0
 47
0.0
 47
0.0
 47
1.0
171
     0
 49
0.0208333333333333
 49
0.0
 49
0.0
 49
0.0
 49
0.0
 49
0.0208333333333333
 49
0.0
 49
0.0
 49
0.0
 49
0.0
 49
1.0
 49
0.0
 49
0.0
 49
0.0
 49
0.0
 49
1.0
175
     0
142
0.0208333333333333
142
0.0
142
0.0
142
0.0
142
0.0
142
0.0208333333333333
142
0.0
142
0.0
142
0.0
142
0.0
142
1.0
142
0.0
142
0.0
142
0.0
142
0.0
142
1.0
179
     0
144
0.0208333333333333
144
0.0
144
0.0
144
0.0
144
0.0
144
0.0208333333333333
144
0.0
144
0.0
144
0.0
144
0.0
144
1.0
144
0.0
144
0.0
144
0.0
144
0.0
144
1.0
147
0.0208333333333333
147
0.0
147
0.0
147
0.0
147
0.0
147
0.0208333333333333
147
0.0
147
0.0
147
0.0
147
0.0
147
1.0
147
0.0
147
0.0
147
0.0
147
0.0
147
1.0
  0
MLEADERSTYLE
  5
67
102
{ACAD_REACTORS
330
66
102
}
330
66
100
AcDbMLeaderStyle
179
     2
170
     2
171
     1
172
     0
 90
        2
 40
0.0
 41
0.0
173
     1
 91
-1056964608
340
5B
 92
       -2
290
     1
 42
0.09
291
     1
 43
0.36
  3
Standard
 44
0.18
300

342
55
174
     1
178
     6
175
     1
176
     0
 93
-1056964608
 45
0.18
292
     0
297
     0
 46
0.18
 94
-1056964608
 47
1.0
 49
1.0
140
1.0
293
     1
141
0.0
294
     1
177
     0
142
1.0
295
     1
296
     0
143
0.125
271
     0
272
     9
273
     9
298
     1
  0
MLINESTYLE
  5
60
102
{ACAD_REACTORS
330
5F
102
}
330
5F
100
AcDbMlineStyle
  2
STANDARD
 70
     0
  3

 62
   256
 51
90.0
 52
90.0
 71
     2
 49
0.5
 62
   256
  6
BYLAYER
 49
-0.5
 62
   256
  6
BYLAYER
  0
ACDBPLACEHOLDER
  5
F
102
{ACAD_REACTORS
330
E
102
}
330
E
  0
SCALE
  5
43
102
{ACAD_REACTORS
330
42
102
}
330
42
100
AcDbScale
 70
     0
300
1:1
140
1.0
141
1.0
290
     1
  0
SCALE
  5
44
102
{ACAD_REACTORS
330
42
102
}
330
42
100
AcDbScale
 70
     0
300
1/128" = 1'-0"
140
0.0078125
141
12.0
290
     0
  0
SCALE
  5
45
102
{ACAD_REACTORS
330
42
102
}
330
42
100
AcDbScale
 70
     0
300
1/64" = 1'-0"
140
0.015625
141
12.0
290
     0
  0
SCALE
  5
46
102
{ACAD_REACTORS
330
42
102
}
330
42
100
AcDbScale
 70
     0
300
1/32" = 1'-0"
140
0.03125
141
12.0
290
     0
  0
SCALE
  5
47
102
{ACAD_REACTORS
330
42
102
}
330
42
100
AcDbScale
 70
     0
300
1/16" = 1'-0"
140
0.0625
141
12.0
290
     0
  0
SCALE
  5
48
102
{ACAD_REACTORS
330
42
102
}
330
42
100
AcDbScale
 70
     0
300
3/32" = 1'-0"
140
0.09375
141
12.0
290
     0
  0
SCALE
  5
49
102
{ACAD_REACTORS
330
42
102
}
330
42
100
AcDbScale
 70
     0
300
1/8" = 1'-0"
140
0.125
141
12.0
290
     0
  0
SCALE
  5
4A
102
{ACAD_REACTORS
330
42
102
}
330
42
100
AcDbScale
 70
     0
300
3/16" = 1'-0"
140
0.1875
141
12.0
290
     0
  0
SCALE
  5
4B
102
{ACAD_REACTORS
330
42
102
}
330
42
100
AcDbScale
 70
     0
300
1/4" = 1'-0"
140
0.25
141
12.0
290
     0
  0
SCALE
  5
4C
102
{ACAD_REACTORS
330
42
102
}
330
42
100
AcDbScale
 70
     0
300
3/8" = 1'-0"
140
0.375
141
12.0
290
     0
  0
SCALE
  5
4D
102
{ACAD_REACTORS
330
42
102
}
330
42
100
AcDbScale
 70
     0
300
1/2" = 1'-0"
140
0.5
141
12.0
290
     0
  0
SCALE
  5
4E
102
{ACAD_REACTORS
330
42
102
}
330
42
100
AcDbScale
 70
     0
300
3/4" = 1'-0"
140
0.75
141
12.0
290
     0
  0
SCALE
  5
4F
102
{ACAD_REACTORS
330
42
102
}
330
42
100
AcDbScale
 70
     0
300
1" = 1'-0"
140
1.0
141
12.0
290
     0
  0
SCALE
  5
50
102
{ACAD_REACTORS
330
42
102
}
330
42
100
AcDbScale
 70
     0
300
1-1/2" = 1'-0"
140
1.5
141
12.0
290
     0
  0
SCALE
  5
51
102
{ACAD_REACTORS
330
42
102
}
330
42
100
AcDbScale
 70
     0
300
3" = 1'-0"
140
3.0
141
12.0
290
     0
  0
SCALE
  5
52
102
{ACAD_REACTORS
330
42
102
}
330
42
100
AcDbScale
 70
     0
300
6" = 1'-0"
140
6.0
141
12.0
290
     0
  0
SCALE
  5
53
102
{ACAD_REACTORS
330
42
102
}
330
42
100
AcDbScale
 70
     0
300
1'-0" = 1'-0"
140
12.0
141
12.0
290
     0
  0
ACDBSECTIONVIEWSTYLE
  5
69
102
{ACAD_REACTORS
330
68
102
}
330
68
100
AcDbModelDocViewStyle
 70
     0
  3
Imperial24
290
     1
300
Imperial24
 90
        0
100
AcDbSectionViewStyle
 70
     0
 71
     0
 90
       78
 71
     1
340
55
 62
   256
 40
0.24
340
0
340
0
 62
   256
 40
0.24
300
I, O, Q, S, X, Z
 40
0.48
 90
        3
 40
0.18
 90
        1
 71
     2
340
5D
 90
       25
 62
   256
340
5D
 90
       50
 62
   256
 40
0.24
 40
0.0
 40
0.24
 71
     3
340
55
 62
   256
 40
0.24
 90
        1
 40
0.75
 90
        1
300
%<\AcVar ViewType \f "%tc1">% %<\AcVar ViewSectionStartId>%-%<\AcVar ViewSectionEndId>%\PSCALE %<\AcVar ViewScale \f "%sn">%
 71
     4
 62
   256
 62
   257
300
ANSI31
 40
1.0
 90
        0
290
     0
290
     0
 90
        6
 40
0.0
 40
1.570796326794896
 40
0.2617993877991494
 40
1.308996938995747
 40
-0.2617993877991494
 40
1.832595714594046
  0
TABLESTYLE
  5
65
102
{ACAD_XDICTIONARY
360
D1
102
}
102
{ACAD_REACTORS
330
64
102
}
330
64
100
AcDbTableStyle
280
     0
  3
Standard
 70
     0
 71
     0
 40
0.06
 41
0.06
280
     0
281
     0
  7
Standard
140
0.18
170
     2
 62
     0
 63
     7
283
     0
 90
      512
 91
        0
  1

274
    -2
284
     1
 64
     0
275
    -2
285
     1
 65
     0
276
    -2
286
     1
 66
     0
277
    -2
287
     1
 67
     0
278
    -2
288
     1
 68
     0
279
    -2
289
     1
 69
     0
  7
Standard
140
0.25
170
     5
 62
     0
 63
     7
283
     0
 90
      512
 91
        0
  1

274
    -2
284
     1
 64
     0
275
    -2
285
     1
 65
     0
276
    -2
286
     1
 66
     0
277
    -2
287
     1
 67
     0
278
    -2
288
     1
 68
     0
279
    -2
289
     1
 69
     0
  7
Standard
140
0.18
170
     5
 62
     0
 63
     7
283
     0
 90
      512
 91
        0
  1

274
    -2
284
     1
 64
     0
275
    -2
285
     1
 65
     0
276
    -2
286
     1
 66
     0
277
    -2
287
     1
 67
     0
278
    -2
288
     1
 68
     0
279
    -2
289
     1
 69
     0
  0
VISUALSTYLE
  5
2F
102
{ACAD_REACTORS
330
29
102
}
330
29
100
AcDbVisualStyle
  2
2dWireframe
 70
     4
177
     3
291
     0
 70
    58
 90
        0
176
     1
 90
        2
176
     1
 90
        0
176
     1
 90
        0
176
     1
 40
0.6
176
     1
 40
30.0
176
     1
 62
     7
420
 16777215
176
     1
 90
        1
176
     1
 90
        4
176
     1
 62
     7
176
     1
 62
   257
176
     1
 90
        1
176
     1
 90
        1
176
     1
 40
1.0
176
     1
 90
        0
176
     1
 62
   257
176
     1
 40
1.0
176
     1
 90
        1
176
     1
 90
        6
176
     1
 90
        2
176
     1
 62
     7
176
     1
 90
        5
176
     1
 90
        0
176
     1
 90
        0
176
     1
290
     0
176
     1
 90
        1
176
     1
 40
0.0
176
     1
 90
        0
176
     1
290
     1
176
     1
290
     1
176
     1
290
     0
176
     1
290
     0
176
     1
290
     0
176
     1
290
     0
176
     1
290
     0
176
     1
290
     0
176
     1
290
     0
176
     1
 90
       50
176
     1
 40
0.0
176
     1
 40
1.0
176
     1
 90
        0
176
     1
 62
    18
420
        0
176
     1
 90
       50
176
     1
 90
        3
176
     1
 62
     5
420
      255
176
     1
290
     0
176
     1
 90
       50
176
     1
 90
       50
176
     1
 90
       50
176
     1
290
     0
176
     1
 90
       50
176
     1
 62
   256
176
     0
 40
1.0
176
     0
 90
        2
176
     1
  1
strokes_ogs.tif
176
     1
290
     0
176
     1
 40
1.0
176
     1
 40
1.0
176
     1
  0
VISUALSTYLE
  5
2E
102
{ACAD_REACTORS
330
29
102
}
330
29
100
AcDbVisualStyle
  2
Basic
 70
     7
177
     3
291
     1
 70
    58
 90
        1
176
     1
 90
        0
176
     1
 90
        1
176
     1
 90
        0
176
     1
 40
0.6
176
     1
 40
30.0
176
     1
 62
     7
420
 16777215
176
     1
 90
        0
176
     1
 90
        4
176
     1
 62
     7
176
     1
 62
   257
176
     1
 90
        1
176
     1
 90
        1
176
     1
 40
1.0
176
     1
 90
        8
176
     1
 62
     7
176
     1
 40
1.0
176
     1
 90
        1
176
     1
 90
        6
176
     1
 90
        2
176
     1
 62
     7
176
     1
 90
        5
176
     1
 90
        0
176
     1
 90
        0
176
     1
290
     0
176
     1
 90
        1
176
     1
 40
0.0
176
     1
 90
        0
176
     1
290
     0
176
     1
290
     1
176
     1
290
     1
176
     1
290
     0
176
     1
290
     0
176
     1
290
     0
176
     1
290
     0
176
     1
290
     0
176
     1
290
     0
176
     1
 90
       50
176
     1
 40
0.0
176
     1
 40
1.0
176
     1
 90
        0
176
     1
 62
    18
420
        0
176
     1
 90
       50
176
     1
 90
        3
176
     1
 62
     5
420
      255
176
     1
290
     0
176
     1
 90
       50
176
     1
 90
       50
176
     1
 90
       50
176
     1
290
     0
176
     1
 90
       50
176
     1
 62
   256
176
     0
 40
1.0
176
     0
 90
        2
176
     1
  1
strokes_ogs.tif
176
     1
290
     0
176
     1
 40
1.0
176
     1
 40
1.0
176
     1
  0
VISUALSTYLE
  5
35
102
{ACAD_REACTORS
330
29
102
}
330
29
100
AcDbVisualStyle
  2
Brighten
 70
    12
177
     3
291
     1
 70
    58
 90
        2
176
     1
 90
        2
176
     1
 90
        0
176
     1
 90
        0
176
     1
 40
0.6
176
     1
 40
30.0
176
     1
 62
     7
420
 16777215
176
     1
 90
        1
176
     1
 90
        4
176
     1
 62
     7
176
     1
 62
   257
176
     1
 90
        1
176
     1
 90
        1
176
     1
 40
1.0
176
     1
 90
        8
176
     1
 62
     7
176
     1
 40
1.0
176
     1
 90
        1
176
     1
 90
        6
176
     1
 90
        2
176
     1
 62
     7
176
     1
 90
        5
176
     1
 90
        0
176
     1
 90
        0
176
     1
290
     0
176
     1
 90
        1
176
     1
 40
50.0
176
     1
 90
        0
176
     1
290
     0
176
     1
290
     1
176
     1
290
     1
176
     1
290
     0
176
     1
290
     0
176
     1
290
     0
176
     1
290
     0
176
     1
290
     0
176
     1
290
     0
176
     1
 90
       50
176
     1
 40
0.0
176
     1
 40
1.0
176
     1
 90
        0
176
     1
 62
    18
420
        0
176
     1
 90
       50
176
     1
 90
        3
176
     1
 62
     5
420
      255
176
     1
290
     0
176
     1
 90
       50
176
     1
 90
       50
176
     1
 90
       50
176
     1
290
     0
176
     1
 90
       50
176
     1
 62
   256
176
     0
 40
1.0
176
     0
 90
        2
176
     1
  1
strokes_ogs.tif
176
     1
290
     0
176
     1
 40
1.0
176
     1
 40
1.0
176
     1
  0
VISUALSTYLE
  5
39
102
{ACAD_REACTORS
330
29
102
}
330
29
100
AcDbVisualStyle
  2
ColorChange
 70
    16
177
     3
291
     1
 70
    58
 90
        2
176
     1
 90
        2
176
     1
 90
        3
176
     1
 90
        0
176
     1
 40
0.6
176
     1
 40
30.0
176
     1
 62
     8
420
  8421504
176
     1
 90
        1
176
     1
 90
        4
176
     1
 62
     7
176
     1
 62
   257
176
     1
 90
        1
176
     1
 90
        1
176
     1
 40
1.0
176
     1
 90
        8
176
     1
 62
     8
420
  8421504
176
     1
 40
1.0
176
     1
 90
        1
176
     1
 90
        6
176
     1
 90
        2
176
     1
 62
     7
176
     1
 90
        5
176
     1
 90
        0
176
     1
 90
        0
176
     1
290
     0
176
     1
 90
        1
176
     1
 40
0.0
176
     1
 90
        0
176
     1
290
     0
176
     1
290
     1
176
     1
290
     1
176
     1
290
     0
176
     1
290
     0
176
     1
290
     0
176
     1
290
     0
176
     1
290
     0
176
     1
290
     0
176
     1
 90
       50
176
     1
 40
0.0
176
     1
 40
1.0
176
     1
 90
        0
176
     1
 62
    18
420
        0
176
     1
 90
       50
176
     1
 90
        3
176
     1
 62
     5
420
      255
176
     1
290
     0
176
     1
 90
       50
176
     1
 90
       50
176
     1
 90
       50
176
     1
290
     0
176
     1
 90
       50
176
     1
 62
   256
176
     0
 40
1.0
176
     0
 90
        2
176
     1
  1
strokes_ogs.tif
176
     1
290
     0
176
     1
 40
1.0
176
     1
 40
1.0
176
     1
  0
VISUALSTYLE
  5
32
102
{ACAD_REACTORS
330
29
102
}
330
29
100
AcDbVisualStyle
  2
Conceptual
 70
     9
177
     3
291
     0
 70
    58
 90
        3
176
     1
 90
        2
176
     1
 90
        0
176
     1
 90
        0
176
     1
 40
0.6
176
     1
 40
30.0
176
     1
 62
     7
420
 16777215
176
     1
 90
        2
176
     1
 90
        2
176
     1
 62
     7
176
     1
 62
   257
176
     1
 90
        1
176
     1
 90
        1
176
     1
 40
179.0
176
     1
 90
        8
176
     1
 62
     7
176
     1
 40
1.0
176
     1
 90
        1
176
     1
 90
        6
176
     1
 90
        2
176
     1
 62
     7
176
     1
 90
        3
176
     1
 90
        0
176
     1
 90
        0
176
     1
290
     0
176
     1
 90
        1
176
     1
 40
0.0
176
     1
 90
        0
176
     1
290
     0
176
     1
290
     1
176
     1
290
     1
176
     1
290
     0
176
     1
290
     0
176
     1
290
     0
176
     1
290
     0
176
     1
290
     0
176
     1
290
     0
176
     1
 90
       50
176
     1
 40
0.0
176
     1
 40
1.0
176
     1
 90
        0
176
     1
 62
    18
420
        0
176
     1
 90
       50
176
     1
 90
        3
176
     1
 62
     5
420
      255
176
     1
290
     0
176
     1
 90
       50
176
     1
 90
       50
176
     1
 90
       50
176
     1
290
     0
176
     1
 90
       50
176
     1
 62
   256
176
     0
 40
1.0
176
     0
 90
        2
176
     1
  1
strokes_ogs.tif
176
     1
290
     0
176
     1
 40
1.0
176
     1
 40
1.0
176
     1
  0
VISUALSTYLE
  5
34
102
{ACAD_REACTORS
330
29
102
}
330
29
100
AcDbVisualStyle
  2
Dim
 70
    11
177
     3
291
     1
 70
    58
 90
        2
176
     1
 90
        2
176
     1
 90
        0
176
     1
 90
        0
176
     1
 40
0.6
176
     1
 40
30.0
176
     1
 62
     7
420
 16777215
176
     1
 90
        1
176
     1
 90
        4
176
     1
 62
     7
176
     1
 62
   257
176
     1
 90
        1
176
     1
 90
        1
176
     1
 40
1.0
176
     1
 90
        8
176
     1
 62
     7
176
     1
 40
1.0
176
     1
 90
        1
176
     1
 90
        6
176
     1
 90
        2
176
     1
 62
     7
176
     1
 90
        5
176
     1
 90
        0
176
     1
 90
        0
176
     1
290
     0
176
     1
 90
        1
176
     1
 40
-50.0
176
     1
 90
        0
176
     1
290
     0
176
     1
290
     1
176
     1
290
     1
176
     1
290
     0
176
     1
290
     0
176
     1
290
     0
176
     1
290
     0
176
     1
290
     0
176
     1
290
     0
176
     1
 90
       50
176
     1
 40
0.0
176
     1
 40
1.0
176
     1
 90
        0
176
     1
 62
    18
420
        0
176
     1
 90
       50
176
     1
 90
        3
176
     1
 62
     5
420
      255
176
     1
290
     0
176
     1
 90
       50
176
     1
 90
       50
176
     1
 90
       50
176
     1
290
     0
176
     1
 90
       50
176
     1
 62
   256
176
     0
 40
1.0
176
     0
 90
        2
176
     1
  1
strokes_ogs.tif
176
     1
290
     0
176
     1
 40
1.0
176
     1
 40
1.0
176
     1
  0
VISUALSTYLE
  5
41
102
{ACAD_REACTORS
330
29
102
}
330
29
100
AcDbVisualStyle
  2
EdgeColorOff
 70
    22
177
     3
291
     1
 70
    58
 90
        2
176
     0
 90
        2
176
     0
 90
        0
176
     0
 90
        0
176
     0
 40
0.6
176
     0
 40
30.0
176
     0
 62
     7
420
 16777215
176
     0
 90
        1
176
     0
 90
        4
176
     0
 62
     7
176
     0
 62
   257
176
     0
 90
        1
176
     0
 90
        1
176
     0
 40
1.0
176
     0
 90
        8
176
     2
 62
     7
176
     0
 40
1.0
176
     0
 90
        1
176
     0
 90
        6
176
     0
 90
        2
176
     0
 62
     7
176
     0
 90
        5
176
     0
 90
        0
176
     0
 90
        0
176
     0
290
     0
176
     0
 90
        1
176
     0
 40
0.0
176
     0
 90
        0
176
     0
290
     0
176
     0
290
     1
176
     0
290
     1
176
     0
290
     0
176
     0
290
     0
176
     0
290
     0
176
     0
290
     0
176
     0
290
     0
176
     0
290
     0
176
     0
 90
       50
176
     0
 40
0.0
176
     0
 40
1.0
176
     0
 90
        0
176
     0
 62
    18
420
        0
176
     0
 90
       50
176
     0
 90
        3
176
     0
 62
     5
420
      255
176
     0
290
     0
176
     0
 90
       50
176
     0
 90
       50
176
     0
 90
       50
176
     0
290
     0
176
     0
 90
       50
176
     0
 62
   256
176
     0
 40
1.0
176
     0
 90
        2
176
     0
  1
strokes_ogs.tif
176
     0
290
     0
176
     0
 40
1.0
176
     0
 40
1.0
176
     0
  0
VISUALSTYLE
  5
38
102
{ACAD_REACTORS
330
29
102
}
330
29
100
AcDbVisualStyle
  2
Facepattern
 70
    15
177
     3
291
     1
 70
    58
 90
        2
176
     1
 90
        2
176
     1
 90
        0
176
     1
 90
        0
176
     1
 40
0.6
176
     1
 40
30.0
176
     1
 62
     7
420
 16777215
176
     1
 90
        1
176
     1
 90
        4
176
     1
 62
     7
176
     1
 62
   257
176
     1
 90
        1
176
     1
 90
        1
176
     1
 40
1.0
176
     1
 90
        8
176
     1
 62
     7
176
     1
 40
1.0
176
     1
 90
        1
176
     1
 90
        6
176
     1
 90
        2
176
     1
 62
     7
176
     1
 90
        5
176
     1
 90
        0
176
     1
 90
        0
176
     1
290
     0
176
     1
 90
        1
176
     1
 40
0.0
176
     1
 90
        0
176
     1
290
     0
176
     1
290
     1
176
     1
290
     1
176
     1
290
     0
176
     1
290
     0
176
     1
290
     0
176
     1
290
     0
176
     1
290
     0
176
     1
290
     0
176
     1
 90
       50
176
     1
 40
0.0
176
     1
 40
1.0
176
     1
 90
        0
176
     1
 62
    18
420
        0
176
     1
 90
       50
176
     1
 90
        3
176
     1
 62
     5
420
      255
176
     1
290
     0
176
     1
 90
       50
176
     1
 90
       50
176
     1
 90
       50
176
     1
290
     0
176
     1
 90
       50
176
     1
 62
   256
176
     0
 40
1.0
176
     0
 90
        2
176
     1
  1
strokes_ogs.tif
176
     1
290
     0
176
     1
 40
1.0
176
     1
 40
1.0
176
     1
  0
VISUALSTYLE
  5
2A
102
{ACAD_REACTORS
330
29
102
}
330
29
100
AcDbVisualStyle
  2
Flat
 70
     0
177
     3
291
     1
 70
    58
 90
        2
176
     1
 90
        1
176
     1
 90
        1
176
     1
 90
        2
176
     1
 40
0.6
176
     1
 40
30.0
176
     1
 62
     7
420
 16777215
176
     1
 90
        0
176
     1
 90
        0
176
     1
 62
     7
176
     1
 62
   257
176
     1
 90
        1
176
     1
 90
        1
176
     1
 40
1.0
176
     1
 90
        8
176
     1
 62
     7
176
     1
 40
1.0
176
     1
 90
        1
176
     1
 90
        6
176
     1
 90
        2
176
     1
 62
     7
176
     1
 90
        5
176
     1
 90
        0
176
     1
 90
        0
176
     1
290
     0
176
     1
 90
       13
176
     1
 40
0.0
176
     1
 90
        0
176
     1
290
     0
176
     1
290
     1
176
     1
290
     1
176
     1
290
     0
176
     1
290
     0
176
     1
290
     0
176
     1
290
     0
176
     1
290
     0
176
     1
290
     0
176
     1
 90
       50
176
     1
 40
0.0
176
     1
 40
1.0
176
     1
 90
        0
176
     1
 62
    18
420
        0
176
     1
 90
       50
176
     1
 90
        3
176
     1
 62
     5
420
      255
176
     1
290
     0
176
     1
 90
       50
176
     1
 90
       50
176
     1
 90
       50
176
     1
290
     0
176
     1
 90
       50
176
     1
 62
   256
176
     0
 40
1.0
176
     0
 90
        2
176
     1
  1
strokes_ogs.tif
176
     1
290
     0
176
     1
 40
1.0
176
     1
 40
1.0
176
     1
  0
VISUALSTYLE
  5
2B
102
{ACAD_REACTORS
330
29
102
}
330
29
100
AcDbVisualStyle
  2
FlatWithEdges
 70
     1
177
     3
291
     1
 70
    58
 90
        2
176
     1
 90
        1
176
     1
 90
        1
176
     1
 90
        2
176
     1
 40
0.6
176
     1
 40
30.0
176
     1
 62
     7
420
 16777215
176
     1
 90
        1
176
     1
 90
        0
176
     1
 62
     7
176
     1
 62
   257
176
     1
 90
        1
176
     1
 90
        1
176
     1
 40
1.0
176
     1
 90
        0
176
     1
 62
   257
176
     1
 40
1.0
176
     1
 90
        1
176
     1
 90
        6
176
     1
 90
        2
176
     1
 62
     7
176
     1
 90
        5
176
     1
 90
        0
176
     1
 90
        0
176
     1
290
     0
176
     1
 90
       13
176
     1
 40
0.0
176
     1
 90
        0
176
     1
290
     0
176
     1
290
     1
176
     1
290
     1
176
     1
290
     0
176
     1
290
     0
176
     1
290
     0
176
     1
290
     0
176
     1
290
     0
176
     1
290
     0
176
     1
 90
       50
176
     1
 40
0.0
176
     1
 40
1.0
176
     1
 90
        0
176
     1
 62
    18
420
        0
176
     1
 90
       50
176
     1
 90
        3
176
     1
 62
     5
420
      255
176
     1
290
     0
176
     1
 90
       50
176
     1
 90
       50
176
     1
 90
       50
176
     1
290
     0
176
     1
 90
       50
176
     1
 62
   256
176
     0
 40
1.0
176
     0
 90
        2
176
     1
  1
strokes_ogs.tif
176
     1
290
     0
176
     1
 40
1.0
176
     1
 40
1.0
176
     1
  0
VISUALSTYLE
  5
2C
102
{ACAD_REACTORS
330
29
102
}
330
29
100
AcDbVisualStyle
  2
Gouraud
 70
     2
177
     3
291
     1
 70
    58
 90
        2
176
     1
 90
        2
176
     1
 90
        1
176
     1
 90
        2
176
     1
 40
0.6
176
     1
 40
30.0
176
     1
 62
     7
420
 16777215
176
     1
 90
        0
176
     1
 90
        0
176
     1
 62
     7
176
     1
 62
   257
176
     1
 90
        1
176
     1
 90
        1
176
     1
 40
1.0
176
     1
 90
        0
176
     1
 62
     7
176
     1
 40
1.0
176
     1
 90
        1
176
     1
 90
        6
176
     1
 90
        2
176
     1
 62
     7
176
     1
 90
        5
176
     1
 90
        0
176
     1
 90
        0
176
     1
290
     0
176
     1
 90
       13
176
     1
 40
0.0
176
     1
 90
        0
176
     1
290
     0
176
     1
290
     1
176
     1
290
     1
176
     1
290
     0
176
     1
290
     0
176
     1
290
     0
176
     1
290
     0
176
     1
290
     0
176
     1
290
     0
176
     1
 90
       50
176
     1
 40
0.0
176
     1
 40
1.0
176
     1
 90
        0
176
     1
 62
    18
420
        0
176
     1
 90
       50
176
     1
 90
        3
176
     1
 62
     5
420
      255
176
     1
290
     0
176
     1
 90
       50
176
     1
 90
       50
176
     1
 90
       50
176
     1
290
     0
176
     1
 90
       50
176
     1
 62
   256
176
     0
 40
1.0
176
     0
 90
        2
176
     1
  1
strokes_ogs.tif
176
     1
290
     0
176
     1
 40
1.0
176
     1
 40
1.0
176
     1
  0
VISUALSTYLE
  5
2D
102
{ACAD_REACTORS
330
29
102
}
330
29
100
AcDbVisualStyle
  2
GouraudWithEdges
 70
     3
177
     3
291
     1
 70
    58
 90
        2
176
     1
 90
        2
176
     1
 90
        1
176
     1
 90
        2
176
     1
 40
0.6
176
     1
 40
30.0
176
     1
 62
     7
420
 16777215
176
     1
 90
        1
176
     1
 90
        0
176
     1
 62
     7
176
     1
 62
   257
176
     1
 90
        1
176
     1
 90
        1
176
     1
 40
1.0
176
     1
 90
        0
176
     1
 62
   257
176
     1
 40
1.0
176
     1
 90
        1
176
     1
 90
        6
176
     1
 90
        2
176
     1
 62
     7
176
     1
 90
        5
176
     1
 90
        0
176
     1
 90
        0
176
     1
290
     0
176
     1
 90
       13
176
     1
 40
0.0
176
     1
 90
        0
176
     1
290
     0
176
     1
290
     1
176
     1
290
     1
176
     1
290
     0
176
     1
290
     0
176
     1
290
     0
176
     1
290
     0
176
     1
290
     0
176
     1
290
     0
176
     1
 90
       50
176
     1
 40
0.0
176
     1
 40
1.0
176
     1
 90
        0
176
     1
 62
    18
420
        0
176
     1
 90
       50
176
     1
 90
        3
176
     1
 62
     5
420
      255
176
     1
290
     0
176
     1
 90
       50
176
     1
 90
       50
176
     1
 90
       50
176
     1
290
     0
176
     1
 90
       50
176
     1
 62
   256
176
     0
 40
1.0
176
     0
 90
        2
176
     1
  1
strokes_ogs.tif
176
     1
290
     0
176
     1
 40
1.0
176
     1
 40
1.0
176
     1
  0
VISUALSTYLE
  5
31
102
{ACAD_REACTORS
330
29
102
}
330
29
100
AcDbVisualStyle
  2
Hidden
 70
     6
177
     3
291
     0
 70
    58
 90
        1
176
     1
 90
        2
176
     1
 90
        2
176
     1
 90
        0
176
     1
 40
0.6
176
     1
 40
30.0
176
     1
 62
     7
420
 16777215
176
     1
 90
        2
176
     1
 90
        2
176
     1
 62
     7
176
     1
 62
   257
176
     1
 90
        2
176
     1
 90
        1
176
     1
 40
40.0
176
     1
 90
        0
176
     1
 62
   257
176
     1
 40
1.0
176
     1
 90
        1
176
     1
 90
        6
176
     1
 90
        2
176
     1
 62
     7
176
     1
 90
        3
176
     1
 90
        0
176
     1
 90
        0
176
     1
290
     0
176
     1
 90
        1
176
     1
 40
0.0
176
     1
 90
        0
176
     1
290
     0
176
     1
290
     1
176
     1
290
     1
176
     1
290
     0
176
     1
290
     0
176
     1
290
     0
176
     1
290
     0
176
     1
290
     0
176
     1
290
     0
176
     1
 90
       50
176
     1
 40
0.0
176
     1
 40
1.0
176
     1
 90
        0
176
     1
 62
    18
420
        0
176
     1
 90
       50
176
     1
 90
        3
176
     1
 62
     5
420
      255
176
     1
290
     0
176
     1
 90
       50
176
     1
 90
       50
176
     1
 90
       50
176
     1
290
     0
176
     1
 90
       50
176
     1
 62
   256
176
     0
 40
1.0
176
     0
 90
        2
176
     1
  1
strokes_ogs.tif
176
     1
290
     0
176
     1
 40
1.0
176
     1
 40
1.0
176
     1
  0
VISUALSTYLE
  5
3F
102
{ACAD_REACTORS
330
29
102
}
330
29
100
AcDbVisualStyle
  2
JitterOff
 70
    20
177
     3
291
     1
 70
    58
 90
        2
176
     0
 90
        2
176
     0
 90
        0
176
     0
 90
        0
176
     0
 40
0.6
176
     0
 40
30.0
176
     0
 62
     7
420
 16777215
176
     0
 90
        1
176
     0
 90
        4
176
     0
 62
     7
176
     0
 62
   257
176
     0
 90
        1
176
     0
 90
        1
176
     0
 40
1.0
176
     0
 90
       10
176
     2
 62
     7
176
     0
 40
1.0
176
     0
 90
        1
176
     0
 90
        6
176
     0
 90
        2
176
     0
 62
     7
176
     0
 90
        5
176
     0
 90
        0
176
     0
 90
        0
176
     0
290
     0
176
     0
 90
        1
176
     0
 40
0.0
176
     0
 90
        0
176
     0
290
     0
176
     0
290
     1
176
     0
290
     1
176
     0
290
     0
176
     0
290
     0
176
     0
290
     0
176
     0
290
     0
176
     0
290
     0
176
     0
290
     0
176
     0
 90
       50
176
     0
 40
0.0
176
     0
 40
1.0
176
     0
 90
        0
176
     0
 62
    18
420
        0
176
     0
 90
       50
176
     0
 90
        3
176
     0
 62
     5
420
      255
176
     0
290
     0
176
     0
 90
       50
176
     0
 90
       50
176
     0
 90
       50
176
     0
290
     0
176
     0
 90
       50
176
     0
 62
   256
176
     0
 40
1.0
176
     0
 90
        2
176
     0
  1
strokes_ogs.tif
176
     0
290
     0
176
     0
 40
1.0
176
     0
 40
1.0
176
     0
  0
VISUALSTYLE
  5
37
102
{ACAD_REACTORS
330
29
102
}
330
29
100
AcDbVisualStyle
  2
Linepattern
 70
    14
177
     3
291
     1
 70
    58
 90
        2
176
     1
 90
        2
176
     1
 90
        0
176
     1
 90
        0
176
     1
 40
0.6
176
     1
 40
30.0
176
     1
 62
     7
420
 16777215
176
     1
 90
        1
176
     1
 90
        4
176
     1
 62
     7
176
     1
 62
   257
176
     1
 90
        7
176
     1
 90
        7
176
     1
 40
1.0
176
     1
 90
        8
176
     1
 62
     7
176
     1
 40
1.0
176
     1
 90
        1
176
     1
 90
        6
176
     1
 90
        2
176
     1
 62
     7
176
     1
 90
        5
176
     1
 90
        0
176
     1
 90
        0
176
     1
290
     0
176
     1
 90
        1
176
     1
 40
0.0
176
     1
 90
        0
176
     1
290
     0
176
     1
290
     1
176
     1
290
     1
176
     1
290
     0
176
     1
290
     0
176
     1
290
     0
176
     1
290
     0
176
     1
290
     0
176
     1
290
     0
176
     1
 90
       50
176
     1
 40
0.0
176
     1
 40
1.0
176
     1
 90
        0
176
     1
 62
    18
420
        0
176
     1
 90
       50
176
     1
 90
        3
176
     1
 62
     5
420
      255
176
     1
290
     0
176
     1
 90
       50
176
     1
 90
       50
176
     1
 90
       50
176
     1
290
     0
176
     1
 90
       50
176
     1
 62
   256
176
     0
 40
1.0
176
     0
 90
        2
176
     1
  1
strokes_ogs.tif
176
     1
290
     0
176
     1
 40
1.0
176
     1
 40
1.0
176
     1
  0
VISUALSTYLE
  5
40
102
{ACAD_REACTORS
330
29
102
}
330
29
100
AcDbVisualStyle
  2
OverhangOff
 70
    21
177
     3
291
     1
 70
    58
 90
        2
176
     0
 90
        2
176
     0
 90
        0
176
     0
 90
        0
176
     0
 40
0.6
176
     0
 40
30.0
176
     0
 62
     7
420
 16777215
176
     0
 90
        1
176
     0
 90
        4
176
     0
 62
     7
176
     0
 62
   257
176
     0
 90
        1
176
     0
 90
        1
176
     0
 40
1.0
176
     0
 90
        9
176
     2
 62
     7
176
     0
 40
1.0
176
     0
 90
        1
176
     0
 90
        6
176
     0
 90
        2
176
     0
 62
     7
176
     0
 90
        5
176
     0
 90
        0
176
     0
 90
        0
176
     0
290
     0
176
     0
 90
        1
176
     0
 40
0.0
176
     0
 90
        0
176
     0
290
     0
176
     0
290
     1
176
     0
290
     1
176
     0
290
     0
176
     0
290
     0
176
     0
290
     0
176
     0
290
     0
176
     0
290
     0
176
     0
290
     0
176
     0
 90
       50
176
     0
 40
0.0
176
     0
 40
1.0
176
     0
 90
        0
176
     0
 62
    18
420
        0
176
     0
 90
       50
176
     0
 90
        3
176
     0
 62
     5
420
      255
176
     0
290
     0
176
     0
 90
       50
176
     0
 90
       50
176
     0
 90
       50
176
     0
290
     0
176
     0
 90
       50
176
     0
 62
   256
176
     0
 40
1.0
176
     0
 90
        2
176
     0
  1
strokes_ogs.tif
176
     0
290
     0
176
     0
 40
1.0
176
     0
 40
1.0
176
     0
  0
VISUALSTYLE
  5
33
102
{ACAD_REACTORS
330
29
102
}
330
29
100
AcDbVisualStyle
  2
Realistic
 70
     8
177
     3
291
     0
 70
    58
 90
        2
176
     1
 90
        3
176
     1
 90
        0
176
     1
 90
        2
176
     1
 40
0.6
176
     1
 40
30.0
176
     1
 62
     7
420
 16777215
176
     1
 90
        0
176
     1
 90
        0
176
     1
 62
     7
176
     1
 62
   257
176
     1
 90
        1
176
     1
 90
        1
176
     1
 40
1.0
176
     1
 90
        8
176
     1
 62
   257
176
     1
 40
1.0
176
     1
 90
        1
176
     1
 90
        6
176
     1
 90
        2
176
     1
 62
     7
176
     1
 90
        3
176
     1
 90
        0
176
     1
 90
        0
176
     1
290
     0
176
     1
 90
       13
176
     1
 40
0.0
176
     1
 90
        0
176
     1
290
     0
176
     1
290
     1
176
     1
290
     1
176
     1
290
     0
176
     1
290
     0
176
     1
290
     0
176
     1
290
     0
176
     1
290
     0
176
     1
290
     0
176
     1
 90
       50
176
     1
 40
0.0
176
     1
 40
1.0
176
     1
 90
        0
176
     1
 62
    18
420
        0
176
     1
 90
       50
176
     1
 90
        3
176
     1
 62
     5
420
      255
176
     1
290
     0
176
     1
 90
       50
176
     1
 90
       50
176
     1
 90
       50
176
     1
290
     0
176
     1
 90
       50
176
     1
 62
   256
176
     0
 40
1.0
176
     0
 90
        2
176
     1
  1
strokes_ogs.tif
176
     1
290
     0
176
     1
 40
1.0
176
     1
 40
1.0
176
     1
  0
VISUALSTYLE
  5
3E
102
{ACAD_REACTORS
330
29
102
}
330
29
100
AcDbVisualStyle
  2
Shaded
 70
    27
177
     3
291
     0
 70
    58
 90
        2
176
     1
 90
        2
176
     1
 90
        1
176
     1
 90
        2
176
     1
 40
0.6
176
     1
 40
30.0
176
     1
 62
     7
420
 16777215
176
     1
 90
        0
176
     1
 90
        4
176
     1
 62
     7
176
     1
 62
   257
176
     1
 90
        1
176
     1
 90
        1
176
     1
 40
1.0
176
     1
 90
        8
176
     1
 62
   257
176
     1
 40
1.0
176
     1
 90
        1
176
     1
 90
        6
176
     1
 90
        2
176
     1
 62
     8
420
  7895160
176
     1
 90
        3
176
     1
 90
        0
176
     1
 90
        0
176
     1
290
     0
176
     1
 90
        5
176
     1
 40
0.0
176
     1
 90
        0
176
     1
290
     0
176
     1
290
     1
176
     1
290
     1
176
     1
290
     0
176
     1
290
     0
176
     1
290
     0
176
     1
290
     0
176
     1
290
     0
176
     1
290
     0
176
     1
 90
       50
176
     1
 40
0.0
176
     1
 40
1.0
176
     1
 90
        0
176
     1
 62
    18
420
        0
176
     1
 90
       50
176
     1
 90
        3
176
     1
 62
     5
420
      255
176
     1
290
     0
176
     1
 90
       50
176
     1
 90
       50
176
     1
 90
       50
176
     1
290
     0
176
     1
 90
       50
176
     1
 62
   256
176
     0
 40
1.0
176
     0
 90
        2
176
     1
  1
strokes_ogs.tif
176
     1
290
     0
176
     1
 40
1.0
176
     1
 40
1.0
176
     1
  0
VISUALSTYLE
  5
3D
102
{ACAD_REACTORS
330
29
102
}
330
29
100
AcDbVisualStyle
  2
Shaded with edges
 70
    26
177
     3
291
     0
 70
    58
 90
        2
176
     1
 90
        2
176
     1
 90
        1
176
     1
 90
        2
176
     1
 40
0.6
176
     1
 40
30.0
176
     1
 62
     7
420
 16777215
176
     1
 90
        1
176
     1
 90
        2
176
     1
 62
     7
176
     1
 62
   257
176
     1
 90
        2
176
     1
 90
        1
176
     1
 40
1.0
176
     1
 90
        8
176
     1
 62
   257
176
     1
 40
1.0
176
     1
 90
        1
176
     1
 90
        6
176
     1
 90
        2
176
     1
 62
     7
176
     1
 90
        3
176
     1
 90
        0
176
     1
 90
        0
176
     1
290
     0
176
     1
 90
        5
176
     1
 40
0.0
176
     1
 90
        0
176
     1
290
     0
176
     1
290
     1
176
     1
290
     1
176
     1
290
     0
176
     1
290
     0
176
     1
290
     0
176
     1
290
     0
176
     1
290
     0
176
     1
290
     0
176
     1
 90
       50
176
     1
 40
0.0
176
     1
 40
1.0
176
     1
 90
        0
176
     1
 62
    18
420
        0
176
     1
 90
       50
176
     1
 90
        3
176
     1
 62
     5
420
      255
176
     1
290
     0
176
     1
 90
       50
176
     1
 90
       50
176
     1
 90
       50
176
     1
290
     0
176
     1
 90
       50
176
     1
 62
   256
176
     0
 40
1.0
176
     0
 90
        2
176
     1
  1
strokes_ogs.tif
176
     1
290
     0
176
     1
 40
1.0
176
     1
 40
1.0
176
     1
  0
VISUALSTYLE
  5
3A
102
{ACAD_REACTORS
330
29
102
}
330
29
100
AcDbVisualStyle
  2
Shades of Gray
 70
    23
177
     3
291
     0
 70
    58
 90
        2
176
     1
 90
        2
176
     1
 90
        3
176
     1
 90
        0
176
     1
 40
0.6
176
     1
 40
30.0
176
     1
 62
     7
420
 16777215
176
     1
 90
        2
176
     1
 90
        2
176
     1
 62
     7
176
     1
 62
     7
176
     1
 90
        1
176
     1
 90
        1
176
     1
 40
40.0
176
     1
 90
        8
176
     1
 62
     7
176
     1
 40
1.0
176
     1
 90
        1
176
     1
 90
        6
176
     1
 90
        2
176
     1
 62
     7
176
     1
 90
        3
176
     1
 90
        0
176
     1
 90
        0
176
     1
290
     0
176
     1
 90
        1
176
     1
 40
0.0
176
     1
 90
        0
176
     1
290
     0
176
     1
290
     1
176
     1
290
     1
176
     1
290
     0
176
     1
290
     0
176
     1
290
     0
176
     1
290
     0
176
     1
290
     0
176
     1
290
     0
176
     1
 90
       50
176
     1
 40
0.0
176
     1
 40
1.0
176
     1
 90
        0
176
     1
 62
    18
420
        0
176
     1
 90
       50
176
     1
 90
        3
176
     1
 62
     5
420
      255
176
     1
290
     0
176
     1
 90
       50
176
     1
 90
       50
176
     1
 90
       50
176
     1
290
     0
176
     1
 90
       50
176
     1
 62
   256
176
     0
 40
1.0
176
     0
 90
        2
176
     1
  1
strokes_ogs.tif
176
     1
290
     0
176
     1
 40
1.0
176
     1
 40
1.0
176
     1
  0
VISUALSTYLE
  5
3B
102
{ACAD_REACTORS
330
29
102
}
330
29
100
AcDbVisualStyle
  2
Sketchy
 70
    24
177
     3
291
     0
 70
    58
 90
        1
176
     1
 90
        2
176
     1
 90
        2
176
     1
 90
        0
176
     1
 40
0.6
176
     1
 40
30.0
176
     1
 62
     7
420
 16777215
176
     1
 90
        2
176
     1
 90
        2
176
     1
 62
     7
176
     1
 62
     7
176
     1
 90
        1
176
     1
 90
        1
176
     1
 40
40.0
176
     1
 90
       11
176
     1
 62
     7
176
     1
 40
1.0
176
     1
 90
        1
176
     1
 90
        6
176
     1
 90
        2
176
     1
 62
     7
176
     1
 90
        6
176
     1
 90
        0
176
     1
 90
        0
176
     1
290
     0
176
     1
 90
        1
176
     1
 40
0.0
176
     1
 90
        0
176
     1
290
     0
176
     1
290
     1
176
     1
290
     1
176
     1
290
     0
176
     1
290
     0
176
     1
290
     0
176
     1
290
     0
176
     1
290
     0
176
     1
290
     0
176
     1
 90
       50
176
     1
 40
0.0
176
     1
 40
1.0
176
     1
 90
        0
176
     1
 62
    18
420
        0
176
     1
 90
       50
176
     1
 90
        3
176
     1
 62
     5
420
      255
176
     1
290
     0
176
     1
 90
       50
176
     1
 90
       50
176
     1
 90
       50
176
     1
290
     0
176
     1
 90
       50
176
     1
 62
   256
176
     0
 40
1.0
176
     0
 90
        2
176
     1
  1
strokes_ogs.tif
176
     1
290
     0
176
     1
 40
1.0
176
     1
 40
1.0
176
     1
  0
VISUALSTYLE
  5
36
102
{ACAD_REACTORS
330
29
102
}
330
29
100
AcDbVisualStyle
  2
Thicken
 70
    13
177
     3
291
     1
 70
    58
 90
        2
176
     1
 90
        2
176
     1
 90
        0
176
     1
 90
        0
176
     1
 40
0.6
176
     1
 40
30.0
176
     1
 62
     7
420
 16777215
176
     1
 90
        1
176
     1
 90
        4
176
     1
 62
     7
176
     1
 62
   257
176
     1
 90
        1
176
     1
 90
        1
176
     1
 40
1.0
176
     1
 90
       12
176
     1
 62
     7
176
     1
 40
1.0
176
     1
 90
        1
176
     1
 90
        6
176
     1
 90
        2
176
     1
 62
     7
176
     1
 90
        5
176
     1
 90
        0
176
     1
 90
        0
176
     1
290
     0
176
     1
 90
        1
176
     1
 40
0.0
176
     1
 90
        0
176
     1
290
     0
176
     1
290
     1
176
     1
290
     1
176
     1
290
     0
176
     1
290
     0
176
     1
290
     0
176
     1
290
     0
176
     1
290
     0
176
     1
290
     0
176
     1
 90
       50
176
     1
 40
0.0
176
     1
 40
1.0
176
     1
 90
        0
176
     1
 62
    18
420
        0
176
     1
 90
       50
176
     1
 90
        3
176
     1
 62
     5
420
      255
176
     1
290
     0
176
     1
 90
       50
176
     1
 90
       50
176
     1
 90
       50
176
     1
290
     0
176
     1
 90
       50
176
     1
 62
   256
176
     0
 40
1.0
176
     0
 90
        2
176
     1
  1
strokes_ogs.tif
176
     1
290
     0
176
     1
 40
1.0
176
     1
 40
1.0
176
     1
  0
VISUALSTYLE
  5
30
102
{ACAD_REACTORS
330
29
102
}
330
29
100
AcDbVisualStyle
  2
Wireframe
 70
     5
177
     3
291
     0
 70
    58
 90
        0
176
     1
 90
        2
176
     1
 90
        0
176
     1
 90
        0
176
     1
 40
0.6
176
     1
 40
30.0
176
     1
 62
     7
420
 16777215
176
     1
 90
        1
176
     1
 90
        4
176
     1
 62
     7
176
     1
 62
   257
176
     1
 90
        1
176
     1
 90
        1
176
     1
 40
1.0
176
     1
 90
        0
176
     1
 62
   257
176
     1
 40
1.0
176
     1
 90
        1
176
     1
 90
        6
176
     1
 90
        2
176
     1
 62
     7
176
     1
 90
        3
176
     1
 90
        0
176
     1
 90
        0
176
     1
290
     0
176
     1
 90
        1
176
     1
 40
0.0
176
     1
 90
        0
176
     1
290
     0
176
     1
290
     1
176
     1
290
     1
176
     1
290
     0
176
     1
290
     0
176
     1
290
     0
176
     1
290
     0
176
     1
290
     0
176
     1
290
     0
176
     1
 90
       50
176
     1
 40
0.0
176
     1
 40
1.0
176
     1
 90
        0
176
     1
 62
    18
420
        0
176
     1
 90
       50
176
     1
 90
        3
176
     1
 62
     5
420
      255
176
     1
290
     0
176
     1
 90
       50
176
     1
 90
       50
176
     1
 90
       50
176
     1
290
     0
176
     1
 90
       50
176
     1
 62
   256
176
     0
 40
1.0
176
     0
 90
        2
176
     1
  1
strokes_ogs.tif
176
     1
290
     0
176
     1
 40
1.0
176
     1
 40
1.0
176
     1
  0
VISUALSTYLE
  5
3C
102
{ACAD_REACTORS
330
29
102
}
330
29
100
AcDbVisualStyle
  2
X-Ray
 70
    25
177
     3
291
     0
 70
    58
 90
        2
176
     1
 90
        2
176
     1
 90
        1
176
     1
 90
        1
176
     1
 40
0.5
176
     1
 40
30.0
176
     1
 62
     7
420
 16777215
176
     1
 90
        1
176
     1
 90
        0
176
     1
 62
     7
176
     1
 62
   257
176
     1
 90
        1
176
     1
 90
        1
176
     1
 40
1.0
176
     1
 90
        8
176
     1
 62
     7
176
     1
 40
1.0
176
     1
 90
        1
176
     1
 90
        6
176
     1
 90
        2
176
     1
 62
     7
176
     1
 90
        3
176
     1
 90
        0
176
     1
 90
        0
176
     1
290
     0
176
     1
 90
       13
176
     1
 40
0.0
176
     1
 90
        0
176
     1
290
     0
176
     1
290
     1
176
     1
290
     1
176
     1
290
     0
176
     1
290
     0
176
     1
290
     0
176
     1
290
     0
176
     1
290
     0
176
     1
290
     0
176
     1
 90
       50
176
     1
 40
0.0
176
     1
 40
1.0
176
     1
 90
        0
176
     1
 62
    18
420
        0
176
     1
 90
       50
176
     1
 90
        3
176
     1
 62
     5
420
      255
176
     1
290
     0
176
     1
 90
       50
176
     1
 90
       50
176
     1
 90
       50
176
     1
290
     0
176
     1
 90
       50
176
     1
 62
   256
176
     0
 40
1.0
176
     0
 90
        2
176
     1
  1
strokes_ogs.tif
176
     1
290
     0
176
     1
 40
1.0
176
     1
 40
1.0
176
     1
  0
DICTIONARYVAR
  5
D0
102
{ACAD_REACTORS
330
CB
102
}
330
CB
100
DictionaryVariables
280
     0
  1
1:1
  0
DICTIONARYVAR
  5
CD
102
{ACAD_REACTORS
330
CB
102
}
330
CB
100
DictionaryVariables
280
     0
  1
STANDARD
  0
DICTIONARYVAR
  5
CC
102
{ACAD_REACTORS
330
CB
102
}
330
CB
100
DictionaryVariables
280
     0
  1
STANDARD
  0
DICTIONARYVAR
  5
CE
102
{ACAD_REACTORS
330
CB
102
}
330
CB
100
DictionaryVariables
280
     0
  1
Imperial24
  0
DICTIONARYVAR
  5
CF
102
{ACAD_REACTORS
330
CB
102
}
330
CB
100
DictionaryVariables
280
     0
  1
Imperial24
  0
DICTIONARY
  5
1A
330
19
100
AcDbDictionary
280
     1
281
     1
  3
BUMPTILE
360
1C
  3
DIFFUSETILE
360
1B
  3
OPACITYTILE
360
1F
  3
REFLECTIONTILE
360
1E
  3
REFRACTIONTILE
360
20
  3
SPECULARTILE
360
1D
  0
DICTIONARY
  5
12
330
11
100
AcDbDictionary
280
     1
281
     1
  3
BUMPTILE
360
14
  3
DIFFUSETILE
360
13
  3
OPACITYTILE
360
17
  3
REFLECTIONTILE
360
16
  3
REFRACTIONTILE
360
18
  3
SPECULARTILE
360
15
  0
DICTIONARY
  5
22
330
21
100
AcDbDictionary
280
     1
281
     1
  3
BUMPTILE
360
24
  3
DIFFUSETILE
360
23
  3
OPACITYTILE
360
27
  3
REFLECTIONTILE
360
26
  3
REFRACTIONTILE
360
28
  3
SPECULARTILE
360
25
  0
DICTIONARY
  5
D1
330
65
100
AcDbDictionary
280
     1
281
     1
  3
ACAD_ROUNDTRIP_2008_TABLESTYLE_CELLSTYLEMAP
360
D2
  0
XRECORD
  5
1C
102
{ACAD_REACTORS
330
1A
102
}
330
1A
100
AcDbXrecord
280
     1
270
     1
271
     1
  0
XRECORD
  5
1B
102
{ACAD_REACTORS
330
1A
102
}
330
1A
100
AcDbXrecord
280
     1
270
     1
271
     1
  0
XRECORD
  5
1F
102
{ACAD_REACTORS
330
1A
102
}
330
1A
100
AcDbXrecord
280
     1
270
     1
271
     1
  0
XRECORD
  5
1E
102
{ACAD_REACTORS
330
1A
102
}
330
1A
100
AcDbXrecord
280
     1
270
     1
271
     1
  0
XRECORD
  5
20
102
{ACAD_REACTORS
330
1A
102
}
330
1A
100
AcDbXrecord
280
     1
270
     1
271
     1
  0
XRECORD
  5
1D
102
{ACAD_REACTORS
330
1A
102
}
330
1A
100
AcDbXrecord
280
     1
270
     1
271
     1
  0
XRECORD
  5
14
102
{ACAD_REACTORS
330
12
102
}
330
12
100
AcDbXrecord
280
     1
270
     1
271
     1
  0
XRECORD
  5
13
102
{ACAD_REACTORS
330
12
102
}
330
12
100
AcDbXrecord
280
     1
270
     1
271
     1
  0
XRECORD
  5
17
102
{ACAD_REACTORS
330
12
102
}
330
12
100
AcDbXrecord
280
     1
270
     1
271
     1
  0
XRECORD
  5
16
102
{ACAD_REACTORS
330
12
102
}
330
12
100
AcDbXrecord
280
     1
270
     1
271
     1
  0
XRECORD
  5
18
102
{ACAD_REACTORS
330
12
102
}
330
12
100
AcDbXrecord
280
     1
270
     1
271
     1
  0
XRECORD
  5
15
102
{ACAD_REACTORS
330
12
102
}
330
12
100
AcDbXrecord
280
     1
270
     1
271
     1
  0
XRECORD
  5
24
102
{ACAD_REACTORS
330
22
102
}
330
22
100
AcDbXrecord
280
     1
270
     1
271
     1
  0
XRECORD
  5
23
102
{ACAD_REACTORS
330
22
102
}
330
22
100
AcDbXrecord
280
     1
270
     1
271
     1
  0
XRECORD
  5
27
102
{ACAD_REACTORS
330
22
102
}
330
22
100
AcDbXrecord
280
     1
270
     1
271
     1
  0
XRECORD
  5
26
102
{ACAD_REACTORS
330
22
102
}
330
22
100
AcDbXrecord
280
     1
270
     1
271
     1
  0
XRECORD
  5
28
102
{ACAD_REACTORS
330
22
102
}
330
22
100
AcDbXrecord
280
     1
270
     1
271
     1
  0
XRECORD
  5
25
102
{ACAD_REACTORS
330
22
102
}
330
22
100
AcDbXrecord
280
     1
270
     1
271
     1
  0
CELLSTYLEMAP
  5
D2
102
{ACAD_REACTORS
330
D1
102
}
330
D1
100
AcDbCellStyleMap
 90
        3
300
CELLSTYLE
  1
TABLEFORMAT_BEGIN
 90
        5
170
     1
 91
        0
 92
    32768
 62
   257
 93
        1
300
CONTENTFORMAT
  1
CONTENTFORMAT_BEGIN
 90
        0
 91
        0
 92
      512
 93
        0
300

 40
0.0
140
1.0
 94
        5
 62
     0
340
55
144
0.25
309
CONTENTFORMAT_END
171
     0
 94
        0
309
TABLEFORMAT_END
  1
CELLSTYLE_BEGIN
 90
        1
 91
        1
300
_TITLE
309
CELLSTYLE_END
300
CELLSTYLE
  1
TABLEFORMAT_BEGIN
 90
        5
170
     1
 91
        0
 92
        0
 62
   257
 93
        1
300
CONTENTFORMAT
  1
CONTENTFORMAT_BEGIN
 90
        0
 91
        0
 92
      512
 93
        0
300

 40
0.0
140
1.0
 94
        5
 62
     0
340
55
144
0.18
309
CONTENTFORMAT_END
171
     0
 94
        0
309
TABLEFORMAT_END
  1
CELLSTYLE_BEGIN
 90
        2
 91
        1
300
_HEADER
309
CELLSTYLE_END
300
CELLSTYLE
  1
TABLEFORMAT_BEGIN
 90
        5
170
     1
 91
        0
 92
        0
 62
   257
 93
        1
300
CONTENTFORMAT
  1
CONTENTFORMAT_BEGIN
 90
        0
 91
        0
 92
      512
 93
        0
300

 40
0.0
140
1.0
 94
        2
 62
     0
340
55
144
0.18
309
CONTENTFORMAT_END
171
     0
 94
        0
309
TABLEFORMAT_END
  1
CELLSTYLE_BEGIN
 90
        3
 91
        2
300
_DATA
309
CELLSTYLE_END
  0
ENDSEC
  0
EOF
